<mxfile host="app.diagrams.net" modified="2022-08-31T05:18:14.957Z" agent="5.0 (Windows NT 10.0; Win64; x64) AppleWebKit/537.36 (KHTML, like Gecko) Chrome/104.0.0.0 Safari/537.36" etag="bCZcbEQZYoZyXhDe4hKx" version="20.2.7" type="github">
  <diagram id="Uk1OiR9B2rzOJj8ZCD1k" name="Страница 1">
    <mxGraphModel dx="1231" dy="1246" grid="1" gridSize="10" guides="1" tooltips="1" connect="1" arrows="1" fold="1" page="1" pageScale="1" pageWidth="827" pageHeight="1169" math="0" shadow="0">
      <root>
        <mxCell id="0" />
        <mxCell id="1" parent="0" />
        <mxCell id="LaYl4STIJNKUUReDZeB0-3" value="" style="shape=image;verticalLabelPosition=bottom;labelBackgroundColor=default;verticalAlign=top;aspect=fixed;imageAspect=0;image=data:image/png,iVBORw0KGgoAAAANSUhEUgAABC8AAAbCCAYAAAAK9N1IAAAgAElEQVR4nOzdfUyb937//5d/p+cU7ZyTWEctQZsUfCSS0qwT3qlUcSOVkBzthBxBiHbaQqUoiU7iwB9HUIUqyQQiEegkUUGA+gd3mZJ8IxWSdCsJKrTbEkiPAK/SyTHnRGkKnIWgqYcwnc1MOx1nm3T9/gA7tvEdt9dl83xIVo193bzt1B/bL39ubIZhGAIAAAAAALCo/8/sAgAAAAAAAKIhvAAAAAAAAJZGeAEAAAAAACyN8AIAAAAAAFga4QUAAAAAALA0wgsAAAAAAGBphBcAAAAAAMDSCC8AAAAAAIClEV4AAAAAAABLI7wAAAAAAACWRngBAAAAAAAsjfACAAAAAABYGuEFAAAAAACwNMILAAAAAEBUs7Ozqq2tNbsMbGI2wzCMY8eOaXJy0uxa1s2//du/6d///d/1/PPPm10KgBX64x//KEm8jgEAMMn//d//6X/+53/0J3/yJ2aXsmpPnjyJuU16evqq9o917JUe43vf+56++93vLquWcI8l0n6RHvfXX3+tb3zjGzE/i/3xj3/UH//4R83Pz+u///u/JUnf+c539K1vfUvPP/+8vvWtb+l///d/9dVXX0V9jgGfLVu26Ne//vVCeGGz2VRXV2d2Tevm4sWLSktL0+HDh80uBcAKtba2yul0Kj8/3+xSAADYlK5cuaJvf/vbeuONN8wuZc08ePBAf/d3f+f/+6//+q+VkZGhlJSUmPv+4Q9/0OPHj4P2j/ad6ve//73+4R/+QePj4/7t4j3GH/7wB83Ozur//b//p7/6q79STk5O0P0zMzMaHBzU+Pi4/7YTJ04oLS0t6mP413/9V/3t3/6tdu7cqezsbH3/+9+PuO3HH3+svXv3RnxuHj9+LLfbrS1btujVV1+V3W73b/v73/9ev/vd74IeZ6THCoR67733dPXq1WfhhWEYZte0bux2u5xOp4aGhswuBcAKORwOHTlyRGfPnjW7FAAANqX8/Hxt27ZNN27cMLuUNWWz2fzXl/udaG5uTna7Pe79x8bG5HQ6l2wXbw13797V4OCg6uvrl9w3OzurY8eOqa+vT5L09OlTpaamxnwMNptNT5480fbt2yNuMzs7q/fffz/seSWpq6tLLpdL3d3dKi0tjXic8fFxVVdX+2tM5u+gWDsvvvii2tramPMCAAAAQPKbnp5WX1+fmpqaVFFRIZvNFhQaSPLfVltbq66uLrnd7qjH3Lp167JqyMrKWnbdgV599VU1NDSEvS81NTUoXLh7927M442Njam7uztqcCFJ//zP/6wf//jHYe/r6emRy+VSY2Nj1OBCknbu3KnGxsaYdQHhEF4AAAAASFq+iSbT09PV39+vvLw8nTlzRoZhLPnl33fboUOH9N3vflc5OTkqLi7W2NjYmtWzmt4GW7dujbp/VlaWysvLJUllZWWam5uLerwPP/xQe/bsiXne/v5+vfzyy0tuHxsbU1lZmSTp2LFjMY8jEWBg5QgvAAAAACSl8fFxHTt2TA0NDeru7lZbW5uys7Nj9jTYuXOnSktLNTo6qr6+PjmdzjUNMNaTL7yQpIGBgYjbTU9Py263xxxaMjs7qxdeeCFsLxPf6iOdnZ3L6oXywx/+MO5tAR/CCwAAAABJZ25uzj+/Qk1NTcwhDeFkZ2f7ewk4nc6YPRmsICsry19zWVmZpqenw2538+bNuCZfjTRkZGxszD93xV/8xV8sq0aHwxH1/unpafX09Ki4uNg/lKerqytoQtJAvm3CXYqLi9XU1BRxXx+3263a2tqgoUOhgdX09HTUc4VeIj338dYez2W1z10iIbwAAAAAkHQGBgb8X65/8pOfrPg4RUVFQcdMBIGhxM2bN5fcPzc3p8nJyZg9UKTIQ0Y+//xz//U//dM/XVZ90Ya/9PX1+ZdQvX37tgzD8PeAeemll9TT07NkH8MwdOfOnSW3eb1evf3226qurtZLL70UsfdMbW2tvv76a9XX18swDHk8Hv/kqoHnm5ycVHl5ubxeb9RhR16vV+Xl5frqq69iPheRag93CXTnzp0lt63kuUskhBcAAAAAks69e/f811czUebOnTvDHtPKtm/f7u99UV1dvaQHwMDAQNDwkkiiDRm5f/9+0PnWgtvtVnFx8ZLJP7Ozs/2TkZaVlflDqUDh5u7YunWrCgsL/X+3t7cv2aapqUkFBQVB+4f2XvFN3Prb3/5W5eXlMYfIbN26VeXl5frNb34TdbtotS93n9U8d4mC8AIAAABA0gn3RdWKxwwVOiygqakprpVPQh06dMh//fz58/7rc3NzunfvXlyBTrRVRtb6uZibm9PPf/5zScG9XXyysrJUU1MjSSouLo5rSIYUvCJMaM1jY2Oqrq4OGx4EhlYff/yxpIXAJtaQl8B6AwOe9bRez53VEF4AAAAAgEUEDhN48uSJ/uzP/kwul8u/8sns7Gxcx0lNTVV3d7ekhS/tviETv/zlL+Oa60KKPGRkPfzyl7/09woIDA4CBQYpIyMjcR038PkKXeXEN/Ql1nwSvuVp29raljUxaVtbW9zbrsZ6PXdWQ3gBAAAAIOn4fmmWFPcX/nACJ+kMPOZG2L59u0pLS/X06VMVFRWpr69Px44di3vi0HBDJm7evBnXMIVoQ0bWw+DgYMxtAufW+OCDD2JuPzc3p/fff1/Swiosgb1RpGdDXyLNMRFpvgmrWY/nzooILwAAAAAknYKCAv/1Bw8erPg4U1NTYY+5kVJTU/3zFvT19cU9cejWrVt1+/ZtSQvhRUVFhfLz8+PaN9qQESm4F8NqwiEfX++GaALn1og1d4PNZpPdbg9aJjd0WdiNGAa0Edb6ubMqwgsAAAAASWfPnj3+SSlbWlpWfBzfF9yioqIVTay4VgLnqFjOL+dFRUX+eRDa29uDemNEE2vISODwhN/97ndx17NRfD0mPB6PPvjgAxUXF+vu3btht02GZUQ3A8ILAAAAAEnp3Llz/uEWtbW1y96/p6fHH16EzpdgpuX+cl5VVSVJ6u7ujmsYSDxDRl5//XX/9S+++GJZ9YQTuPpJPD054v33yMrKUn19vfr6+rR3796gAMMX6kR7Pufm5lRRURHXucyyXs+d1RBeAAAAAEhKqampunbtmhobG9XQ0KCKigq53e6Yqy2Mj4+rqalJZWVlKioq0pdffhlxIsSNEjjPRTzLnAZ69dVXJSnuXhexhoxIC0NSfBOClpWVxT0Ph8/Y2Ji6urr8fwcOZ/mXf/mXmPvn5eXFfa7AXiuBvXB84UV1dbV/QtNQn332mTIyMuI+lxnW87mzEsILAAAAAElr69atOnnypJ4+fao33nhDw8PDOn/+/JIVJaRnq05cu3ZNW7Zskcfj0e3bt00PLqSFFSV84p23wuezzz6Lu9eFFP8qI6Wlpf4g5dKlS3HXMzs7q9raWh0/ftx/W+CQHN/SpKF8oVNRUZGys7PjPl+gwF4Wr732mv+60+nU3bt3g0IYt9ut4uJiy3/Z36jnzmyEFwAAAACSXmpqqvbs2aOTJ0+qra0t7CoSvtvq6+t1/PjxoF/swwntbbDc3gfx7jM9Pe3vMVBUVKTS0tKI23Z1dclms/mHR7jdbnV1dUXdJ9ByVxnxDc2prq4O6kkRyfj4uOrq6paEHampqf7JRRsaGuR2u5fs++mnn0qS/uZv/iau2gLP6RM4ZCIrKytoBZm9e/fKbrf7Q6ycnJyE+LK/ns+dlRBeJCGbzSa3263x8XH19fWpqakpaL3ipqamiN2iAACJI9ya9E1NTas6Zuh7Rugvk2v9HhPuXJEeV09Pz4omVYvn+AA2n7m5OfX09ATd1tPTE3cAMTs7u2TVj4GBgWWtvBHuGIHnn52dVU9Pj9LT09XX16eioqKYPRxcLpekhS/ivi/gy5njIJ4hI4F8X5w7OzvlcrlUXFysvr6+JUNzxsfH1dPTo76+Pl24cGHJyh/SQjDjG4qSk5MT9CX87t27crlcun37dtgwIdJknNPT07p27Zr/+KHLpdbX10dcAjfW8x16zpV+xwo9TrjHEvp8hm6zmucuYRgLcaORzLZu3Wrk5+ebXcaGkeS/3Llzx/B6vYZhGIbX6zXu3Lnjv6+7u9vkSoH4paenG3V1dWaXAViO1+s1ampqgtr+J0+erOhYT58+DTpOuPeJ9XqP6e7uDjr206dPgx7jnTt3jKKiIkOSUVNT4z/vas7R3d29ouMAm9Xrr79uvPHGG2aXsSYC24JIl/XcP95jSDLKy8uNxsZGY3R0NK7H5vF4/O1lY2NjUHsaj/Ly8hW3jU+fPjVu375tNDY2LnkM3d3dxpdffhnXcTwej9HZ2enfv6ioyOju7o74/hbrOaypqTFu374d9XHduXPHKC8v95+vs7Mz6nO3mn/7lRwn3nMt97lLBC+88IJx8+ZNw2YYhmGz2ZZ0mUomdrtdTqdTQ0NDZpeyIXy/IHk8nrBd3fr6+lRcXBx1G8BqHA6Hjhw5orNnz5pdCmA5c3Nzstvt/r8bGxt18uTJZR+np6dHZWVl/r/DfTZYz/eYwB4Q4c49OzurY8eOqa+vT+Xl5Wpra4v72PGeA0Bk+fn52rZtm27cuGF2KQA2kRdffFFtbW0MG0lWjY2NET8wBi5r9OGHH25USQCAdeIbl+ybNK26unrZ467n5uZ07969uLY16z0mNTXVv9xfe3v7ku7egaanp/3DWioqKqJOzFdbW6uurq6wY4QBAIA1EF4kqR/+8IcR7wucfKehoWEjygEAbIDApfNCx1DHMjAwEPfSe2a+x/iW+5OkDz74YMn9vhns09PT1d/fr7y8PJ05cybqxHyHDh3Sd7/7XeXk5Ki4uJh5oQAAsCDCiyQVbzdd39rGAIDEl5WV5Q8gysrK4u594et1Ee97h5nvMYHhSOByd9LCZHDHjh1TQ0ODuru71dbWpuzsbG3fvj3qMXfu3KnS0lKNjo6qr69PTqeTAAMAAIshvEhCscbwBn4ge/vtt5fcPz09ra6uLhUXFwd1qY32Qc43E3Jg19xYs9VHuhQXF6upqWnJjPLxzhIfaZvp6em4Z7X3bR/K7XartrY27uclVt2RHgsz4gNYqZX0vvjss8/i7nWx2veYtRQYjszNzam6ulp9fX2qqamJe0nAQNnZ2f4Z+Z1O54qWPAQAAOuD8GKT8XWnlRY+9BUWFgbdPzY2pvT0dLlcLjU2NsowDHV3d6uhoUFOpzPssj2+CdTKysr0wgsvyOv1Lvlwe+fOnaDbDMPQnTt3grYxDENer1dvv/22qqur9dJLLwV9CDYMQx6PJ+pxJenJkydht5mcnFR5ebm/vkjdh71er8rLy/XVV18F3V9bW6uvv/5a9fX1/lrGxsbkdDqjjrsOfKy+c4Q7f+BjCff8eDweJpcDEFNWVpb/S328vS/6+/vXZPLmWO8xayFSODIwMODvifGTn/xkxccPDESWO/QGAACsH8KLTWJ6elp37971z9Le2NioS5cuBXW/leT/0CktdKOVpD179vhvu3nz5pJjv//++/4PjD/72c+WHDP0GNFu27p1a9CH3fb29qD7Qz9chztGaPdg3za//e1vVV5eHra+0BrKy8v1m9/8xn9bU1OTCgoKgs6XlZXl/4WurKws6kRv4eqMtU3o36wKAyBevkktpYVeFdHcvXtXb7zxxqrOF+97zFrwvS8UFRUFtZOBk42upr30vfeFHhMAAJiL8CLJ+YYapKena+/everr61N3d7dOnjyp1NTUJdv7fnEK/NU/cLvQMEEKnpAt3DGXK/DDbrjzxRJpGMf9+/flcDjiOkZWVpbu37/vP151dXXYACLwQ+7HH3+87FoBYD3s2bPH3553dXVF3fbmzZtxBazhLPc9ZjlC2/KxsTEVFxervb1dRUVFamxsjPn+tFrrcUwAALAyhBdJzjc84cmTJ+ru7pa00EuguLhYs7OzS7Y/fvy4DMNY1gfZtZ6QLbAuX8+GeI2Pj+uLL74Ie19bW9uyfgVsa2uTJH3++eeSIs9D4cPKLQCsxNf7oq+vL+yQP2n1vS6W+x6zHE6nM6itdTqdysrK0u3bt3Xt2rWg8BgAACQ/wotNYvv27SotLdXTp08lLXyYPXbsWMyx0GNjY0FDScIJ7J682tnZ5+bm9P7770tamHTu0KFDce87Ozur+/fvr2iStmh8PTBC56sIdwEAqwjsfdHS0hJ2m9X0ugi00veYaMK1sfX19SoqKgobRNfU1PivryY4Caw58JgAAMBchBebTGpqqn9ISF9fX8TJyMbGxlRRUaF/+qd/0vHjx6Mec8+ePers7JSkuFbfiMRms8lutwctcbecbsfXrl1b8+BCsk634cBfIGtra9XT08NM+ACi8rXf4XpfjI2Naf/+/Wt6vnjfY9ZDQUGB//qDBw9WfJypqamwxwQAAOYivNiEXn31Vf/1Dz74IOi+6elpVVRUqLa2VmfOnNHJkyeXTIAZzvHjxzU6Oqq+vj5/V9/l8v2y5vF49MEHH6i4uDhiV+dQTU1NOnny5LLPuRyhS7duNN/z8+WXX2psbExlZWU6dOjQqrtmA0her7/+uv96aO+L9vb2oPvXSrT3mPW0Z88e/3KvkXqaxCPShKAAAMBchBebUGB3W98qIdLCl/P09HS1t7ervr4+rtAiUOCvVaOjoyuuLysrS/X19err69PevXtjBhg9PT3LGl6yXL5u14HPVai5uTlVVFSsWw2Bdu7c6Z8LpK+vT9euXduQ8wJIPFu3bvXPRdHX1+fvGTc2Nqb8/Px1WQ0k0nvMRjh37pyKiorU19cXc8hjOD09Pf7wYrlzLgEAgPVFeLHJBU622dzc7L++3GXmpqenVVZWJmnhA192dvaq6go8f7Rf0Hp6evSDH/xgTVY5icT3HFVXV0ccEvPZZ58pIyNj3WoIFThRXXV19YadF0DiCbf8dHt7e9Dt62WtJ3SOJTU1VdeuXVNjY6MaGhpUUVEht9ut6enpqPuNj4+rqalJZWVlKioq0pdffsmEoAAAWAzhRZJpamqKOedE4P1vv/22//pq5nY4f/68//pa94KI9svdyy+/vO4fMF977TX/dafTqbt37wbNNeF2u1VcXKy8vLyIx5ienmbiNwCmCOx90d7erq6urhX3uljNe8xG2bp1q06ePKmnT5/qjTfe0PDwsM6fP79khSjp2VxC165d05YtW+TxeHT79m2CCwAALIjwIskcOnRI7e3tUednCBzPG/jLW+AvZD09PZIWvnR3dXUF7T83NxcUKNy9e9d/zDt37qxJL4jA+qN13V1uD5GVyMrKCgoe9u7dK7vd7v/Qm5OTo6KioiW9TZqamlRRUaHZ2VlNTk4uexhONIHPj2+yVACIJHDuBpfLFfdcDqGTAq/mPWa5VjshcWpqqvbs2aOTJ0+qra0t7KpQgauYHD9+fEPeUwAAwMoQXiSZ1NRUnTt3Ts3Nzerp6QnqKjs9Pa3a2lq1t7ervLxcly5dCvrlLXDJ07KyMtlsNnV1den48eNBwYbdbvd/EXe73dq7d6+khaVNfR+IQ+epCDdvRaS5LKanp/3zOBQVFQX15IjnuKHdgyOdJ9zM+5HU19dH7DlRVFSkS5cuLbm9urpa7e3t2rZtm/bu3av8/Pyg+91ud9R6oj0/vqEiNTU1MVeDAZD8fIGz77+hUlNT/UFwY2NjxJA5dP/Q1UJW8x4T72OIdO7VmpubW3IOVm0CACBx2AzDMGw225JfI5KJ3W6X0+nU0NCQ2aVsKLfbreHh4aA5ERobG5WXlxdxToq+vj4VFxdLkrq7u/1Lj46NjcnpdKq8vFxnzpzR9u3bl3S/ffLkSdjbA/n+P4u1GklNTY1ee+01vf766/4Pv/EcN9p28WwTul2ou3fv6ubNm2pvb1dRUZGKiop04MCBsF8E7t69q71796qoqEhVVVVBv3TGOn+s5yfWv2MycjgcOnLkiM6ePWt2KYBlLKctm56eVnp6ur+tjvc4kY63kveYcFZy7uXaiHMAm0F+fr62bdumGzdumF0KgE3kxRdfVFtbG+EFgMRAeAEAgLkILwCYwRdeMGwEAAAAAABYGuEFAAAAAACwNMILAAAAAABgaYQXAAAAAJCkbDabxsbGNDY2pq6uLtlsNtlsNjU1NYVdbW96etq/TTyXWNuH1rLcS6C7d++quLhYNpst4sp8brdbtbW1/v1ra2ujriqIxEF4AQAAAABJzOl06vPPP9ebb74pwzD05MkT3bt3T06nc8ky0pOTkyovL5fX65VhGEsWdvDd5vV6VV5erq+++kqGYcjj8QRtd+fOnSX7PnnyJOw2hmHozp07QfeNjo4G7e9bya+vr0+StHfv3iWPs7a2Vl9//bXq6+v9NflWTYy0nDgSB+EFAAAAACSxmpoaHT9+XFu3bpUkbd++XZcuXZIklZWVBX2x/+1vf6vy8nL/tpFs3bpV5eXl+s1vfiNJysrKCrp/z549S/YJXao7cJvQ7UOX3W5padHo6Kju3LmjoqIidXd3B93f1NSkgoKCoONkZWWpsbHR/zjdbnfUxwRrI7wAAAAAgCR26NChJbelpqb6A4CysjJNT09Lku7fvy+HwxHXcbOysnT//v2461jp8I2xsTG9/fbbys7O1p49e3T79m2VlpYG3V9dXR02MNm5c6f/+scff7yi88MaCC8AAAAAIIkFfoEP9IMf/MB//dNPP5UktbW1xex1EaitrS2u7cbHx/XFF1/EfdxA7e3tQbWG+vzzzyVFnlPDp6GhYUXnhzUQXgAAAABAkgqddyJQYKjhm0tiPczOzur+/ftBvSXi3a+pqUkvvPBCxABGkr/3h2/+jGgXJK7nzC4AAAAAALAxQlfw8FnP8OLatWs6efLksvYJrPPLL7+Mum17e/uK6kJioecFAAAAAGwSG90ToampadnBhbRQ5+joqCTppZdeirg0aqDx8fFlnweJg/ACAAAAADa5mpqaNT9mT09P2MlC45Wdne2va+/evZqdnQ27XVFRkaTovUfm5uZUUVGx4lpgPsILAAAAANiE5ubm/Nf//M//fE2P3dPTox/84AdKTU1d1XGOHz/uv/7++++H3cYXXlRXV0dc0eSzzz5TRkbGqmqBuQgvAAAAAGATmpqa8l8vLCxc02O//PLLUSfZjNf27dvV2dkpaWG1ELfbvWSb1157zX/d6XTq7t27QcGM2+1WcXGx8vLyVl0PzEN4AQAAAABJqqurK2JvhA8//FCSdPv27WUtjxqPrKysNTvWm2++6e9d8fOf/3zJ8JGsrKygYS979+6V3W73L5Wak5OjoqIiZWdnr1lN2HiEFwAAAACQpI4fP64PP/xQfX19/t4Ic3Nz6urqUkNDg7q7u/3BQDihE2VGCkJCtws3web09HTEbaLtv3XrVlVVVUlamNfi/fffX3Ks+vr6iPN2FBUV6dKlS2HvQ+IgvAAAAACAJFZfX69vf/vbOn36tGw2m+x2u/7zP/9THo9HpaWlEfez2Wzau3dv0G1Op3PJcqvhttu7d++S7dLT08NuE8/+e/bs8YcTDQ0NSk9PX3L8+vp63blzR+Xl5ZIWQovOzk5dunRp1XNvwHw2wzAMm822IcvkmMVut8vpdGpoaMjsUgCskMPh0JEjR3T27FmzSwEAYFPKz8/Xtm3bdOPGDbNLAbCJvPjii2pra9sc4cX3vvc9/cd//IfZZQAAAAAAgGX4xje+ob//+7/Xc2YXshG2bNmiLVu2BM2mCyCx7N69W5LoQQUAgEmOHTume/fuaWJiwuxSAGwi3/zmN/W9732POS8AAAAAAIC1EV4AAAAAAABLI7wAAAAAAACWRngBAAAAAAAsjfACAAAAAABYGuEFAAAAAACwNMILAAAAAABgaYQXAAAAAADA0ggvAAAAAACApRFeAAAAAAAASyO8AAAAAAAAlkZ4AQAAAAAALI3wAgAAAAAAWBrhBQAAAAAAsDTCCwAAAAAAYGmEFwAAAAAAwNIILwAAAAAAgKURXgAAAAAAAEsjvAAAAAAAAJZGeAEAAAAAACyN8AIAAAAAAFga4QUAAAAAALA0wgsAAAAAAGBphBcAAAAAAMDSCC8AAAAAAIClEV4AAAAAAABLI7wAAAAAAACWRngBAAAAAAAsjfACAAAAAABYGuEFAAAAAACwNMILAAAAAABgaYQXAAAAAADA0ggvAAAAAACApT1ndgHAevJ6vfJ4PJIkt9ut+fl5ORwOORwOpaSkKDs72+QKAQAAAACxEF4gqXi9XvX29urTTz9Vb2+vUlJS5HQ6JUnZ2dl6/vnnde/ePV29elXz8/Nyu91yOBwqKSnRgQMHtHv3bpMfAQAAAAAgFOEFkkJvb69aW1vl8Xj8QcTly5eVkpISc9+pqSn19vbq3LlzOnjwoEpKSlRXVyeHw7EBlQMAAAAAYiG8QEIbGhrSuXPnZLfbVVdXt6KeEw6HQ1VVVaqqqvL33CgsLNS+fft06tQppaWlrUPlAAAAAIB4MWEnEtLMzIwOHjyoc+fOqa6uTh999NGaDPmw2+06cuSIfvWrXyk9PV0FBQW6cOHCGlQMAAAAAFgpwgskHI/Ho4MHD+rw4cMaHBxcl3kqUlJSVFVVpdHRUc3NzamsrEzz8/Nrfh4AAAAAQGyEF0gon3zyid555x11d3erpKRk3c9nt9t1/vx5HThwQIWFhZqZmVn3cwIAAAAAgjHnBRLGlStXdP36dX300Uey2+0beu7S0lI5HA4dPHhQ3d3dTOYJAAAAABuInhdICJ988omuX7+ugYGBDQ8ufLKzs9Xd3a2ysjJ6YAAAAADABiK8gOV5PB6dO3dOH330kdmlyOFwqK2tTQcPHmQODAAAAADYIIQXsLSpqSn/HBcpKSlmlyNJcjqdOnXqlMrKyswuBQAAAAA2BcILWFpZWZnOnz9vuTkmSkpKlJWVpbNnz5pdCgAAAAAkPcILWFZvb6/S0tKUnZ1tdilhnfQmjWIAACAASURBVD59WlevXmX+CwAAAABYZ4QXsKT5+XmdOXNGzc3NZpcSUUpKiiorK3Xx4kWzSwEAAACApEZ4AUtqb2/Xvn37LDdcJFR5ebl6e3vpfQEAAAAA64jwApZ08eJFnTp1yuwyYqL3BQAAAACsP8ILWI7b7ZbD4VBaWprZpcSltLRUPT09ZpcBAAAAAEmL8AKWc+vWLR04cMDsMuKWlpYmh8Mht9ttdikAAAAAkJQIL2A5vb29KikpMbuMZTlw4IBu3bpldhkAAAAAkJQIL2Apjx49kiRlZmaaXMnylJSUqLe31+wyAAAAACApEV7AUh49epRwwYW0ELb4ghcAAAAAwNoivIClTE1NWX551EgcDoempqbMLgMAAAAAkg7hBSzl6dOn2rZtm9llrEhaWppmZmbMLgMAAAAAkg7hBSxlZmYmYZZIDUV4AQAAAADrg/AClpLIw0bsdru8Xq/ZZQAAAABA0iG8gKUkcu+F+fl5paSkmF0GAAAAACQdwgtYSiJPepnIQ14AAAAAwMoIL2Ap27Zt09OnT80uY0USecgLAAAAAFgZ4QUsJZGHjRBeAAAAAMD6ILyApWRmZurRo0dml7FsBBcAAAAAsH4IL2ApTqdTXq834ea96O3tVUlJidllAAAAAEBSIryA5ezbt0+ffPKJ2WUsy61bt3TgwAGzywAAAACApER4Act56623dP36dbPLiJvX69WjR4+UnZ1tdikAAAAAkJQIL2A52dnZmpqaSpiJO3t7e7Vv3z6lpKSYXQoAAAAAJCXCC1hOSkqKKisrdfHiRbNLiUtra6sqKyvNLgMAAAAAkhbhBSypvLxcvb29lu990dPTo8zMTDmdTrNLAQAAAICkRXgBS0qE3hfz8/M6c+aMmpubzS4FAAAAAJIa4QUsq7y8XJ988olll01tb29XSUmJ0tLSzC4FAAAAAJIa4QUsKyUlRR999JHKysrk9XrNLieI2+3WrVu3dP78ebNLAQAAAICkR3gBS8vMzFRdXZ3KysrMLsVvampK77zzjrq7u1lhBAAAAAA2AOEFLG/fvn360Y9+pHfeecfsUjQ/P6+ysjK1tbUxXAQAAAAANgjhBRJCVVWVJJkaYMzMzKigoEB1dXWsLgIAAAAAG4jwAgmjublZ6enpOnjwoObn5zf03B6PRwcPHlRbW5v27du3oecGAAAAgM2O8AIJpaqqSocPH1ZBQcGGrULS09OjiooKdXd30+MCAAAAAExAeIGEU1JSora2NhUUFOidd97RzMzMupxnaGhIOTk5unXrlgYHB+VwONblPAAAAACA6AgvkJCcTqceP36s9PR05eTk6OzZs2sWYrjdbhUWFurcuXNqbm5mVREAAAAAMBnhBRJaVVWVvvjiC0nSX/7lXyonJ0ctLS3LHlIyNDSkiooKff/739c777yjyspKDQ4OKjs7ez3KBgAAAAAsw3NmFwCsVkpKis6ePauzZ8/K7Xbr+vXrKigoUEpKitLS0pSZmalt27bJbrdr27Zt+vLLLyVJY2Nj8nq98ng8cjqdeuutt3Tq1CmGhwAAAACAxRBeIKlkZ2crOztbzc3NevTokWZmZvz/dbvd+sd//Ef97Gc/kyQdPnxYdrtdTqdTdrvd5MoBAAAAAJEQXiBpZWZmKjMzU7t375a0MDTk6dOnOnv2rMmVAQAAAACWgzkvAAAAAACApRFeAAAAAAAASyO8AAAAAAAAlkZ4AQAAAAAALI3wAgAAAAAAWBrhBQAAAAAAsDTCCwAAAAAAYGmEFwAAAAAAwNIILwAAAAAAgKURXgAAAAAAAEsjvAAAAAAAAJZGeAEAAAAAACyN8AIAAAAAAFga4QUAAAAAALA0wgsAAAAAAGBphBcAAAAAAMDSCC8AAAAAAIClEV4AAAAAAABLI7wAAAAAAACWRngBAAAAAAAsjfACAAAAAABYGuEFAAAAAACwNMILAAAAAABgaYQXAAAAAADA0p4zuwBgvczMzKisrMz/t9fr1dTUlAoKCvy3OZ1ONTc3m1EeAAAAACBOhBdIWmlpabLb7ert7Q26fWhoyH+9srJyo8sCAAAAACwTw0aQ1Orq6iLe53Q6VVJSsoHVAAAAAABWgvACSS1aQBEt2AAAAAAAWAfhBZJeuJCCXhcAAAAAkDgIL5D0wgUV9LoAAAAAgMRBeIFNITCsoNcFAAAAACQWwgtsCoGBBb0uAAAAACCxsFQqNo26ujpNTU3R6wIAAAAAEgzhBSLq7e3VrVu3NDU1Jbfbrfn5ebNLWhM2m83sElbN4XDI4XAoOztbhw8fVmZmptklAaaZmZlRT0+Pbt26Ja/XK4/HY3ZJCLB7927Z7XYdOHBApaWlSklJMbskAACQgAgvsMSjR4909OhRpaWl6cCBAzp8+LCys7P5wGkhU1NT/lDp4MGDKikpUV1dHf9G2HSuXLmiixcvat++faqrq5PdbpfT6TS7LAQYGhqS1+vVrVu31Nraqra2NmVnZ5tdFgAASDCEFwhy4cIFXb9+nQ+XFufrebF7926dPn1aFy5cUE5ODv9u2DRmZmb8Ievo6KjsdrvZJSGC3bt3S5JKSkr84fju3bsJXAEAwLIwYSf8zp49qydPnmh0dJQvwAnm9OnT6u7uVkVFBV3mkfS8Xq8KCwtVWVmpy5cvE1wkkMzMTI2Ojur555/X0aNHzS4HAAAkEMILSJI8Ho8+/fRTNTc380tYgsrMzNTly5dVUVGRNPOTAOG88847qqys1L59+8wuBSt09uxZSVJPT4/JlQAAgERBeAHNz8+roqJCbW1tBBcJzul06kc/+pEuXLhgdinAuvjkk080MzOjI0eOmF0KVqm5uVkXL17UzMyM2aUAAIAEQHgBXblyRU6nk0nuksTp06d1/fp1TU1NmV0KsOZ8QSsSX1pamk6cOKFz586ZXQoAAEgAhBfQ9evX9dZbb5ldBtZISkqKSkpK6I6NpON2u5WWliaHw2F2KVgjpaWl6u3tZagbAACIifACGhoa8s8Gj+SQlZWlsbExs8sA1pTH46GHWJKx2+2y2+30FAMAADERXmxyMzMzSktLM7sMrLG0tDTGkSPpzMzMaNu2bWaXgTVGewUAAOJBeLHJzc/PM0kngITw5MkThowAAABsUoQXAAAAAADA0ggvAAAAAACApRFeAAAAAAAASyO8AAAAAAAAlkZ4AQAAAAAALI3wAgAAAAAAWBrhBQAAAAAAsDTCCwAAAAAAYGmEFwAAAAAAwNIILwAAAAAAgKURXgAAAAAAAEsjvAAAAAAAAJZGeAEAAAAAACyN8AIAAAAAAFga4QUAAAAAALA0wgsAAAAAAGBphBcAAAAAAMDSCC8AAAAAAIClEV4AAAAAAABLI7wAAAAAAACWRngBAAAAAAAsjfAC62xAJ04MSJOtyrPZZPNd8lo1aXZpADaZSbXmBbRDsS4nBswuGAAAAIsIL7D+OvfLdli6ahgyDEOG0S/XSJV2EGAA2FAZqhw2ZPS7JOWqZcLXJgVcAu/rKDS7YAAAACwivMD6c/XLGK5Uhv+GQpW4JI081IR5VQEAAAAAEgThBdZZoTpCf70cOKH9nVJuy7sqXPw7sKv20p7aAzoRpkt3Xl5e2K7ez/YPv1+47uCTrYHHOqEBSQMngrcP2max10joNkGPJaRnSbhzALC6hXYkr3Uy4DWcp9bFF/fK24BnxwhtA8O1hcH7LtQTinYMAAAkM8ILbIzAOS96S2QYhoYrMyQN6MT+Trn6F7ps97ukzobAD8uTas3br0651O8bciIpt2VCw8PDmmjJlfz3GZpoyVXnft8H6kJ1GP1yBdzf79JCT5CAQGXghE2HdXWx2/iEWnI7tT+vVTs6grfPqFw8X26LJhZ7khSGbKPCjiXbRDsHw2YAKxvQCdt+dUrSjcOLr+EJteSOqGrHQjuznDZgx403NeFvA54dw79PhLZssjUvYN+FoS0jVTuCQljaMQAAkOwIL7AxMio17PvA+2D/s18OJ8f1QLnatWNhsx27csMPJ3GVKJ7R5xMPR6TcXdoRb12TrWrodKmm0vfxPEOVNS5ppErvregnxQG9VzWyzucAsDEK1WFMqCVXGnmlZjFwzVDl1RblqlO9YV+/kdqAXLVc9QUBi21AFP62bLJVh6tG5KoJGHrnCxc6GxZ6b9COAQCATYDwAhssQ5XDi18Gqt7TQEalho1hVWYs/jIZ+oFZGfrxm7lS5/4ww0l8OrV/sVdHw66JkPk1Yph4qJGA/W02m2z7OyVJD8YXf0/s3O+/b2l9gSbVmterXS25yz8HAEvL3RUQiWbs1CsK9/qN1ga8op2BDVNhhwyjIySUDdOWTTzUSEDA+6yEVySN6OGEaMcAAMCmQHgBE2Ro5yuS9EDjk8/GW/eWGItdp0O2rhyWMdGiB/ttsvm6cAd51tW65uGO4LHk8chtedYdO+Ay7PuF0dXvvy1cfQvG1Zp3WLraoR+v5BwAElyMNmCxvYsuTFs2LvlDikA7dimoNaIdAwAASY7wAutqsvVEmCBhUuMPFq9+fEL7Oxc+sEdblXDgvSqNyKX+xTkvIil8t0W5GtGNj+NML3bsUu7IDcW7eUSdN6SrCz1I1u0cAKxhcbjbmz8OeMHHagPCBRCTrWqN0KPM35Y9lHIldYaOUZl4qBG5VFIo2jEAALApEF5gXWVUvisdDp01/7CqRiS5avRjPVDgL5ITD5d2Z55szdP+zly1TIR2sV5q8uMbGpH0ysP3FmbJnxzXg2hzYGRUqsYVMHFewDkjD1MJw1UT/gP/Wp4DwBoKEyZE27rqPf/rd+C9Ko3kvqnA7CJ2GyB17g/uFTbw3kPtjNCo+duykg7VuBQydG5SrQ2dz1Zsoh0DAACbgWEYxuJ/klZ6erqRnp5udhmW9PjxY8PhcKz7efpdMqRnl9yWCd89hivgdpfLtXg912iZmDBachdv71+6bW5ubtAxg4490WLkKvK+Wrgxan1Bt7n6jYmWgPPlthgTIfvltkyE3Sb2c7D2BgcHjd27d6/b8c2Qn59v5Ofnm10GTHTkyBHj8uXLqzjCszZl6es0zH2ufv/tuS6Xv00JfG2vpg3wN0P9ruDzhmkjgo4buG+U4ydKO7Z7925jcHBw1ccBsP5++tOfGhkZGWaXAWCTee6554xf/OIXhs0wDMNms8kwjNWlIBbmcDgkSVNTUyZXYj1TU1MqKCjQ48ePzS4Fa2hoaEjnzp3T4OCg2aWsmd27d0taeGxIPh6PR729vaqqqpLdbg+7zdGjR5Wfn68jR45sYGWTas3boRtvTjC3wzopKChQXV2d/zUOwLqOHTume/fuaWJiGV3XAGCVvvnNb2pwcJBhIwAA83m9Xp07d07f//73dfbsWXm9XrNLAgAAgIUQXgAALIMQAwAAAOEQXgAALMcaIcaATth2qGpEGqnaIRszUwIAAJjmObMLALD2/uu//ku//vWvVVBQYHYpa2ZsbEySkuox4ZlI4YQvxGhtbdXLL7+s/Pz8DayqUB2GoY4NPCMAAADCI7wAktB3vvMdORwO1dXVmV3KmqmqqpKkpHpMeMbj8cjj8YS9Ly0tTadOndL9+/c3uCoAAABYBeEFkKS2bNmSVLP3+1agSKbHhOh8oUV5eblSUlJ09OhRs0sCAACASQgvAACWEhpaAAAAAIQXAABLILQAAABAJIQXAADTOZ1OPX78mNACAAAAYbFUKqxt4IRYnRBIfna7neACAAAAERFeAAAAAAAASyO8QEKabM2TzWYLewnsqRG6XV7rZJTj5Ml/98CJiMcMv+8J0UEESFAhr/fg1/2kWvMCbj8xELB98Os+WnsTX5s1oBNh7s9rnVza3ky2Ki/oGGHqXHLeZ/VGrCegsYvVfgIAAGwkwgskpIzKYRn9LuW2TMgwDBlGv1ySclsm1FG4sM1ka5523HhTE4axsE2/SyNVO/wfzgdO2ALun1BL7oiqdix+uC/skNHvkuRSv2H4j+kzcMKmw7q6eO4JteR2an9eq/hoDySgwg5NtOTK93o3DEMTLbnq3H9CA8pQ5bChfpck5arl3UKp8F215LrUb3TI1zTEam9it1mTas3br05/Dc/uH67MUEblcECNHSrMqNTwRItyJbn6DXUUZqhyeEILm/TL6CiM2k4FH894to3GNRnH4wEAANhohBewlIETIb8C7u9U5/6lv0LGNNmqw1UjctVUKsN3m+8LSmeDWgda1dCZq5arvvszVFnjiq/IyVY1dLpUU+k78uK+I1V6j8/1QFKYeDgi5e7SjsW/CzsWA87DrWo9cVi6+iy4iNneLCfVdJWoMPZWsa2oncpQZUelMtby8QAAAKwRwgtYSmGH7xfAZ7/2ufqDbxte/DA+Of4g8oEmHmpEudq1I/jmjJ2vSBrRw96HGtEr2pkRcGdhh4yAX1IXdGp/aHAy8VAjIbfb9ndKkh6M86keSFzPXtcNuyZkDAd8eVeGKof75Rqp0o1dV1UZ2HbEam8mFv6O2mYpQz9+M1fq3L82kxSvpp2K8/EAAABsJMILJKyJhyN6JSh9CBXmQ/aOXcr1//FAsbOG4G7kI1U7dKJXUm7Ls+7UYYIVAIno2eu95uGO4HlwJGlyXMpdbAeWBAyx2pvYbVZG5bCMiRY92G+TzbZfnat7MKtsp2I/HgAAgI1EeIEENanxBy6VROpfvfghu7M35BvGxEONyKWSd3cpN9yH88lWtUb41TPjx28qV9IDSbkjN/QxnSyApFX4botyNaIb/hf6gE4clt4dHla/S4vzYSyK1d4szmkRtc3yneW9Ko3Ipf7FOS9WbMeulbdTcT0eAACAjUV4gcQ08J6qXokyNjyjUjUuhXTBnlRrQ6dyW95V4eL9nfuDf1kdeO+hdkY46OTHNzSiXL35bodqXAGTe/rub81bm+7eAEy38HrXYk+JSbXm9apkcRjJwvwXAZP0xmpvpNhtlhbakP2duWqZCB2+tgIZlStvp+J5PAAAABvNMAxj8T9JKz093UhPTze7DEt6/Pix4XA4zC5jWSZacg1JES+5LRMRt3X1Bx+r36Xw9/e7wh47cP/QfQPPa7bBwUFj9+7dZpexpvLz8438/Hyzy4CJjhw5Yly+fHntDxzh9e57Tftf64sNQFC7ktti+F75kdqb2G1Wv9GSG7hPv+EKqSPWMYIuAQ1VpHYq+HguI6RpjPp41tru3buNwcHB9Tk4gDX105/+1MjIyDC7DACbzHPPPWf84he/MJ5bkwQE2EATD0f8yweGmmzN046HE5JvDZHKYRmVkY9V2GHI6Ah7h4ywd8SxL4DEEuP1Hvpaj9SuRLo9dpslDQ8berZroToMQ8EVRW/LQo9pOyEZHYUR26lYbWO82wAAAGwUho0g8exq0dUIE85lVF5Vy64NrgcAotngNot2EAAAJCN6XiDhFFZG+ykwQ5Ws+AHAQja+zaIdBAAAyYeeFwAAAAAAwNIILwAAAAAAgKURXgAAAAAAAEsjvAAAAAAAAJZGeAEAAAAAACyN8AIAAAAAAFga4QUAAAAAALA0wgsAAAAAAGBphBcAAAAAAMDSCC8AAAAAAIClEV4AAAAAAABLI7wAAAAAAACWRngBAAAAAAAsjfACAAAAAABYGuEFAAAAAACwNMILAAAAAABgaYQXAAAAAADA0ggvAAAAAACApRFeAAAAAAAASyO8AAAkBLvdLq/Xa3YZAAAAMAHhxSbncDg0NTVldhlYY/Pz80pJSTG7DGBNbdu2TU+fPjW7DKwx2isAABAPwgsoLS1NMzMzZpeBNfTo0SNlZmaaXQawpjIzM/Xo0SOzy8Aao70CAADxILyASkpK1Nvba3YZWEO3bt3SgQMHzC4DWFP79u3T0NCQ5ufnzS4Fa2RoaEhOp1N2u93sUgAAgMURXkCVlZXq6OjgC0GScLvdmp+f1+7du80uBVhTKSkpKi0t1ZUrV8wuBWvk4sWLOnXqlNllAACABEB4AWVmZuqtt97SuXPnzC4FqzQ/P6+KigpdvnzZ7FKAddHc3KzW1lbm6kkCV65cUVpamvbt22d2KQAAIAEQXkCSdPr0aQ0NDcntdptdClbhzJkzeuuttxg/jqSVkpKitrY2HT161OxSsApTU1O6ePGimpubzS4FAAAkCMIL+HV3d6uiokIXLlwwuxQs08zMjAoLCzU/P6/Tp0+bXQ6wrnbv3q0f/ehHysnJYQLPBHTlyhUVFhaqu7ubuS4AAEDcCC/g53A4NDo6qrm5OeXk5GhoaMjskhCD1+tVe3u7CgoKVFlZqba2NrNLAjbE6dOn1dzcrLKyMl24cIFhJAnA4/GosLBQ9+7d0+joqJxOp9klAQCABPKc2QXAWlJSUnT+/Hm53W6dOXNGZWVlDEGwMI/Ho9LSUo2OjvILJjad7OxsjY6O6ty5cyooKJDdbk+a14HX61VKSopSUlLMLmVNTE1NyW636/z588xxAQAAVoTwAmFlZ2drcHBQMzMzdMu2MFYUwWbnC1zPnz8vj8cjr9drdklr4uLFi8rKykqaL/oOh0MOh8PsMgAAQAIjvEBUaWlpSktLM7sMAIgpmYYhXL16VZmZmQSUAAAAi5jzAgAAAAAAWBrhBQAAAAAAsDTCCwAAAAAAYGmEFwAAAAAAwNIILwAAAAAAgKURXgAAAAAAAEsjvAAAAAAAAJZGeAEAAAAAACyN8AIAAAAAAFga4QUAAAAAALA0wgsAAAAAAGBphBcAAAAAAMDSCC8AAAAAAIClEV4AAAAAAABLI7wAAAAAAACWRngBAAAAAAAsjfACAAAAAABYGuEFAAAAAACwNMILAAAAAABgaYQXAAAAAADA0ggvAAAAAACApRFeAAAAAAAASyO8AAAAAAAAlkZ4AQAAAAAALI3wAgAAAAAAWBrhBQAAAAAAsDTCCwAAAAAAYGmEFwAAAAAAwNIILwAAAAAAgKU9Z3YBAAAg2KlTp2S3280uAwAAwDIILwAAsJjMzEyzSwAAALAUho0AAAAAAABLI7wAAAAAAACWRngBAMAaGjhhk8327JLXOhmyxaRa84K3ib597HOEvZwYWJ8HCAAAYALCCwAA1spkqxo6A2/I1Zs/zgjZKEOVw4aMiRblSnL1GzKMhUu/Sxqp2hEzeCjsMGQY/XLJpX7j2f4TLbmSctUyYcjoKFzbxwYAAGAiwgsAANbIwHs39ObEszDBMIZVGZpd+GTs1CshNxV2TKglV1Jng2J3wNihXbnhbn9FOyOdEwAAIEERXgAAsBYmW9XQOaKqHasZspGhna9I0ogeTsSx+Su7tGOFZwIAAEgkhBcAAKyBgfeqNOL7o3O/bLa8OHpPhJrU+ANJytUuUgkAAAA/wgsAANbAwjwUi5d+l6QRVe04oeX0wZhsPayqEUmumsjDTfwm9FA7xQgRAACwGRBeAACw1go7Fifk7FRvjPSic/+zFUJ2VI1Irv74JtucHBfdMwAAwGZBeAEAwHrIqFSNS3owHn3sSOBqI4YR/yohkx8/1K4lK5kAAAAkJ8ILAADWxaTGH4RbKnUtDOi9hyVxDC0BAABIDs+ZXQAAAMlo4MQO3XhzQsORAobJcT2QpPFJqXB5KcTAiQbtend4tSUCAAAkDHpeAACwapNqzXs2d4XNZlNviaHhsF0jFrfdsbA6yUjVjigrkwzohM0mm21h4s/J1jzZbDbt9y3Jagu+7KgakdSp/TabbCdOBO0LAACQyAgvAABYtQxVDgfPXRF56oql2xrGcIQhIIXqMAwZRocCD5fbMhGyf+hKJ5JUEnZfAACARMSwEQAAEkhuy0SEHh2LCjtk9Eu23o2rCQAAYL3R8wIAgITxSnwTgBaWyBV7KwAAgIRBzwsAABJERmWHKuPaslAdHetcDAAAwAai5wUAAAAAALA0wgsAACzm6NGjunLlitllAAAAWAbhBQAAAAAAsDTCCwAAAAAAYGmEFwAAAAAAwNIILwAAAAAAgKURXgAAAAAAAEsjvAAAAAAAAJZGeAEAAAAAACyN8AIAAAAAAFga4QUAAAAAALA0wgsAAAAAAGBphBcAAAAAAMDSCC8AAAAAAIClEV4AAAAAAABLI7wAAAAAAACWRngBAAAAAAAsjfACAAAAAABYGuEFAAAAAACwNMILAAAAAABgaYQXAAAAAADA0ggvAAAAAACApRFeAAAAAAAAS3vO7AIAANjsrly5oqtXr/r/fvTokdxud9Btzc3NcjqdZpQHAABgOsILAABMtm/fPlVUVGh+ft5/28zMjB49eiRJcjqdBBcAAGBTY9gIAAAmS0tLU3l5ecT76+rqNrAaAAAA6yG8AADAAk6dOqWUlJQltzudTpWUlJhQEQAAgHUQXgAAYAGRel/Q6wIAAIDwAgAAywjtfUGvCwAAgAWEFwAAWERo7wt6XQAAACwgvAAAwEJ8vS/odQEAAPAMS6UCAGAhvt4X+fn5ZpcCAABgGYQXAICE5vF41NHRod7eXs3MzJhdzpppaWkxu4Q143Q6deDAAZWXlystLc3scgAAQAJi2AgAICHNz8/rzJkzOnr0qLKysvSrX/1KhmFwseDl8uXLkqSCggJduXLF5P9zAABAIiK8AAAkHI/Ho5ycHG3dulW/+tWv+EXf4pxOp86ePavR0VHdu3dPhYWF8nq9ZpcFAAASCMNGAAAJZWZmRmVlZfroo4+UmZlpdjlYBrvdrsuXL6u3t1cHDx7U4OCg2SUBAIAEQc8LAEBCOXr0qJqbmwkuElhJSYkyMzPV3t5udikAACBBEF4AABLGlStXlJaWpn379pldClapublZra2tmpqaMrsUAAD+f/buKKTRdc/3/C+wqnGG5iyn52I7MNNKd1I4tqD74oCVDJSBme71pmBUGqpL+sIKq0hKDofEORRrOcjRYmTcm7owac5gJX0gS3Yz2h4a40XlXZyZIRYbU24OzLYO4ohvmtGmL9zQA9l3ztDNOxdJNNFYpeq0zQAAIABJREFURo2+Sfx+IKzl+z7v//knVWtB/j7P/0ELoHgBAGgZ09PTWlhYcDoNNEBHR4dmZ2c1PT3tdCoAAKAFULwAALSE7e1t9fT00JizjXzzzTfa3NzUycmJ06kAAIAmR/ECANAStre3NTQ05HQaaKDOzk51dnaydQQAAFyJ4gUAoCX85je/0U9+8hOn00CDdXV16fj42Ok0AABAk6N4AQBoCcfHx2wZAQAAeKAoXgAAAAAAgKZG8QIAgFN5xX0uuVx1vsKm0wkDAAA8CBQvAAA45VZky5adCUnyKmbZsu1zr8p7CcPphAEAAB4EihcAAAAAAKCpUbwAAOBWTIVdLvnieeXjvtKWEp/i+epRZ/eKL1/lADNcc1vK+V0p1THCMuuYv+Yz5fl8ceVrzM9uGAAA0GwoXgAAcGOmwq6AkpK0NqEJLcu2LcW8OUU95eJCsYDgWXsuq2LrSS7qOeuZYSRkxbySQsqUxlgxr5KBsxhm2FWKb5fmSCrg88l3xfzuyFZF7IQM5RU/GC3G2YrILVPhQFKhTHHeTEhKzpeKGgAAAE2C4gUAADdmKGFbinmlXP+MtiJuSW5FlmPyKqm0KSkf10Q0p9BMRO7Tx0rFiuT8hRUaZdZeTvL2yaNijPlkSDORcgS3IjMhKZdTf+aK+c/Jxye097iiV0f+QLvyqs9T/NHT55Vye7Ju/+EAAAA0DMULAAAawFv+9i9J7sfql7R7kJesPeUqigNnQ/ol5bRXVSVIKlDaujHfZ5VWRqgU4+yey+WSK5CUJO0eWF+e/1zsCS2rqs+oO6Ite0sRd3F1hyeau+UnAQAA0HgULwAAuHPnixSSPH3yXhh3tm1kZs9T3TvDGzvbdlLx2op4LkSpLaSMnVF/1FPdb0PFooXL5VJ61C5tMQEAAGguFC8AAGi00laM58/cp0WK5Pk9HNaecgpp9JLTVo03MXmV09qHfDFGbk0f6m1EUTl/dVS9iXmVi7477aUhM6xAslg04eRXAADQrCheAABQU43VEl8aXVEQMN9FlfM+1zO3JHdEMyFJyUDFKR55xeeT8sbe6LJ6Qf7DmnKS+h+7SzGqm4BKxUag5ZiXzn+OOzKjkJIKlB7MH+xK2lV5h4m1x7YRAADQfCheAABwKq+476yfRDJQcZxo1b2coh7X2Wkhkrwhab7UjyKwG5O1ddag00iUTw8p96zwaG/GLjXYlGSGS70mzvpaeKI5eWPW6WoII2ErE6rue1HZv+Ky+fNxX0XssEwZSmRCUjIglyssKzKjUPn9uFxKK1Qae/G4VwAAAKd85XQCAAA0D7ciW7Yi17pX+obf90ZbduLyyJEt2bUDS0ZC9heePRtm6+KwL89fc95z8xm2rconE4mrcwEAALhPrLwAAAAAAABNjeIFAAAAAABoamwbAQDgxkyFXQElJSnnkWsvI/tej+xwen4AAID7QfECAIAbM5Q41y/iYc0PAABwP9g2AgAAAAAAmhrFCwAAAAAA0NQoXgAAAAAAgKZG8QIAAAAAADQ1ihcAAAAAAKCpUbwAAAAAAABNjeIFAAAAAABoahQvAAAtLR/3yeVylV5hmZJkhos/++LK1xznki9eulMeW3mtxjNhUzLDrqoYVa/TuUyFLxsTNr+cdx3vJ35ZDmGzOr+wWR2r4rP44udR875PZx9X/fNXfrbn5wcAALgOihcAgJbmjmzJinklhZSxEzKUV/xgVLZty96KyK3iF3HP2nNZtl28ngkpF/UUv2AbCdmZkCQpt/ah4gt2Xh/2JK+kUMZWwpCMhK1MSFIoU4xj28W5vTFZpbkkQwk7o5BCypTGnD6TMCQVCwATWi7FsBTzJhUofbn/8vt5JilWfB9WTF55FbNKc/QdyJOonus0VlV+V3wepfzO7luKeXOKesIyldfBNeaXkag5PwAAwHVRvAAAtJV8fEJ7j43KC5qI5hSaqfjyXP5SnZw/XVHgDYXkzUX17nQJxAft9T1Xf+MT1HwypJlIORu3IjMhqXLuS9+PW5FE7SKAEamzOHDV52HGNZ/0KrZcvl/K70bzm3oXzdWTFQAAwBdRvAAAtImkAq7iioZERe1C1p5y8qrPUz3a/bhfUk57VulC3xvNhKRkulhByH/YU9+zx41P09pTrpTr6ZaKQFKStHtQubHikvdTj2TgNLbnfPHgqs8jvaec+vW4shJhJGTbCV0vjbzivrT6Yt5rJg8AAHARxQsAQJsIKWNn1B/1XOjfUFWkKPP06fzXamM0JCXTMmXq3Vqfnt3VPgdv7GzLRsVrK1I54ZfezxXOb2u54KrPY1cHt2pQcaC4b0JaTujZbcIAAACUULwAALQRQ29iXuWi704bYJa/lJdXVJyy9pRTSKOVywmMUYWU1LxvXrvPn91NjwZPn7y5NX2oqzhQ4/00Yn594fN40ydvreJGPq54vUkk16TlLUVocgEAABqE4gUAoK24IzMKKalA+WQPd0QzIUnJgM4O+8grPp+UN/bm3FYIQ6MhKZfrr+hJcQ1muHiqRv5Au94+eWqNcUc0Eyo3wDyTj/sq8vvC+ymz9nSjbhJXfR6l+8nA2QkjkmS+29PjC9txLhGaoXABAAAay7Ztu/SPttXd3W13d3c7nQaAW3j69Kn99OlTp9OAg16+fGmnUqkL162Y15ZUeoXsjG3bdiZU/fOFcbJD5RunY0vXrJjtDWVs287YoXPjM6GznxXKVMf0xmzLitneqvjVMXQ66blYku2NWfW/n4p5KuNemd+ln1vF53FJflX365jfG7O+OH/Z8PCwnc1mr/rjB9AEvv32W9vtdjudBoAH5quvvrJ/+ctf2i7btm2XyyXbtu+qPuK4np4eSdLh4aHDmQC4qeHhYUnS5uamw5nAKcFgUE+fPtXLly+dTgUN5Pf7NTs7e/rfOIDm9erVK338+FGWdX5fGQDcnUePHimbzbJtBAAAAAAANDeKFwAAAAAAoKlRvAAAAAAAAE2N4gUAAAAAAGhqFC8AAAAAAEBTo3gBAAAAAACaGsULAAAAAADQ1CheAAAAAACApkbxAgAAAAAANDWKFwAAAAAAoKlRvAAAwGFm2CWXq/QKm5IZPvvZF1fe6QQBAAAc9pXTCQAA8NAZCVsZuRRQRnbCkGTIiu3Ks/Zc1lZEbqcTBAAAcBgrLwAAaDqm3kVzTicBAADQNCheAADQVPKK+9Lqi3mdTgQAAKBpULwAAKBpHCjum5CWE3rmdCoAAABNhJ4XAAA0i+SaZG0p4hZNOgEAACqw8gIAgGYRmlGE7pwAAAAXsPICAACHmWGXAklJCsjXZ2lZE/JEc5Jy8vjEiSMAAODBo3gBAIDDjIQtO1F5ZUt2xKlsAAAAmg/bRgAAAAAAQFOjeAEAAAAAAJoaxQsAAAAAANDUKF4AAAAAAICmRvECAAAAAAA0NYoXAAAAAACgqVG8AAAAAAAATY3iBQAAAAAAaGoULwAAAAAAQFOjeAEAAAAAAJoaxQsAAAAAANDUKF4AANpGPu6Ty+Wq+Qqbtcf44vkr4vgUz0tmuHZcVznwVbHN8Bfzqh0jrOJtU+FSvLP7xbyKoavzqYrhiyt/afzGvP/z81e913PzAwAA3ATFCwBA23BHtmRnQvLGLNm2LdvOKCTJG7OUMIpfyj1rz2XZdvF+JqRc1FNVgDDDrooxlmLenKIen+YVK16zYvLKq5hVjJHpO1BedcQ2ErJiXkkhZUpjrJhXyUC5QFGce0LLpdwtxbxJBXw++VwBJSVpbaJ0v5xX8VkjYSsTkhTKyE4Ycke2inN5Y7K2InKX4t/V+/ecm//0vZ6bHwAA4KYoXgAAHoZ8XBPRnEIzFV+my1+yk/PFVQz5uOaTXsWWy2PcisyEJPVrJlH7S7gRichdT+warL2c5O2TR+W5Q5qJlCOU5s7l1J+xFPNKuf4ZbUXcxXvLMXmVVNqsHfte3/+Fq6beRXN1JgYAAHA1ihcAgLaSP9itfcPaU05e9XmqL7sf90vKac8qj+nX48pv40ZCtp2Q8aVJ64l9KqlAaUvFfJ8lu7wywdpTruKey+WSK5CUJO0eFAN4KydwP1a/pN2DispIMnD6rOd88eAu33+VvOK+tPpi3rqfAAAAuArFCwBAW7H2cup/fNlGhfOFBEmePlV/zd7VwY2aNNQTW6rcNjKz56nqXSFv7GxLR8VrK+K5EKWmUOb0Gatm8eAu378kHSjum5CWE3p20xAAAAA1ULwAALSRvA52QxqttUyg9CU9eX6fhbWnnErPePrkrfUFPx9X/EvbM+qJXYPxJiavclr7kC/GyK3pQ72Fg/yBduXV82d1dpS4y/dfllyTlrcUockFAABoMIoXAID2Yb5TtH+09hYHd0QzIUnJQMUJH3nF55Pyxt4UnymNSQZ8VX0qzHd7elwOau3pQjeHemLXkP+wppxUXCnijmgmdNaE83RM3HcaMxd9d9bc811UOe9z1Vu7uNP3XxaaoXABAADuhm3bdukfbau7u9vu7u52Og0At/D06VP76dOnTqcBB718+dJOpVKX3rdiXlvSpS9vzKo5LpS5GCsTUu0xVsz2VsY99/AXY2dCX8zrsrmL9y075pXtDYXO5vfGbKvWM6FMdR4V4+7q/VeO98asL85/3vDwsJ3NZr8wAkCz+Pbbb2232+10GgAemK+++sr+5S9/abts27ZdLpds276b6kgT6OnpkSQdHh46nAmAmxoeHpYkbW5uOpwJnBIMBvX06VO9fPmy5n0zXGyAuVXjV//5uE+evZniMZ4tKa+4z6O157XfXyvz+/2anZ09/W8cQPN69eqVPn78KMs6v7cMAO7Oo0ePlM1m2TYCAGgTfTEtX/LF3h1ZVqzvnvMBAABAw3zldAIAADSCEYl84a5bkTZbsQAAAPCQULwAALSEzs5OFQoFp9NwgKmwK6CkJOU8cu1lWnj7CwAAwM1QvAAAtISf/OQn+s1vfuN0Gg4wlLBtJZxO444UCgV1dnY6nQYAAGhy9LwAALSEwcFB7ezsOJ0GGujk5ETHx8enjbUBAAAuQ/ECANAShoeHtb29rZOTE6dTQYNsb2+rt7eXlRcAAOBKFC8AAC2ho6NDr1+/ViwWczoVNMjbt281OzvrdBoAAKAFULwAALSM2dlZ/fVf/7X29/edTgW39P79e/X29mp4eNjpVAAAQAugeAEAaBkdHR1aWlpSMBhk+0gLOzw8VDwe1+LiotOpAACAFkHxAgDQUoaGhhQOh/XkyRNtb287nQ6u6YcffpBhGFpZWVFHR4fT6QAAgBbBUakAgJbz8uVLDQ0NKRgMnhYzent7nU4LX7C5uamf//zn6urq0qdPn2jSCQAAroXiBQCgJfX29urTp0+KxWIaGxuTJHV1dTmcVWP8wz/8g373d3+3bVYm7OzsaHBwUN99952++eYbp9MBAAAtiOIFAKClRaNRRaNR7e/v6/j42Ol0GuLnP/+5BgYG2uaL/uDgICstAADArVC8AAC0hd7e3rbZOrK8vMxJHAAAABVo2AkAAAAAAJoaxQsAAAAAANDUKF4AAAAAAICmRvECAAAAAAA0NYoXAAAAAACgqVG8AAAAAAAATY2jUgEAaJDDw0P99Kc/VaFQuHWskZGRBmQEAADQHiheAADQIIeHhxocHFQ2m3U6FQAAgLbCthEAAAAAANDUKF4AAAAAAICmRvECAAAAAAA0NXpeAABwQ8fHxxofHz/9uVAo6PDwUH6///Ta4OCgFhcXnUgPAACgbVC8AADghrq6utTZ2al0Ol11fXNz8/TfI5HIfacFAADQdtg2AgDALczOzl56b3BwUKOjo/eYDQAAQHuieAEAwC18qUDxpcIGAAAA6kfxAgCAW6pVpGDVBQAAQONQvAAA4JZqFSpYdQEAANA4FC8AAGiAymIFqy4AAAAai+IFAAANUFmwYNUFAABAY3FUKgAADTI7O6vDw0NWXQAAADQYKy8AAGiQzc1N/eM//qN2dnacTgUAAKCtULwAAOCWTk5OND4+rqOjI/3iF7/Q5OSkVldXnU4LAACgbVC8AADgFvb39+X3+zUyMqLFxUUNDg4qm81qY2NDU1NTOjk5cTpFAACAlkfxAgCAG0qn0woGg1paWtKLFy9Or3d0dGhlZUXd3d0yDEPHx8cOZgkAAND6aNgJAMANzM3N6fPnzzJNU52dnTXHRKNRDQ0NyTAMLS0taWho6J6zBAAAaA+svAAA4BoKhYL8fr8kaX19/dLCRdnQ0JBM09TU1JRisdh9pAgAANB2KF4AAFCnnZ0d+f1+zc7Oam5uru7nurq69OnTJx0dHWl8fJw+GAAAANdE8QIAgDq8f/9ek5OTWl9f1/Dw8I1iLC4uamRkRE+ePNH+/n6DMwQAAGhfFC8AAPiCk5MTTU5O6vPnz8pms+rp6blVvBcvXmhlZUXBYFDpdLpBWQIAALQ3ihcAAFzi8PBQhmFoYGBAS0tL6ujoaEjc3t5emaap5eVlTU9PNyQmAABAO6N4AQBADZubmxobG9PCwoJev37d8PidnZ1aX1/X119/Lb/fr0Kh0PA5AAAA2gVHpQIAcM7c3Jw+fvyobDZ75Wkit/X9999raGhIfr+f41QBAAAuwcoLAABKCoWCxsbGJOleChdlw8PDWl9f1/T0tN6/f38vcwIAALQSihcAAKh4DKphGJqYmLjWMaiN0tPTI9M09fnzZ01OTnKcKgAAQAWKFwCAB291dVWTk5NKpVIaHR11LI+Ojg4tLS1pYGBAfr9fh4eHjuUCAADQTOh5AQB4sE5OTjQ9Pa3j42Nls9mGnSZyW69fv9bQ0JDGxsa0uLio4eFhp1MCAABwFCsvAAAP0vHxsQzDUHd3t1ZWVpqmcFE2ODiobDart2/fOrKNBQAAoJlQvAAAPDjb29syDEMLCwuKRqNOp3Opzs5OZbNZSdLY2BjHqQIAgAeL4gUA4EGJxWKampqSaZotcyzp3NycJiYmZBiGdnZ2nE4HAADg3lG8AAA8CCcnJxofH9fR0ZE+ffqkrq4up1O6ltHRUaVSKU1OTmp1ddXpdAAAAO4VxQsAQNvb39/XkydPNDIyosXFRafTubHe3l5ls1ltbGxoamqK41QBAMCDQfECANDW0um0gsGgVlZW9OLFC6fTubWOjg6trKyou7tbhmHo+PjY6ZQAAADuHEelAgDa1vT0tPb392Wapjo7O51Op6Gi0aiGhoZkGIaWlpZapn8HAADATbDyAgDQdgqFgvx+v77++mutr6+3XeGibGhoSKZpampqSrFYzOl0AAAA7gzFCwBAW9ne3pbf79fs7Ky+//77qx8ww3K5XFWvsHn3eTZKV1eXPn36pKOjI42Pj9MHAwAAtCWKFwCAtvH+/XtNT09rfX1dw8PDV443wy65AruKWbZsu/SyYtoNuOTyxZW/h5wbZXFxUSMjI3ry5In29/edTgcAAKChKF4AAFreycmJgsGgPn/+LNM01dPTc+UzZtilQNKrmLWliLvihjuiLSsmby4qTystwZD04sULraysKBgMKp1OO50OAABAw1C8AAC0tMPDQ/n9fj19+lRLS0vq6Oio4ylT6aQk73M9c9e47X6m515JyXnF86UVGq4ar7CpfNxXcS0sUzrbilJevXFua0pVTSQfVzhuKu5rzLaV3t5emaap5eVlTU9P3zwQAABAE6F4AQBoWT/++KPGxsa0tLSkly9f1v+gmVaxdvFMtWoXklvPnnsl5bRn5XWgmKzSlhKvvKfbTDJ9B1JkS1bMKymkjJ2QobziB6PFLShbEbllKhxIKpQpPROSkvPVW1J2o/PScvG+FfMqGSgVQW6os7NT6+vr+vrrr+X3+1UoFG4RDQAAwHkclQoAaElzc3P61a9+pWw2e6enieweSIlEpOY9I1K8XlmIyMcntPd4q+LCgXbl1XNP8UdPn1dK7smSioUTd0Rb9ll8ay8neZ/L04Dcv//+ew0NDcnv9yuVSmlwcLABUQEAAO4fKy8AAC2lUChobGxMkmSa5q0KF7k968ox/Y9rr824KKmAy6UJLSthVFx2R7RlF/tqmGGXPNFc7cdLW0vSo+UVG40xPDys9fV1TU5O6v379w2KCgAAcL8oXgAAWsbOzo78fr8mJiY0Nzd380CePnklaffg0hNFrL2cJK/66l4CEVLGzqg/6pEvXh213DMjPWqXtpjUYCRk27ZG0xW9Mxqkp6dH2WxWnz9/1uTkJMepAgCAlkPxAgDQElZXVzU5Oan19XWNjo7eLpg7opmQpFxU72pVCfJxzSclhWaqTyK5kqE3Ma9y0XdnxQczrEAypIxtV6/IuCzCm5i8Sird4INOOjo6tLS0pIGBARmGocPDw8ZOAAAAcIcoXgAAmtrJyYkmJye1sbGhbDZb1zGo9TASlmJeKRnwKV7dtEI+T1S5UEb2+WqDtadLNn2cckdmFFJSgdKRIfmDXUm7OsiXQ1RHyMd9VaeL5D+sKXetFR/X8/r1ay0sLGhsbEybm5t3MwkAAECDUbwAADSt4+NjGYahgYEBrays1HkMar3cimzZsjP9inoqjj/1RNWfsS8WLvJx+QJJSbni+HJxIu4r9bFIKuAKy5ShRCYkJQNyucKyIjMKlZ9xuZRWqDS2WDRxR7ZKW0WKL080p1BmSxHF5XM1fguJJA0NDSmbzert27f62c9+1uDoAAAAjeeybdt2uVyybdvpXO5M+bd0LJEFWtfw8LAk8ZviB2Rzc1NTU1NaWlrS0NCQ0+k4Jx9X3IooUseWk5uYnp7W/v6+UqnUnZ7aAqD1vXr1Sh8/fpRlXd3sGAAa5dGjR8pms6y8AAA0n1gsprdv38o0zYdduJBkvltTQ85NvcTCwoImJiZkGIb29/fvbiIAAIBboHgBAGgahUJB4+PjOjo6UjabVVdXl9MpOchU2OVSenTrmk1Dr290dFSpVErj4+NaXV2928kAAABugOIFAKAp7O/vyzAMjYyMaHFx0el0moChRJ0nlDRCb2+vPn36pI2NDU1NTd3PpAAAAHWieAEAcFw6nVYwGFQqldKLFy+cTufB6ujo0MrKirq7u/XkyRMdHx87nRIAAIAk6SunEwAAPGxTU1M6PDyUaZo0jGwS0WhUQ0NDMgyDhqkAAKApsPICAOCI4+Nj+f1+dXd3a319ncJFkxkaGpJpmpqenlYsFnM6HQAA8MBRvAAA3Lvt7W0ZhqHZ2VlFo1Gn08Elurq6ZJqmjo6OND4+rpOTE6dTAgAADxTFCwDAvXr//r2mp6dlmqaGh4edTgdX6Ojo0OLiokZGRuT3+zlOFQAAOILiBQDgXpycnGh8fFyfP3+WaZoP/BjU1vPixQstLS0pGAwqnU47nQ4AAHhgKF4AAO7c4eGh/H6/RkZGtLS0pI6ODqdTwg0MDg7KNE0tLy9rbm7O6XQAAMADQvECAHCn0um0xsbGtLS0xDGobaCzs1Pr6+uSJL/fr0Kh4HBGAADgIaB4AQC4M3Nzc1peXlY2m9Xg4GBjg+fjCsdNxX0uuVzFV9isuG+GT69X3jPDrqrrVS9fXPniKIVdLvnieeXjvtJ9n+L58yn4qp73nR9wYczFGBdyCpvVuZ/LqWbeYbPOGI0zNzen2dlZ+f1+7ezsNDg6AABANYoXAICGKxQKMgxDku70GNTd6Ly0bMu2bVkxr5KBsIo1ClPhQFKhTPFeJiQl54tf4I1E8WeFMrLts2fljcnaisgtU2FXQElJWpvQhJZl25Zi3pyinnL8YlHCs/ZcVimGnQkpF/UUCwclZthVMeZijLKqnBKGZCTO5SRJhhJ2RiGFlLHP3lf5mfpiNNbw8LDW19c1OTmp9+/f38EMAAAARRQvAAANtbOzI7/fr0gkcrd9EdwRbdlbipS+lVt7OcnbJ48k5Q+0K6/6PMV7nj6vlNuTVVdgQwnbUswr5fpntBVxS3IrshyTV0mlTUn5uCaiOYVmKooC5WJBcr64uiIf13zSq9hyeYxbkZlQnW/O1Ltors6xdxnjaj09Pcpms/r8+bMmJyc5ThUAANwJihcAgIb54YcfNDk5qfX1dX3zzTf3M2lpe0R61JZdXmFQUdgwwy55bvgl3luufkiS+7H6Je0e5CVrT7mK4sjZkH5JOe1ZKo3p1+PKJQ9GQradkPHFWfOK+9Lqi3lvlHPjYtSvo6NDS0tLGhgYkGEYOjw8vJd5AQDAw0HxAgBwaycnJ5qcnNTHjx+VzWbV09Nzf5MbCdm2rdG0Sy7X2ZaMcg+I9GhpW0jDlYoUlTx9qp5pVwfXajZxoLhvQlpO6NmN82pEjJt5/fq1FhYWNDY2ps3NzXueHQAAtDOKFwCAWzk+PpZhGBoYGFAqlXLsGFTjTcW2DjOsQLLYGyLx5WUO9SttRXn+zH1apEimz3WvsPaUU0ijhkpjahQ48nHFzze9KEuuSctnW2FupBExbmFoaEjZbFZv377Vz372M2eSAAAAbYfiBQDgxjY3N+X3+7WwsKDXr1/f69z5uK/qdJH8h7XTrRz5g11Vrnqw9m62bSQXfXe2kuNdVDnvcz1zS3JHNBOSlAxU5JBXfD4pb+xNcVtIaUwyUH3CiPluT48vK6iEZmoXHcxw8cSQ/IF2y309LnNZjHvU2dmpbDar3/72txobG+M4VQAAcGtfOZ0AAKA1xWIxbWxs6NOnT3d2msiXuCNbGg275AqcXQtl7OIX98iMQtGAoh6XopJCoZCkpAKuXXm9OeVykhSQSxlZffOlnhg5eXyqOpnDG5LmXS4FpAundhgJW1afT56Aq3gySWn+rYrChJGwlZFLgVIe5TGJc+/FDLsUSBZz8vVZWtZEdU7LffLmovJ4is9XnYhSeh8ZBb4c445OHPmShYUFpdNpGYahVCql3t7ee84AAAC0C5dt27bL5ZJt207ncmfKe69pIAa0ruHhYUliH30TKBQKCgaD6unp0eLiotPp3JG84j6P1p5bpdNGcBv7+/saHx/uB3l0AAAgAElEQVTXd999pxcvXjidDoAbevXqlT5+/CjLqu/sJgBohEePHimbzbJtBABQv/39fRmGoYmJiTYuXKDRent79enTJ21sbGhqasrpdAAAQAuieAEAqMvq6qrGx8eVSqU0OjrqdDpoMR0dHVpZWVF3d7eePHmi4+Njp1MCAAAthJ4XAIArTU1N6fj4WJ8+fXLsNJH7U9FPIueRay8ju2FHliAajWpoaEiGYWhpaUlDQ0NOpwQAAFoAxYsrnJycaHt72+k0gAevfFoBPS/u1z/90z9pZmZGf/Znf/aAtokYStgXm2qicYaGhmSapsbHx/XHf/zHevLkyb3NXe6fAwAAWgvFiytMT0/rxx9/VFdXl9OpAA/a0dGRJOnt27cOZ/Kw/P3f/73+4A/+4N6PQUX76+rq0sLCgr755hv90R/9kX7nd37nzuc8PDxUJBJRNBq9ejAAAGgqFC+uUCgU9N133+nly5dOpwI8aOXflmazWYczeXjev39/etRl+fQm4LZ++OEHJRIJ7ezs3Nvfq7m5udNVXAAAoLVQvAAAfNHr1681ODiosbExLS4usuwet3JycqKpqSmdnJwom80+gB4qAACgEThtBABwpaGhIWWzWb19+1Y/+9nPnE4Hdcsr7nPJ5ap+hU1nsjk+PpZhGBoYGFAqlaJwAQAA6kbxAgBQl87OTmWzWf32t7/V2NgYy++bXl5x34S0bMu2q19OHJ6yubkpv9+vhYUFeqgAAIBrY9sIAOBaFhYWlE6nT/tg9Pb2Op0SajHfae35srbcTicixWIxbWxs6NOnT+rs7HQ6HQAA0IJYeQEAuLbR0VGlUimNj49rdXXV6XRwQV7xeWkm4mzlolAoaGxsTEdHR8pmsxQuAADAjVG8AADcSG9vrz59+qSNjQ1NTU3d06ymwi6XfPG88nFfqYeDT/F89aizey65XGGZl13Px+Wr6gVxrkdERXOIWjHNcPXYqjG+uPI1xsgMXxhzVd61VI8tfiZnLO2pT57S51Xr/dy1/f19GYahiYkJLS4u3tu8AACgPVG8AADcWEdHh1ZWVtTd3S2/36/j4+M7nM1U2BVQUpLWJjShZdm2pZg3p6jn7Iu+GXaV7tml+0kFSkUCd2RLVswrKaSMnZDhjmjLiskrKZSxlTDcimxZKg7JyC41h7gspidhKxM6G3sa3xuTtRWRW5JxboyMxIUxV+V9Xj7uk2ftuaxyH4tMSLmo56w4kT/Qbv+e3rnSGq0Yo2TgXgoY6XRawWBQqVRKo6Ojdz4fAABofxQvAAC3Fo1GNTs7K8MwtL29fUezGErYxcJCrn9GWxG3JLciyzF5lVTalJSPaz4Zqtgu4VZkJiTlonp30+/sDY9p6l00d/M58nFNRHMKzZwVPk4LIsn54ioUa0+5ZFK7sTcyLhtzR6amprS8vCzTNOmHAgAAGobiBQCgIYaHh2Wapqanp/X+/fs7ncvb5zn7wf1Y/ZJ2D/LFL+1KKlC5VSKQlMr3b6KemMnA6T3P+cJElbzivrT6Yt7rz1E11qvKj6D4MfRLymnPOrvW/9h95ZhGKRQK8vv96u7u1vr6Ov0tAABAQ1G8AAA0TFdXl0zT1OfPnzU+Pq6Tk5P7T8IbO9tOUfHauk3zyqtihjKn16zzhYlTB6WjSxN6duu8axQgPH3ynvv3C4WPyjENtL29rSdPnmh2dlbRaPQOZgAAAA8dxQsAQEN1dHRoaWlJIyMj8vv9Ojw8vNsJ8wfalVfPn7mLX85za/rQyG0RjYqZXJOWt1SzFnGdOUoFiGT63H4Sa085hTRqSHI/03OvlDtf4agc0yDv37/X9PS0stmshoeHGxcYAACgAsULAMCdePHihZaWljQ2NqZ0Ot3Q2Lnou7MGne+iynmf65lbkjuimVB1A0+p2ODyxn0qGxUzNFO7cHHdOdwRzYQkJQMV9/KKzyflPe1xUeqZkQxUnEJyfsztnJycKBgM6vPnzzJNU11dXQ2ICgAAUNtXTicAAGhfg4ODymazCgaD2tnZ0dzcXEPiekPSvMulgHTh1A4jYSsjlwKu5Nn4mKUto3RKRzQnKVd1X5JyAZeS1RfkUvGEkMtizqRdKramKI61+uZP43t8krUVkRU+G+Prs7SsiQtjTk8luSTv84yELavPJ09FzqGMXT3WSMjOSK6AR67oJWNu6PDwUOPj4wqHw3r58uXtAwIAAFyB4gUA4E51dnZqfX1dc3NzMgxDKysrt2/m2PdGW3bi0ttGwlat2+7IluzIzaasHfP8NeNCfPeF5y7P4bK8a6nrvRgJ2fUGrNOPP/6o6elppVIpDQ4ONjQ2AADAZSheAADuxdzcnH788Uf5/X6++Laoubk5/epXv1I2m+U0EQAAcK/oeQEAuDfffPON1tfXNTk5qR9++MHpdFCnQqGgsbExSZJpmhQuAADAvaN4AQC4Vz09Pcpms/r48aMmJyevcZyqqbDLo2hOykU9ct24AyeuY2dnR4ZhaGJiomE9SwAAAK6L4gUA4N51dHQolUppYGBAhmHo+Pi4jqcMJWxbdvmVaOB5n6hpdXVVk5OTSqVSGh0ddTodAADwgNHzAgDgmNevX2twcFB+v19LS0saHh52OiWoeAzq9PS0jo+Plc1m1dHR4XRKAADggWPlBQDAUUNDQ/r06ZPevn2rWCzmdDoP3vHxsQzDUHd3t1ZWVihcAACApkDxAgDguM7OTmWzWR0dHWlsbEyFQsHplB6k7e1tGYahhYUFRaNRp9MBAAA4RfECANA0FhcXNTExIcMwtL+/73Q6D0osFtPU1JRM09TQ0JDT6QAAAFSheAEAaCqjo6NKpVIKBoNaXV11Op3Wl4/L53LJVXqdP6Tl5ORE4+PjOjo60qdPn9TV1eVMngAAAF9A8QIA0HR6e3tlmqY2NjY0NTXldDqtKx+Xb0JaLp3QYsW8SgZ8iueLt/f39/XkyRONjIxocXHR2VwBAAC+gOIFAKApdXZ2amVlRd3d3fL7/XUep4oq1p5y/Y/lLv3ojswopJzWPuSVTqcVDAa1srKiFy9eOJomAADAVSheAACaWjQa1ezsrAxfv8YW/53ivtIWCF9cpQUEysd9p9siXK6wTEkyw1eMO1uBYIZdFdfPvSqev3QumQq7XPLF8xX364gfNqvvhc2zvCvnzscVjptn773G9o+aeXn65E2mdTbUoz6v9HfmX2h5eVmmaaq3t7eBf1oAAAB34yunEwAA4CrDw8My/ydD/8Wfv9Kjt0uyt/5bxX0eeXyStRWRO7IlSz55ov3K2AkZyit+MCrbTpzGMMMuBXZjsuwtuZVX3OdR1BPWYzshI2ErI5cCyshOGJKKxQDP2vNi/IoY832WbNstlWIEfLvy5nLKSfKuTWji+bJsWxXx3+hAMVl2RO58XD7Pmp5bW4q4JTMelydyfm5DVmz3wty70Xn1WbZsdym3QFijdkLGpXn1ydqKaMs++xwLv/53+te5f6Yn//L3tP4Xf3Hnf25O29/fr1qxc3h4KEna3Nw8vdbT06Oenp57zw0AAFwPxQsAQEvo+s/+U32b/o0e/Til8fGPSiXfaa0/qndmRKV6w6l8fEJ7j7cqL2g+6VXMKhcD3IrMhBQNXCOBfFzzyZBm7NNNGKUYSfVnLD2f9yjaPyM7UrwfWY5pzRNV2kwokYjUDGlEitetqqum3kVzkvf52SV3RFv2WQxrr3jf88W8qj+bnZ0d/el/9z/qv/oXf6Uf/+LPr/HGW9f+/r7GxsYuXF9eXj7991//+tf3mRIAALghto0AAFqDkdC/HenQv+r9j1pdXdV/0v9GOUm7B5WbOpIKuFya0HJ1QcPaU079euyujmeXVi7UxdpTrhT/dHtGIClJ2j0olh+8fZ6z8e7H6r+Q31XyivvS6ot5a98ubSlJj9qyy6syvphXce73799rMjimzj9OafffPIzChVQ8uWZwcPDG9wEAQPOgeAEAaCnuyJZs29avf/1v9J9L+n/+4/9WcTekjJ1Rf9QjX/x80WBX16oj1OKNySqd3FH52op4rn72SgeK+yak5YSeXTbESMi2bY2mK/ttXJ7X/xH+LzU5OanPnz/r3/75v9D8//qyAXm2ltnZ2RvdAwAAzYXiBQCgJQ3+7j/qDyT9v//Xv9fc3FzFHUNvYl7lou/Ovtx7+uRVTnvWuSD5uOLnGl9eytMnb25NH+otgOQPtCuvnj9zXz1WkpJr0nKxF8ZVjDcxeZVU2rw8r8PDQxmGoYGBAS0t/Sv974/+qP5VJm3kstUVrLoAAKC1ULwAALQEM1x5wkZe8Ymo/kMoo/87ty5J+vb9nqT/T1L5SNCkAuUH3BHNhKRk4OwEEEky3+3pcb3f6N0RzYRyinoqVjyo2DyzPE1lwcR8F1XO+1xVtQtrT7nL4odmLi1cVM4hSfkPa8rJqz5P7bw2Nzdl/Df96vzvF/T69WtJbkUiD7F0UVRrhQWrLgAAaDG2bdulf7St7u5uu7u7+0bPvnz50k6lUg3OCMB1PX361H769KnTacBhmZBsqfQKZU6vWzHv2XX9qZ0pDi79HLIztZ6X7HKI83Gr4nljtnVZDpLtjVm2bVt2zCvbGwrZ3kues63Y2b2K/CvjeWPWpXNflvtlef3z//n/vPD5FHN9mAYHB08/m9HRUafTAVrSt99+a7vdbqfTAPDAfPXVV/Yvf/lL22Xbtu1yuWTbFWeptZnyEWjlI9KuIxgM6unTp3r58uHtEwaayfDwsKTqIw6B8w4PDzU+Pq5wOHzP/98uHk+69tzSVj37Pu5AoVBQMBhUb2+vFhYWHMmhmaXT6dOTR37961+zZQS4gVevXunjx4+yrPN78ADg7jx69EjZbJZtIwCA9tHT06NsNquPHz9qcnJSJycnTqd0L/b392UYhiYmJihcXKLc44JeFwAAtCaKFwCAttLR0aFUKqWBgQEZhqHj42OnU7pTq6urCgaDSqVSGh0ddTqdpvbq1StNTEw4nQYAALiBr5xOAACAu/D69WsNDg7K7/draWnpdOtR45kKuwJKSlLOI9deRnbifppjTk1N6fj4WKZpqrOz817mbFXpdFp/9Vd/dfozhR4AAFoLxQsAQNsaGhrSp0+fNDY2pp2dHUWj0TuYxVDCtpW4g8iXOT4+1vj4uEZGRrS4uHiPM7emubk5ff78WaZZPI8lGAxqZ2fn3BG7AACgmbFtBADQ1jo7O5XNZnV0dKSxsTEVCgWnU7qV7e1tGYah2dnZOyrGtI9CoXDapHN9fV2dnZ3q7OzU+nrxeN12+PsAAMBDQfECAPAgLC4uamJiQoZhaH9/3+l0buT9+/eanp6WaZp3uA2mPVQ2Ma21wmJubq7l/z4AAPCQULwAADwYo6OjSqVSCgaDSqfTTqdTt5OTE42Pj59ufejq6nI6paaWTqframLaqn8fAAB4iCheAAAelN7eXpmmqeXlZU1NTTmdzpUODw/l9/s1MjKipaUldXR0OJ1SU5ubm9Py8rJM01Rvb++V4yv/PtADAwCA5kXxAgDw4JT7HnR3d8vv9zdt34N0Oq2xsTEtLS3pxYsXTqfT1Gr1t6gXfTAAAGh+FC8AAA9WNBrV7Oysnjx5ou3tbafTqVJeQZDNZjU4OOh0Ok3tqv4W9aIPBgAAzYviBQDgQRseHlY2m9X09LTev3/vdDq3WkHwENXb36Je9MEAAKA5UbwAADx4XV1dMk1Tnz9/VjAY1MnJiSN57OzsyO/333oFwUNx3f4W9aIPBgAAzYfiBQAAkjo6OrS0tKSnT5/K7/fr8PDwXudfXV3V5OSk1tfXG7KCoJ3dx+oU+mAAANBcKF4AAFDh5cuXWlpa0tjYmH788cc7n+/k5ESTk5Pa2NhQNptVT0/Pnc/ZyhrV36Je9MEAAKA5ULwAAOCcwcFBZbNZxePxO/2CfHx8LMMwNDAwoJWVFY5BvUKj+1vUiz4YAAA4j+IFAAA1dHZ2yjRNSXezbWBzc1OGYWhhYUGvX79uaOx2dFf9LepFHwwAAJxF8QIAgC8obxvw+/3a2dlpSMxYLKa3b9/KNE0NDQ01JGa7aqbTV+iDAQCAcyheAABwhdHRUa2vr2tyclKrq6s3jlMoFDQ+Pq6joyNls1l1dXU1MMv2c9/9LepFHwwAAO4fxQsAAOrQ09OjbDarjY0NTU5OXvs41fIX8ZGRES0uLt5Rlu3Dqf4W9aIPBgAA94viBQAAdero6NDKyooGBgZkGIaOj4/req7yi/iLFy/uOMvW53R/i3rRBwMAgPtD8QIAgGt6/fq1FhYWZBiGNjc3vzh2enq6Jb6IN4Nm6m9RL/pgAABwPyheAABwA0NDQzJNU2/fvlUsFrtwv1AoyO/36+uvv26ZL+JOatb+FvWiDwYAAHeL4gUAADfU1dWlbDaro6MjjY+Pn/7WfXt7W36/X7Ozs/r+++8dzrL5NXt/i3rRBwMAgLvzldMJAADQ6hYXF7W6uirDMPQnf/In+vjxo9bX19XT0+N0ak1vbm5Onz9/lmmabbE6pdwHIxgMamdnpyVXkQAA0IxYeQEAQAO8ePFC0WhUv/jFL2SaJoWLK7Rif4t60QcDAIDGo3gBAECD/OQnP9Hv//7vq6Ojw+lUmlqr97eoF30wAABoHIoXAADg3rRLf4t60QcDAIDGoOcFAAC4F+3W36Je9MEAAOD2WHkBAADuVDv3t6gXfTAAALgdihcAAODOPJT+FvWiDwYAADdD8QIAANyJ6v4W/Yr7XHK5ar988bzT6d4b+mAAAHB9FC8AAEDDzc3NaXl5WaZpqre3V5JbkS1bthWTV1IoY8u2i69MSMpFPXKFTafTvjflPhjLy8usSAEAoA4ULwAAQMNc2d/C/Vj9554xEpZiXknJeT2gBRj0wQAA4BooXgAAgIa4eX8Ltx73S1JOe1bxSj7uq9hWElZ5TcaF6/m4fBXbT8Jmvnp7Smk1x2XxzHD12KpxvrjyNcbIDF8Yo8vy+8K7Lo99+/at0um0fv+nfvpgAABwCY5KBQAAt5ZOp/Xzn/9cqVSqtE3kOvI62JUkr/o8xWLBfJ8l23ZLyivu8yjg65O1FZE7siVLPnmi/crYCRmSDEvyeaLqz9hKnF1QtD8jO2F8MZ6RsJWRSwEVx0pGMf7a8+J8kty1xsR2q8ZIV+R9/h3HS3PYW8V7ZliuQFL/9fCo1t//TKOjozf8kwAAoD2x8gIAANzKxf4W15OPTyiakxSaUURxzSdDmomUv+67FZkJSbmo3t2kJUa+wfEkSabeRXM3nycf10Q0p9BMRVHDSMiKeaXf/DP96/+FPhgAAJxH8QIAANzIlf0tviAZONuK4YnmpFBpVYO1p5ySClSeRhJISpJ2D27QEKPeeMlAdT6XyivuS6sv5r3ZPKdji6tMKrkf90v6D3ryP9AHAwCA8yheAACAa7t5f4uiytNGbNsubcco8cZk2efu27a2Iuc3X9SpnnihzOl163xh4tSB4r4JaTmhZzed59RZf49Tnj6VZ56bm9PExIQMw6APBgAAongBAACuKZ1OKxgMKpVKNb43g6dP3tyaPjTq1JFGxkuuSctbqlmLuM48pSJFMn1uP4m1p5xCGi3VcUZHR5VKpRQMBpVOp2+ZPAAArY3iBQAAqNtt+1sof6BdfWELiDuimVBOUU/1SR35uE/hm/SoaGS80EztwsV153FHNBOSlAxU3MsrPp+UN/ZGFWtQ1NvbK9M0tbxMHwwAwMPGaSMAAOBKhUJBwWBQAwMDWl9fv0GE4ukbp+0koh65ol7FrIsrGU5PAHElT695Y5a2jNIpHdGcpFzVfUnKBVxKVl+QSxnZX4hnhl0qtqYojrX65k/je3yStRWRVTHG12dpWRMXxrivyPs8I2HL6vPJU5FzKGPXHNvZ2an19XXNzc1pbGxMqVTqWv1FAABoBy7btm2XyyXbtp3O5c709PRIkg4PD6/9bDAY1NOnT/Xy5ctGpwXgGoaHhyVJm5ubDmfysJycnCgWi+nk5MTpVFrC0dGRDg8Plc1mnU6lofb39xUMBvXdd99xhKfDbnckLXA7r1690sePH2VZ5xu2AMDdefTokbLZLNtGAACX297eViKRcDqNltHd3a3Z2Vmn02ioO+1vgWujDwYA4KFi2wgA4It6enrYa/9Azc3N6fPnzzJNk20KTaTcByMYDGpnZ4f/PgEADwIrLwAAQJVCoaCxsTFJ0vr6OoWLJlTugyFJY2NjKhQKDmcEAMDdongBAABO7e/vyzAMTUxM8Bv9FjA3N6eJiQkZhqH9/X2n0wEA4M5QvAAAAJLob9Gq6IMBAHgI6HkBAADob9Hi6IMBAGh3rLwAAOABo79F+6APBgCgnVG8AADggaK/RXuiDwYAoB1RvAAA4AGiv0V7ow8GAKDd0PMCAIAHhv4WDwN9MAAA7YSVFwCACwqFgiYnJ/Wnf/qn2tzc1E9/+lP98MMPTqeFW6K/xcNDHwwAQLugeAEAqFIoFOT3+zUwMKC//Mu/1PDwsFKplD5+/MhvbltYS/a3MMNyuVwXXmGzeDsf91Vc9ymeLz+YV9xX8UzpgerxtWOen7PmXL648jIVrhjnK01ePUdYppoDfTAAAK2O4gUAoMrU1JQikYhev36t3/u935MkDQ4OnhYwNjc3Hc4Q19Wy/S2MhKyYV1JIGduWbduyYl4lA8WigDuyVXF/SxF3+UG3IluWircyshNG8WpkS3YmJG/Mkm3bsu2MQpK8MUvFIabCgaRCmeJcmZCUnI8rX3o2UxwsaysitwwlKp7firhlhl2a0HIptqWYN6mAr/h8M6APBgCgldHzogH29/d1fHzsdBpAWysvdeaL891Lp9NaXFyseW9kZESJROKeM8JtbG5utlV/C2svJ3mfy3MXwfMH2pVXz0vBPX1eKbknS5K7/PPuZc/GNZ8MacYuV1DcisyEFA1E9c6MlIojzjvfB2N4ePjWMQcHB9vi7xYAoLlRvLil4+NjPXnyRIODg06nArS1o6MjSdLbt28dzqT9vXjx4tIvIqOjo9rY2ODPoUUUCgX93d/9nf72b/+2xb9cJhVwJSUVVznYCfel94urMBK6rFaQP7is+iDJHdGWHZEkmWGXAklJ6q8ekzsrZuTj80pK8kqStadcVR5ndg/yknE+Z+d0dnYqlUrpD//wD7WxsXGrvxuFQkE9PT2nfTUAALgrFC9u6eTkRJ2dncpms06nArS18m8H+W/NWT09PfwZtJjNzU35/X6lUqkWLrSfFSTMsEsul1cxq3KbSPm+qbAroICvT9bWs5qRrL2c+kcvLySUixahjC2rzydP9Oye+3G/qgspMYWUO1uMcbqlpLnt7OwoGAzqb/7mb2698mJzc5NiJgDgXtDzAgCANjY8PKz19XVNTk5qdXXV6XRuzXgTk1c5rX2o1UnC0GhIp6sjLsrrYDek0cuWZZhhBZLF/ho1t3kYiVI/i+JrK/L47J6nT97cmmqm1URWV1c1OTmp9fX1hmwZAQDgvlC8AACgzZVXzGxsbGhqasrpdG4l/2FNOUn9j2utbzCVTkry9tXuiWG+U7R/9IotJbs6KBUgrL1c/Ym5I5oJ5RT1VJ8wko/7zk4ycdjU1JQ2NjaUzWbV09PjdDoAAFwLxQsAAB6Ajo4OraysqLu7W36//7QJblMzw/JEcypu1SgeP+qJ5k5PB8nHfefuB5RUSJmtZ/rg86h4KyBX2Pz/2buf2LbO/P73n/Nr0HpWo7ZAqm7GLkB6XFZAFODiwjkEGispMCYNJ9RiHHulEDM9TO7mUEAMTwAVVDACkkAzEAm0SHg6uIo2tUcb0zcw2SxiJdOS9nTRyICgCiKBcQoMoMyio2xaLwqcuzj8c/hPoixKpKj3CxAS8TznOV95Io351fN8Hu8I06jjfV4/yjQqR1IpGVQ4U1HAnpOlkpJB73pOVnVu/zGsVZWMwi33R7Ku8lajVsPwTh8ZdFhn7fjjs2fP6vbt2zpz5sxgCwIA4BmQeQEAwCmSTCY1OTl5MnIwIlm5bvfTbQJ2UdV8zfZbi678lwqJaP1I01aVTFjBzbKkiLKuK/8Tu56u4wv3bC7Z1R4lH7tavsXS0hLbRAAAJxorLwAAOGVGLQejJ6G0Vjo0LiQpYK8oHTrmeo4B+RYAgFHCygsAAE6hWg5GPB7Xr3/9ay0tLQ26pCMVsbss0ZAkBWR3aWycVLOzs9rZ2dHa2hrbRIBT7smTJ8rlcrp37552dna0tbU16JLgc+nSJY2Njen111/X9evX+Zm9B1ZeAABwSp3IHAzsiXwLAH4ffPCBIpGIvv76a6VSKd29e7fp1CQ+Bv+RSqU0MzOjL7/8Ui+99JIePXo06P9shhYrLwAAOOVOVA4GuiLfAkDN1taW4vG4Ll26pK+++opG5hCr/byOxWJN/7ulUin+d2vBygsAAHA6czBGCPkWAGp2dnZ048YNLS0t6f333+cN8Aly4cIFPXz4UH/0R3+keDw+6HKGDs0LAAAgqZGDce/ePc3Ozg66HPRodnZW9+7d09rams6dOzfocgAM2OzsrG7duqWLFy8OuhQ8o/n5eUnilwktaF4AAIA6cjBODvItALSqvdm9fv36gCvBYS0tLenDDz/Uzs7OoEsZGjQvAABAm2QyqVQqpampKa2vrw+6HLRYX1/X1NSUUqmUksnkoMsBMCRmZ2dH/vSo02J8fFyJRELvvffeoEsZGjQvAABAR+RgDCfyLQB08sUXX+jChQsaHx8fdCnok+vXr/P/vz40LwAAQFfkYAwX8i0AdPPFF1/o5ZdfHnQZ6KOxsTGNj49ra2tr0KUMBZoXAABgT+RgDB75FgD2880337DqYgSNj4+Te1FF8wIAAPTkWHIwKhklMgVlwoYMw/tIFHzXC4n6663XKplw07W2cXvcW0j4xicKzXOFM6p0GNM0X3VMdTYlOtQQzjRGHAT5FgB68fTpUxqbGGk0LwAAQM+OI2SWK1sAACAASURBVAdjI7kgrbhyXVfltCknmpDXZygoEXVk5b1reUtyFhpNg4BdlJu3ZKbLcl1XrpuXJclMl5WN7H1vJOu9JisvNxtRwC6qnDYlM61y0VagwxhFsm1jpIoy4agcWcq31FC0Awf+syDfAgAAD80LAABwIEeagxGwVXSLqr3PL2+WJDOkoCRVtrUhU6Ggdy0YMqXSpsq9zHuYe7sqaDFZ6nzJiilyqLnJtwAAwI/mBQAAOLAjz8GobsnIxVy5tVUNvsZGIWEo2KFxUNne6DxfD/dKkpxofZtH1zHek5QJ5xRKm60P0pVrpuREm7e7HAD5FgAAtKN5AQAAntmR5WBEsnJdV7GcIcOobRtp5E7kYt6WklblzZImznfenrHfvZK8LSFuY8tKZ9vKhGeklayudLgasItyy2ltRA0ZRlTOvl9sA/kWAAB0RvMCAAAcylHmYERupmXKUa4auBl1vCyJbMc9GRVtb1iKdbq2770H4KxKK42tLZ0UFpMqyVK+mnnRC/ItAADojuYFAAA4tH7lYFQy4eYTRO6vqlTNqvC2hGxou5qyWd5s2dZRWFRyonPWxL73HoQ1t2fjopIJK+qYSpezPedekG8BAMDeaF4AAIC+6EcORsAuVreKNHInrLy3yiFgz8lSSclgdfuHLEmOokZYiURYRtRpyqyobdkoJYOa0bWu92Yq3paSqCPv/upRqcFkSSolFfQdlVobE85UOoypKBP211xQwldDp6NSybcAAKA3zw26AAAAMFqSyaQmJyc1NTWl5eVlTU5OHuj+SNaVm+14RVnXlf9SNut9VkgY2uhyHGklE1Zw87yKXe71Pml9ZkSu3TxPoG1MsW2MXXTVeKm9Xr/19XXF43EtLS2xTQQAgH2w8gIAAPTdUeZgdBRKa6XLXo6AvaJ06OhLOAjyLQAAOBhWXgAAgCNRy8GIx+P69a9/raWlpSN7VsS297gakL1XSMUxm52d1c7OjtbW1tgmAgBAj1h5AQAAjkw/cjBGBfkWAAA8O1ZeAACAI3fYHIyTjnwLAAAOh5UXAADgWBx7DsaQIN8CAIDDY+UFAAA4NseZgzEMyLcAAKA/WHkBAACO1WnIwSDfAgCA/mLlBQAAGIhRzcEg3wIAgP5j5QUAABiYUcvBIN8CAICjwcoLAAAwUKOSg0G+BYCjsr6+Lkkjs0INeBasvAAAAAN3knMwyLcAcNTW19f14osvanp6ut7IAE4bmhcAAGBoJJNJpVIpTU1NnYi/oK+vr2tqakqpVErJZHLQ5QAYcblcjiYGTi2aFwAAYKiclBwM8i0ADApNDJxGZF4AAIChM+w5GORbAMcnl8ud+jfo3b7+XC6nXC6nWCzWh6dUlAkHlSz1ONzKy81G+vBcoDesvAAAAENpGHMwyLcAjt/s7Ky+/fbbQZdxCgRkF125eUuSqXTZleu2fPiv0bjAMWPlBQAAGGrJZFKTk5OamprS8vLywNL219fXFY/HtbS0xDYR4JjZtq1z584NuoyB+eSTT3Tv3r2212OxmFKplCYnJxWPxwdQGXB8WHkBAACG3qBzMMi3ADBMYrGYvvrqK929e3fAx6cWlDAMhTMVVTJhGYYhwwgrU2ke1bjmfYT9AwqJpmu1j0RhrzkSKnSZu9Mc3e4tJHzjE4XmceGMKh3GNNVbHbNfjegPmhcAAOBEqOVg3Lt3T7Ozs8f23NnZWd27d09ra2un+je/AAZveJoWkte4iMqRpNUZzWhFrltW2iwpGWxuLgRXr6ns23pSSga9RoAkRbIqp01JlvLVMeW0KSfa3GTw5nerz3AUrTYOAnZRbt6SmS5Xr+dlSTLTZWUje98bybrKW6rndwTsoleLmVa5aCvQYUy9Xt+Y/WpEf9C8AAAAJ8Zx5mCQbwFgWExOTg5R06ImoqxbVtqUShNzKtoBSQHZK2mZcpQrSKpkNJMsyZprvMmvv/l3FtpWaNSUN0uSGVJQ3hwLjqU5uzZDQPacJZWSWtxvacNh7u2qoMXWVNMjeQ5a0bwAAAAnTjKZVCqV0tTU1JGcQrC+vq6pqSmlUiklk8m+zw8ABzE5OTlETYt2ZijY+CRwXhOSNrYrUnlTJZnyX/aGTEgqabPsf9VRtLrlYiFUlltb1VDeVMl3zTAMGVFHqj1DUmV7o3NhPdzrPTpavx7c87iVijLhnEJp89meg0OheQEAAE6ko8rBIN8CAPqptUkhKRiS2TausW1kbjPYnJ1hphvbTnwfxepKh/JmSRPnA20z9nKv9+h8/fVya2OibluZ8Iy0ktWVZ30ODoXmBQAAOLH6nYNBvgUAHFJlWxsyde1KoN6kcHIteyfKmyrJUqzLaauRm2mZKmn1fsWbo7Sq+10XMFS0vdFlrn3vPQBnVVopqmMvop/PQVc0LwAAwInWjxwM8i0AwK/Daom9RicXG+Gai0mVzGu6EpAUsDVnSXKivtNDKsosODLTN9Wld6HK/VWVJG81RcDWnNUcAip5QaCJgqTCopITsc5z7XfvQVhznRsX/X4Ounpu0AUAAAD0QzKZ1OTkpKamprS8vNzz/vD19XXF43EtLS2xTQTAKVZRJhxULfLBiRpy6idqNF9LBg0lrbzcrBdmYVrSgmEoKrWdwhHJuiqHwgpGDe9kEklW3lWx1m0oJKo5EyVFjdqIxmkhtTnyMtqur2yHZSRLkhz5LtWKVFhlFbvcW6yeROJFU0RlKK9yaKFeSzAslYu2yr4x4VBZK5ppG1M/laTLc9AfNC8AAMDIqOVg3LhxQ7Zt6/r163uOv3PnjjKZjO7evcs2EQCnXEB20ZV9oGvVfRKhmyq62e4z20W5nSeWIlm5e9zbGOaqdVghUfIaBB2WRFQyYQU3y5ICHe/tPGekrc5A25juX0u356A/2DYCAABGSq85GORbAMAJF0prpctejoC9onTomOvBkaJ5AQAARs5eORjkWwDAaIjYje0p7QKybfZsjBK2jQAAgJHVmoMhiXwLAOiLghJG1MuxKAVlbOblZmkW4OjQvAAAACOtloPxxhtv6P/8n/9DvgUA9EVEWdcVEQ84LjQvAADAyDt37px++MMf6uzZszQuAAA4gWheAACAkff06VP9/Oc/1/j4uH74wx8OuhwAAHBABHYCAICR9/HHH2tnZ0fr6+vK5XKDLgcAABwQzQsAADDSnj59qg8//LD++XvvvTfAagAAwLOgeQEAAEZabdVFDasvAAA4eWheAACAkdW66qKG1RcAAJwsNC8AAMDIal11UcPqCwAAThaaFwAAYCR1W3VRw+oLAOiikFCiUFEmbMgwDBnhjCrVS5VM2HvNMGQYCRWq4/ceF1amUpva8L3e8uG7v+uzVFDCMBTOVHzXe5g/UWi+lig06vY/u5JRIlNofO2GoURh769JqjSNN2o3oK9oXgAAgJHUbdVFDasvAKA7Jzojrbhy3bLSSipYfXMfsIsqp01JlvJuVhFVlNmOyXVduUVbAXkNhODqNZXd6v1mScmg13yIZF3lLUlW3rvHdb35zLTK1ftVnWNGK9UxZaVNR9FwWGEjKkeSVmeq1/3zV7SttPfcclqmTKXL3jPyoW0F/c/ORqRItuOzN5IL1a/dq82JerU3f+1F2bUbFJBdLMu7VJ0bfUfzAgAAjKRkMln/i7HrukqlUkqlUk2vxWKxQZcJAEPJytfenAdkr6RllpJa7LCgoJKZ0eb5iP8FLTim0iu1ZkBA9px1sIdXMlpwLM3VuwPVOUolTeS9JkFpYk5FO9CoT45yhYDsbKMJ4RexO71e0GKy1PxSwFbR15gob5YkM6Tgwb4CHAGaFwAAAACAhkhW2Yhvm0QwqZKkjW3/pg5HUcNbHdG00KC8qZImdD7QPJ/rZtXzeoTypkrV+etbMaKOJGljuyxJMkO+dkLgvCba6ttPRZlwTqG02flydUtJLtZYUdLgr622nQVHjeYFAAAAAKBNwC5WV6rl1b52wlLezWsiGVQ409o02NCB+gidmNXtHy0fRbsfayC2lQnPSCtZXek2JJL1VujlOjUoLOXrfy6Ooi1ZHTgaNC8AAAAAAN1VtrUhaeJ868aLiG6mTZWSi40398GQTJW0WW6dI6NMr0sUgiGZpVXd77UjUNnWhkxdu9Jpw0gHzqq04s+s6C5ys7YlpeNVxSxJpU21frnoP5oXAAAAAIC6QqJxwoZUUWYmqZKVV6ccyoA9560+qN0QsDVnSU7UfxqHVFjc1Ple940EbM1ZjZDPeiWZcL0uf8OksJhUybympt5FeVMtaRYN1lzXxoX/GZJUub+qkkyFOi74KCjniEyMY/LcoAsAAAAAAAyPSNaVEoaMaPUF3wkalUxYwWRJUklRQ8q7WWXzlpxoVIZTPYEk6yovQ9GgoWR9CldZeY0RL74iKkN5lUML9fmCYdVP/ajPYTj1usx0WcWIlFmQTEtaMAxFvQtNp4WoklG4mpGRDBpKVuv3PzscKmtFM+3PtouK+b/2au12oPVrr9VlKV+8ovvhoLxL3tfFiSP9R/MCAAAAANAkknXlZttfD9hFuXbbYLktg7vd3/56pH2+PeeoLucI3VSx0wO8IlXsMGn7fB2+lj1q7/i11+4puupyCX3CthEAAAAAADDUaF4AAAAAAIChxrYRAAAAAMAJUFDCiMqRpFJQxibZEqcJzQsAAAAAwAkQUdb1gj9x+rBtBAAAAAAADDWaFwAAAAAAYKjRvAAAAAAAAEON5gUAAAAAABhqNC8AAAAAAMBQo3kBAAAAAACGGs0LAAAAAAAw1GheAAAAAACAoUbzAgAAAAAADDWaFwAAAAAAYKjRvAAAAAAAAEON5gUAAAAAABhqNC8AAAAAAMBQo3kBAAAAAACGGs0LAAAAAAAw1GheAAAAAACAoUbzAgAAAAAADDWaFwAAAAAAYKjRvAAAAACAE258fFw7OzuDLgN99vTpU505c2bQZQwFmhcAAAAAcMKdPXtWX3/99aDLQJ9tbW3pwoULgy5jKNC8AAAAAIATLhaLKZfLDboM9NGjR4904cIFjY2NDbqUoUDzAgAAAABOuPHxcV26dEl37twZdCnok0wmI9u2B13G0KB5AQAAAAAjYGlpSR9++CHZFyOg1oS6fv36gCsZHjQvAAAAAGAEjI+P69atW5qdnR10KTiEnZ0dffjhh1paWhp0KUOF5gUAAAAAjIjr169rfHxckUiEFRgn0D//8z9rampK77//vsbHxwddzlB5btAFAAAAAAD6Z2lpqf4m2LZtXb9+ndDHIffkyRO999572tnZ0draGo2LDmheAAAAAMCIuXz5si5evKh3331X7777riYnJzU+Pq7vf//7gy7t0J48eaLx8XGdOXNm0KUc2pdffqnd3V3t7u4qlUrpzTffHHRJQ4vmBQAAAACMoLGxMX300Uf66KOP9MUXX2hnZ0dbW1uDLuvQHj9+rN3dXU1OTg66lENLpVIaGxsbia/lqNG8AAAAAIARd+nSpUGX0Ddff/21Xn75ZVYpnDIEdgIAAAAAgKFG8wIAAAAAAAw1mhcAAAAAAGCo0bwAAAAAAABDjeYFAAAAAAAYajQvAAAAAADAUKN5AQAAAAAAhhrNCwAAAAAAMNRoXgAAAAAAgKFG8wIAAAAAAAw1mhcAAAAAAGCo0bwAAAAAAABD7blBFwAAAAAAQDcffPCBPvvss/rnW1tbevTokVZWVuqvLS0taXJychDl4ZjQvAAAAAAADK3Lly/r3XffbXptZ2dHW1tbkqTJyUkaF6cA20YAAAAAAENrcnJSsVis6/VUKnWM1WBQaF4AAAAAAIZatwbFfo0NjA6aFwAAAACAodatScGqi9OD5gUAAAAAYOi1NipYdXG60LwAAAAAAAy91mYFqy5OF5oXAAAAAIATodawYNXF6cNRqQAAAACAE6HWtJiZmRl0KThmrLwAAAAAAJwIu7u7+u///m+tr68PuhQcM5oXAAAAAICht7W1pUgkorfffluSND09rd3d3QFXheNC8wIAAAAAMNRyuZzi8biWl5cVi8U0Pz+vmZkZRSIRbW1tDbo8HAMyLwAAAAAAQ2t+fl6PHz9WoVDQ2NhY/fVYLKYLFy4oHo/r1q1bBHiOOFZeAAAAAACGzu7urqanpyVJd+/ebWpc1Fy4cEGFQkErKyuan58/7hJxjGheAAAAAACGSi3fYmZmZt+mxNjYmO7evSuJHIxRRvMCAAAAADA0WvMtekUOxmgj8wIAAAAAMBS65Vv0ihyM0cXKCwAAAADAQPWSb9ErcjBGE80LAAAAAMDAHCTfolfkYIwemhcAAAAAgIF41nyLXpGDMTrIvAAAAAAAHLvD5lv0ihyM0cDKCwAAAADAselnvkWvyME4+WheAAAAAACOxVHkW/SKHIyTjeYFAAAAAODIHXW+Ra/IwTiZyLwAAAAAMLRu376t8fHxQZeBQzqufItekYNx8tC8AAAAQE92dnb08ccf1z9/8uSJnjx50rT0e3x8XG+99dYgysOIunjx4qBLwCHs7u4qHo/rhRdeqG/ZGBa1HIx4PK719XWyMIYczQsAAAD0ZHx8XPfu3dP6+nrT6++9917935eWlo67LABDamtra+hXNtRyMObn5zU9Pa3l5eWhWBmCdmReAAAAoGepVKrrNVZdAKgZlnyLXpGDMfxoXgAAAKBnsVhMk5OTHa/dunVLZ86cOeaKMEwqmbAMw1Ci0OlqQQnDkGEYMoyEOg7xZlEmXBvX/hHOVPasoZDofm/9o3OB6JP5+XmtrKyoUCjowoULgy6nZ7FYTMvLy4rH48rlcoMuBy1oXgAAAOBAOq2+YNXFaec1HILJUpfLGYWNqJR35bqu3LwU7drACMguunLLaZmSrNo9rqu8JZWSwT2bD5GsK9fNy5KlvNu4t5w2JZlKl1252cjhv2S02d3d1fT0tCTp7t27J3L7RS0HY2VlhQyMIUPzAgAAAAfSafUFqy5Ou+aGQ6vCYlIlK696zyCSVd5yFN1rBUTgvCZaXopky0qbkpwF7b0AI6hQp0I0ofOBve7Ds9ra2lIkEtHMzMyJf9Nfy8GQpOnpae3u7g64Ikg0LwAAAPAM/KsvWHWBvRWUcyQr1rzaIRKzJCe3x/aRTgI6PyFJJW2W9xk6EVLwQHPjWZ20fItekYMxXGheAAAA4MD8qy9YdYE9Vba10fXihrb3jrBonUzbG5JkKkRnYiic1HyLXpGDMTxoXgAAAOCZpFIpVl2gR/1pNlQyM0qWJFlzsvfc/lHWps6LHSJHZxTyLXpFDsZweG7QBQAAAJwW6+vryuVy+vLLLwddSt88//zzikRGI/xwfHxcP/jBDxSLxUb6jdhJ40QNOf4XrPz+gZuVbSl05SjLOtW2trYUj8d169atkdomspdaDsb8/Lymp6e1vLzMz4ljRvMCAADgiO3s7Cgej2tnZ0evv/56x9M6MHg7Ozv67LPP9N577ymVSunNN98cdEmjIXBeE7WMCt9SiMr2hnoJ0LTyrg56OEjl/qZCV+yDVooe5HI5ffjhh1peXh7JbSL7mZ+fVy6XUyQSObV/BoNC8wIAAOAIffLJJ/rwww+1tLSky5cvD7oc7OP69eva3d3V7OysfvnLX2p5eVnj4+ODLuuEiyhmSdFcQVnfKp3yZkmy5tT/dTsFLW7GlKV30Xfz8/N6/PixCoXCqV51EIvFdOHChVO3+mTQyLwAAAA4Ih988IE+++wzPXz4kMbFCTI2Nqbl5WXZtq1IJKKdnZ1Bl3TiRW6mZfqPNy0kFHUs5fdaUlEN+tw4WKKnCokFhW6OxlamYXGa8i16RQ7G8aN5AQAAcATW19d179499kWfYJcvX9b777+veDw+6FJOhELCkBFMqiQvp8IIZ1RvOwRsFcvXtBo0ZBiGjKiUd7NdVl1UlAk35iolgzKMcKPx0XiiEoYhw0ioIKmSCcswDEWdkpK15/g+gsmSJEdRw5CRKLTdj862trYUiUQ0MzPDm/QWtRwMSZqentbu7u6AKxptNC8AAAD67OnTp3r77bf10UcfcYToCXf58mWNj4/rk08+GXQpQy+SdeW6vo+i3XzaR8BWsX69W+NCkgKyiy1zucUOp4tElO0wl5kut9zr+8hb+96Phlwup3g8ruXlZbZG7GF+fl4zMzOKRCLa2toadDkji8wLAACAPvv444918eJFTU5ODroU9MHS0pL+8i//UtevX6cZNeTMdFnFvc5QjWTl5iUjd3w1nVTkWxyMPwcjlUqxVfAIsPICAACgz+7du6fXX3990GWgT8bGxnTp0iXlcrzjHW4TunZln6NLJCkSk7X/qFOrP/kWBSUSBamSUdi/fce/lWgE1XIwMpmM0un0oMsZOTQvAAAA+ujp06d69OiRLl26NOhS0Ecvv/yyvvzyy0GXgT0E7GyHrSWdRJQ96Nmrp0Rf8y2cqIwZaaW+bScvq5RUcMQbGGNjYyoUCvr6669148YNPX36dNAljQyaFwAAAH20s7PD0ZojaHx8nFNHMNL6nm9h5VtyT7wjc1XaVPnwsw+9paUlvf7665qamtKTJ08GXc5IoHkBAADQR0+ePNG5c+cGXQb6bGxsjJMEBuTGjRs0jo7Y/Py8VlZWVCgUdOHChT7M2GF1SyGhqCOZ6ZteQGoh0XQaTKLgH9p+Wkz71hPvtJhwplI/aabTqTSNa95HuGVA8/VOp9o8u+vXr+ujjz7S9PS0vvjii/5NfErRvAAAAAAwtB49esTS+yPSn3yLPfgzL3Ixua5bDVQtKBF1ZOW9LSV5S3IWGttJIlnvNVn5+kkx5bQpmWmVi7YCKihhROVI0uqMZrQi1y0rbZaUDDaOvq1kwgquXlPZd9pMKRmsHpXrNUka19vv74fJyUmtra3pvffeIwfjkGheAAAAAMAp09d8i27qx+OWld6INlY+VLa1IVOhoDcsGDIPuJ0koqxbVtqUShNz1YZIQPZKWqYc5QqSKhnNJEuy5nxbVyJZrwniLChTyGjBMZVeqV0PyJ47mijXsbExra2tkYNxSDQvAAAAAOAU6Xu+xb4CsovVZkNyUYWAraJblB2orn5Ilp55ZrPWAZGkwHlNSNrYrkjlTZV8DZLGkAlJJW3mNlXShM77Q14jWbluVkcV50oOxuHQvAAAAACAU6L/+Ra9Cuj8hCRtaLvSyLXIxapbQo5ESZutyzmCITWe5tVynMjBeHY0LwAAAEZKRZlwL2F3AE6TI8+38KlkEh2CLyva3qj+6/2Eoo6lvOuqr6fWVrejXLsSqDcpnFxLgkV5UyVZit0MyezU3KhklOln6EUH5GA8G5oXAAAAIyUgu+gF00mm0mW3HnjnltMyS0kFjf4G0gEYbseSb+ETsG9KM80niFQyM0qWJFlzuqIN+Vc9lDeffdtIKblY/3lWWEyqZF7TlYCkgK05S5IT9dVRUWbB8U48qV53os0njBQWN3X+qPaN+JCDcXA0LwAAAE6LgK2VtCnVAu0AjLzjz7eQak3UWK6x6iuYLMlMl+VmIwrYc7JUUjJY3ToiS5KjaPWo0kLCUNSR5ERlJAreqSHJklRKKtiyesy0pIXqM6IbtdNIPJGstyXFidbqCGpzrnbiSe1Uk0Yd3jaWo8u86IQcjN7RvAAAADhFvLC6hkom7NtW4v8NZMv2k+qvLpvHN3/Uf7tZSHR8venecEYVFZTwjQvXHt7lfgAHM7h8C08k61v55TaaBt5pIY3Xs9ls9d+9EM+m+7IRBexi43Nfc0KSFLpZPdGkwzWp+d4O21Raa+zrNpYekYPRG5oXAAAAp0ZBiagjyVKs+hf0gF2shuVZylffOFSv1E8HkJWXW/0bfcAuys1b3m9QXVeum5clyUyXq3/p955h5b03AnlLcha835QG7KK83Sy1345GlPXd772x6X4/gN4cZ74F+oMcjP3RvAAAABhZzcuhDSMqx8of6VGAtcC82vGEwZAplTZVy8QLhvY5VWCf+wHs7bjzLdA/5GDsjeYFAADAyGoJ7HTLSm9Eu2zFcBStNzn2DvSs1I8M6CBgq1hdwVFIePvc2/iaEZXMgpyD3g+go8HkWwxCQQkjKC8GI1jf1jYqyMHo7LlBFwAAAIDjEpBdzGvTiMqJJhRrWoFhKe9mFVFBCSOqaDikcvFKx1nKmyVNxFp3ljfUwvasvKtyKKxg0lfB+Ql5jRKvZWGm07JU0kaP9wOjZmtrS2+//fah59nZ2dEf/MEf6F//9V9PwTYRLzMjO+gyjtD169d14cIFTU5O6q/+6q/0h3/4h4ea79y5c1peXu5TdYNB8wIAAAA+EcUsyXE2VVan5kVF2xuWYt3eNRQSijq1RohU2W6dPivX9d9cUCJ5gPuBEfPo0SOdOXNGt27dOtQ8//u//6t/+Id/UDqdZrvICNjd3dXs7Kxu3bqll1566dDzTU1N0bwAAADASVFRJhz1tmlYsS65FwXlHElmSEFJbb2DwqKSEzG53Z5Q3VKyXZEiAW+VhjTRZXT/7wdOovHxcV26dOnQ8/zN3/yN5ufnNT09reXl5VOwAmM0ra+vKx6Pa2lpqS//XYwKMi8AAABGSvWI06ij9sBOb4+4mS7XTw+pZMLVXIla5kVUjizli1d0P+yNlxOVkSh4R51GHe9zfwiovH3n4UxFAXtOlu+5OVnVuf3HsNZKzSh8mPsBtJmfn9fMzIwikYi2trYGXQ4O6M6dO3r77bd19+5dGhctWHkBAAAwUgKyi67sXkfbRbldBkda5ikkor4jTZtVMmEFN8vqtBc9m+2yxyRgq9j28EDv9wPoKBaL6cKFC4rH47p169aIh3eOjtnZWe3s7GhtbU1nzpwZdDlDh5UXAAAA6E0orZUOjQtJCtgrSoeOuR4AXV24cEGFQkErKytkYBylSkZho7HC7VkOPtnd3dXU1JTOnj2r27dv07joguYFAAAAehKxbXU/YyQg2+6cogFgMMbGxnT37l1J0vT0tHZ3tCHZRgAAIABJREFUdwdc0YipZBSekVaqx1GX06ac6MG2uK2vr2tqakqpVErJJEcr7YXmBQAAAACMMHIwjkh5U6WJ8/Wmbi2zZ/V+b90L8i0OhuYFAAAAAIy4WCym5eVlxeNx5XK5vQdXMkpkCl74b6ftEIWEL7S3datEQQnDaLpuGIbCmUrbff77Cwnfa94Ljc/DGVXUMsZoGd9Ufth3PaHCHnXV7m+au/q89rmqX0dNMCTTyanx9KBCZm//e8zOzurevXtaW1vTuXPnervplKN5AQAAAACnwEFyMDaSC9KKfzuErwkQdWTlvWt5S3IWam/2a8cxW8q7rlw3L0tqBP1GsiqnTal+vTG3st5csvLeaUi1sWZa5aKtgCraVlpl15VbTsuUqXS5WkNou95sKCQMzWhFruvKdctKm46i4Ywqiijr5mX5nu1/XqT2/PrzvLmCyYn6eDdvqZQMNpolAVtFN9s4drpyX6slU9eudN9gR77Fs6N5AQAAAACnRE85GAFbRbeoWj5vebMkmSEFJamyrQ2ZCgW9a8GQKZU2Vfbfb8XUawJO09xNClpMlvxFyc52zt2p5/FUMlpwLM3Vg4UDsucsqZTU4kGDNCsZLTiSmb7Z+FpqDRVnoWOuRWExKaVX1CXXmHyLQ6J5AQAAAACnTE85GNWtG7mYK7e6GsHf2PBWJjQ3GK5cMyUnus+pG46i1W0YC6FyY+66ijLhnELpHvdg1JQ3VfLNbRiGjKgjSdrY7jFFs5RU0DBkBJMqSZo431xZ4PyEpJI2yy33VTJaUL7jUdIS+Rb9QPMCAAAAAE6hfXMwIlm5rqtYzp8d0cieyMXc6jaQhoBdlFtOayNqyDCicjo+ubF1Y24zKMPwn9CxrUx4RlrJ6sqzfFFmdWtJy0e3pkLX+8tpdWydBEMdX6/cl+ayndebkG/RHzQvAAAAcAwqTeF/raF4e457hg8vVK/TXAlfuF7L9Y71AKOtlxyMyM20TDnKFSQVEoo6XvOhy3t1FRaTKslSvpp5sRdvbt8JHc6qtFLsuvViT8GQzNKqejzsY2+B85qQP8+jqrypkizFmr72iu7rfNtWGfIt+ovmBQAAAI5BQHbRC7yT5IX9tS0V942r/tazFgrY9FFOy0qXu48pp+Wt6W5+pqy8XH+4ngKyi2V5mYCdlq4Dp0NrDsZX7//fTds+KvdXVarmXFS2NyRtqLYLo7xZapqrkgkr6phKl7M95V54c/u2Z1hz+zcuypsqdXo9YGvOKikZ9DcpqytFwhlVKtva6Jiv0UlEN9OmVEpqpr4spKLMgtOcg+E9WLbd/Ar5Fv1H8wIAAABHqumower+cyfa7ZjFHgRsZfd6dxOwVfT/SnivkL3Kfa0qrZVn+jUvMFpqORj/z//3B/q/Pml8jwaTJVl5bzVEwJ6TpZKSwerWEVnyZ1g0xhaUqG4bKSWD9aNSvYyM5vFmuqxYzlDUkeREFc5UVMmEvbGlpIL+VVGVjMJRR6rV0PIDxDs1pDn3YkGWzFJSwWBSE3O2AtVjU2vPqx2V6k3beF7ALjZOGDEMGUZQm3PtW1BqP+Nqx6iSb3E0aF4AAAAcp0pGiUyhabtCovlXhE3bHJp+++lvArR8JAp731vbo24Y3l/2m+aq/kW9dUzTfE1bKry/+HfeqtH0xSoTNhRMqn6kobcKonHEYX1v/BFv2ai/4Zppfk7l/qp07QorLoCqWg7G//ufF3X37t36iqZGPzCirG+lUzabbVsd5Y1tHlc7KrVtJVX1WiTb/HnALjbG+FdFBWwV/fd32Lvin8t1XRWz2fo9nWqrHZXa8XktNXfaKlOrtWgHyLc4QjQvAAAAjtlGckFa8f4iXE6bcqK1Jc4FJaJOfRtE3mreb137LaCZLlf/Iu3tJzfTZWUje9/r/TZS3taJbEQBu+itRjDTKlf/ot46pr5iwTfGa0hE5dQD9xo1tAXiFRaVLJlKl/fYvx6wVSynZT7LUYYHElE2b7UsAS9oMTnhO1YRgNRbDgaakW9x9GheAAAAHCffMYNSdb94bQ92ZVsb1X3lkhQMmVJpU60n8nV0mHu7Kmgx2XFnuWTF9t3P7u2Nn9D5/XoD1WC8no8ybOHfglJfNdJJJCuvf7GogqRKZkEbbXvXAUjtORi7u7sDrmh4kW9xPGheAAAADEJ1S0Yu5lui7GtsFBJGdW94M68h0EEP90ry9nf79pp3V1EmnFMo3XooYEBXrpmSE903qyJw5ZpMX7Bf90d5jZdrV55tBYQ/sNPLtoh23YYSyeZlyVE0kZG3Y4RVF8BeajkYkUhEW1tbgy5n6JBvcXxoXgAAAAxCdR91LNd8fGctdyIXq74Rb1HeLDVS+Vvsd6+k6okbvjf6HW0rE56RVrK60uFqwC42siqqgXwd1ZP/w+1BmTWVjMLBpEq9nDDQg4Bd9La+dN2GUj1BwEkqOdGfZwKjrpaDEY/HlcvlBl3O0CDf4njRvAAAABigyM20TDnKVQM3o46XJdEpFE6qaHvDUqzTtX3vPQBnVVrZI6dCUmExqZIs5auZF91Esq7c/ET9ZALDf0qAYcgIJjWR7xy6d1QC9orSpqn0TTaMAL0iB6OBfIvBGLrmxYMHD2QYhh48eDDoUgAAAPqukgk3nyByf1WlalaFtyWksc2ivNmyraOwqORE56yJfe89iH1WQVQyYUUdU+lytre8CH9af95rdfi3evSzb+HVJslMq1tvopKZYdUF8AzIwSDfYpCGrnnx6quvNv0TAABglATsYnWrSCN3wsp7qxzqx3lWVyXkZElyFDXCSiTC3qoFX2ZFbctGKRnUjK51vTdT8baURB1591ePSg0mS1IpqaDvqNTamHCm0mFM7ejTWs0FJXw1tB+V6ufd6628qIZsdsylqI4LJlWqjfNtq+k+xpfj0XQ6SpXv2Nfg5tyxrvQARs1pzcEg32Kwnht0Aa0+//xzvfrqq/r8888HXQoAAMCRiGRdudmOV5R1XfkvZbPeZ4WEoY1Ox5HKW20Q3DyvYpd7vU9anxmRazfPE2gbU2wbYxddNV5qr7e7QMu9hxnX61w+kazczn/oAJ5BLBbThQsXFI/HdevWLcVisUGXdKRmZ2e1s7OjtbU1tokMyNCtvHjllVfkuq5eeeWVQZcCAAAwPEJprXTZ5xCwV5QOHXM9AE6905CDQb7F8Bi65gUAAADaReyWbRBNArJttkEAOH6jnINBvsVw6WvzwjCMvs1VC+7s9AEAAAAAGB6jloNBvsXw6fvKi9/97ndHMs/PfvYzra+vj1QnDwAAAABGRSwW0/LysuLxuHK53KDLeWazs7O6d++e1tbWdO7cuUGXg6q+B3Y+ePBAkUhE3/3ud595ju3tbf3TP/2TJOnq1av6+7//e33ve9/rV4kAgC6ePn2qDz74oP75kydP9OTJk6Z9rOPj43rrrbcGUR4AABhytRyMeDyu9fX1E5WFsbu7q+npab3++utaWloadDlo0ffmxY0bN/o219WrV/WLX/xCzz//fN/mBAB0d+bMGT1+/LjttyXvvfde/d/5P3MAALCXWg7G/Py8pqentby8rLGxsUGXtaf19XXF43EtLS2xTWRIDXVgZzKZpHEBAMcslUp1vcaqCwAA0KuTkoNBvsXJMNTNi4mJiUGXAACnzuTkZNez2m/dusURYQAAoGfDnoNBvsXJ0ffmheu6h/54+PChJLHqAgAGpNPqC1ZdAEekkFCiMOgiAODo1HIwVlZWhiYDY3d3V1NTUzp79qxu377NL2dOgKFceXHx4sVBlwAAp1qn1ResugAAAM+qloMhSdPT0wM9RXJ9fV1TU1NKpVJKJpMDqwMH0/fAThzO+vr6UC6nwvCJxWKanJwcdBkYYalUqv7ziFUXwKBVlAkHlSx5n5npsop2QCokZEQdSZbyeSkaddrutPKushHfTJmwgrWJZCnvZhVpe737HK3j2mvxvdbhmZZXqNorlWTl5fqK7VSrEobqX6aVVzm00BhjplUu2iq3jHFjuXpttTGBPZ7h++MC0Gfz8/PK5XKKRCJaXl7WhQsXjvX5d+7cUSaT0d27d9kmcsIM5cqL0+if//mf9Rd/8ReKx+ODLgUnRDwe15//+Z/rk08+GXQpGFH+1ResugAGLSC7mJclSVa+0RiIZJW3TKXLWUUiWZXTprw34N5W3HLalBNNqLYrpZAwNKOV6lbdstKmo2g4o4qkgF2Um7dkpsvV697zzHS5uXGxek3l2nbfvKVSMigjUZAiWbl5S5JUWr2vSr32iu5vSqZqTZCIsm5elq/OvKW2xkW3WoPZ5vEBu+h93b6mRKRljGp/Ni2Ni73+PAAcnUHlYJBvcbKx8mLAdnd3NTs7q52dHb6JcCDz8/Pa2dnRu+++q1/+8pdaXl7W+Pj4oMvCiEmlUnr06BGrLoA+KvhXBdQ5TSsRWlcueCK6mTblJHMqZCPV1QEF5Tau6Wbr0KryZkkyrykoSZWMFhxLc25tcED2nKVkNKnFgt20OqOjSkYzyZKsfLH+5t9rCmwomFxQ5mZEtiTTsiTHN2flvjZD1zShzqs6uj1rr1o7RwrvpaDFpPdn0esz9v3zAHAotRyMeDyu9fX1I83C2N3d1fT0tF5//XWOfD/BWHkxQFtbW3rppZf08ssvq1Ao0LjAgY2Pj2t5eVm2bWtqamqoj6A6Lb744gu9/fbbmpqa0osvvijDME70x4svvqidnR195zvfGXgth/n4zne+o6mpKU1NTSmdTuvJkyeD/k8Fp1gk2xJWnrdk5Ztfa29ceAL2nCw5ytWXUuSkucZKAo+jaPW//YVQWW5tpUF5UyXfNcMw6lspNra9tQaV7Y3uhZc3VZKpULClpvMTkkraLFdfCN3UnCU51SIr9zcVunK+9z+gHmuVE61f67bdxVNRJpxTKG0e/BkAjtRx5GCQbzE6+r7ywjAMSdJbb72lQKDxf6UvvviiJOlP//RP9cd//Mf63ve+1+9HnzjxeFzLy8sElOLQLl++rPHxccXjca2trbG8fwB2dnYUj8f19OlTvfHGG3rjjTc0NjZGLsmQePr0qR49eiRJunfvniKRiGZmZvSTn/xkwJUBB+WtvgguZHQzckX3F6RYsXVMI7ehkDBkGKbS5aJsqW3bRKvyZkkTsW5XpXqTwj8kGFJLW0CRmCVFcypkpdxqSDdtafMgX+Y+tRYSatpm4m1n6TTJtjLhBWmlqCv3w2p727LPnweA43FUORjkW4yWI1t58fHHH+udd96pf7z66qt69dVXNTk5qbNnz8owDL399tu6c+eOtre3j6qMofXBBx/o0qVLNC7QN5OTk/rBD36gDz74YNClnDqffPKJpqamZNu21tbW9NZbb+nSpUs0LobImTNndOnSJV26dElLS0v66quv9O233+qll15ixRJOnIA9J6uU1GLmvlYnYnuGS0ZupmWqpNX7Fa/JUFrV/a6LCira3rAU6zZhtUnh5FrOdS1vqqSW+yIxWXK0EF7QxrUrB28O7Ftrj5xVaaWojgtZ+vUMAH3R7xwM8i1GT9+bF47j6JtvvmleDum6+vrrr/X111/r4cOH+vzzz/Wzn/1Mv/3tb3Xjxg19//vf12uvvaYHDx40zfWf//mf/S5vKDx58kQrKytKpVKDLgUj5ic/+Yk+++wzra+vD7qUUyOdTuuzzz7Tw4cPdfny5UGXgx6dOXNG77//vpaWlnTjxg0aGDhhIopZkpNc1bWbewczVO6vqiRp4nxACtias0pKBhsBnpK3aiFRkFRYVHKvZkjA1pwlyYl64727lVlwZKZvttzn1VgqTWjO3znIJWSEM6pUtrVhhtSyA6XlWXvU2itrrnPjop/PANA3tRyMlZWVZ87A2N3d1dTUlM6ePavbt2+zInmUuK7rVv9xaJLc3d3dA93zzTffuA8fPnTfeustV5J79epVd3193ZXk3r59uy91nT171j179uwz3fvmm2+6y8vLXa//5je/cc+dO3egOVOplJtKpZ6pHmA/S0tLbjKZHHQZfffyyy+7L7/88qDLaPIf//Ef7uTkpPs///M/gy4Fh/Dw4UP34sWLgy4Dx+C4/v93bW3NvXTp0tE+pJx2TTPtlv2v5S1XUtuHmW4a5eat9uvltNnx3k5ztI618u3Pt/LVGq2867p51+owp3dfy7X6ZN1rbXrNyjfXU/0z8Y9p+/pa/tw6PaOTY/nfdcj96Ec/cgOBwLE/99y5c+5vfvObY3/ucVleXnbffPPNQZcxdFKplBuLxdzf//73Pd/z1VdfuZOTk+7a2toRVnYy9es9/yA899xz7r/8y7+4fc+8+O53v3ug8c8//7yef/55Xbx4UW+99ZY+/vjj+lLrGzdu6JVXXtHzzz/f7zIH6t69e1peXh50GRhRly9f1vT0NEnKxyAej+ujjz6io3/CXbx4UZcuXdIHH3xABgZOlInW7RiRrFw3u+99kayr1mGFRKnLCSfVPAlf0EXALsq1O07c8nxbxeqnWddV58oie1zrXKvU+lqkrZ5A231dau76DACDdtAcDPItRl9ft424rnuo+1944QV99NFHmpubq7/24x//WI8fPz5saUNlZ2eHIy1xZM6dO8dJCseg1mglt2Y0pFIpZbNZ7ezsDLoUoCeV+1Ks636IZxBKa6XrCScrSof69ygA6FWvORjkW5wOQ3lU6k9/+lNdvXpVkvTpp59qcnJSP//5z0emiUHzAkfpzJkzevr06aDLGHm//OUv9cYbbwy6DPTJmTNndPny5b4EhAFHr6DFzfN7BnUeVMTe68SNgGy7n08DgN7tlYNBvsXpMpTNC0n627/926bP33nnHU1OTtaPYgWAQfriiy906dKlQZeBPnr55Zf15ZdfDroMoKtKJizDMGQYOcWyNBMAnB5jY2O6e/euJGl6elq7u7taX1/X1NSUUqmUksm2g5AxgvqeedEvV69ePfQ2FAA4Cru7uxobGxt0Geiz8fFxto1gqHXNmgCAU6KWgzE1NaUzZ86Qb3HKDG3zAgCGFc0LAACAwYjFYpqcnNT4+DjbRE4ZmhcAAAAAgBOD1Ran09BlXjx48ECGYejBgweDLgUAAAAAAAyBoWtevPrqq03/BAAAAAAAp9vQNS8+//zzpn8CAAAAAIDTbegyL1555RVOGQEAAAAAAHVDt/ICAAAAAADAj+YFAADASVTJKJEpKBM2ZBjeR6Lgu15I1F9vu6aCEr5rtY9wptJ2n//+QsL3mvdC4/NwRhW1jDFaxjeVH/ZdT6iwR13N9+9ROwBgZB1Z8+LOnTt67bXXZBiGXnvtNd25c0e/+93vjupxAAAAp85GckFaceW6rsppU07U1wSIOrLy3rW8JTkLXnNBqigTjsqRpbzrynXzsiSZ6bKKdkCKZFVOm1L9emNuZb25ZOXlZiONsWZa5aKtgCraVlpl15VbTsuUqXS5WkNoW7X2QiFhaEYrcl1XrltW2nQUDWdUUURZNy/L9+ym5+1XOwBgZPW9efHtt9/q7bff1o0bN/Tpp59Kkj799FPduHFDP/7xj7W9vd3vRwIAAJw+AVtFt6jae/byZkkyQwpKUmVbGzIVCnrXgiFTKm2q7L/fiinS46Oa5m5S0GKy5C9KdtZWpzZCxK6+XslowbE0V282BGTPWVIpqcVChxs7OUDtAIDR0Pfmxc9+9jN9/PHHHa99+umneuedd/Ttt9/2+7EAAACnU3XrRi7myi1WGwS+xkYhYSjY0mC4cs2UnGjLVpJWjqLVLRkLoXJj7rqKMuGcQmnzYPWWN1XyzW0YhoyoI0na2N5v60evtQMARk1fmxfb29taWFjQ1atX9fnnn2t3d7e6HNDV+vq63nrrLX366af61a9+1c/HAgAAnF6RrFzXVSznz45oZE/kYm51G0hDwC7KLae1ETVkGFE5HSdubN2Y2wzKMMJqxEpsKxOekVayuvIsNZvVrSUtH71s/eitdgDAqOlr8+Lf//3fdfXqVf3iF7/QK6+8ou9+97v1ay+88II++ugjXb16Vf/2b//Wz8cCAACcepGbaZlylCtIKiQUdbzmQ7bL/orCYlIlWcpXcyP2n7uk1fvV7oWzKq00tqwcSDAks7Sq+4fI1zxI7QCA0dDX5sVvf/tbJZNJPf/8813H/PSnP9XCwkI/HwsAAHDqVDLhpq0TlfurKlVzLirbG5I2VNuFUd4std0bdUyly9mesiO8uaWJ89VuhTW3f+OivKlSp9cDtuaskpLBxioRqbpSJJxRpbKtjY75Gs9WOwBgNDzXz8neeecd7e7u7jnmhRde6OcjAQAATqWAXVQsYciINl6z8q7XVLDnZCWjSgYNJSVZliUvw8JpGVtQorb1IhlUWGUVzy9WMzJKTePNdFmxnCEvniKqcKisFc3UxwbDqp44IqmSUbiaY5EMGkrWTwvxRLKu8jKa57csmaWkgkGvtoB8tSkqQ2mlN5JKlvaonRNHAGBk9bV5Ialpq8hhGIYh13X7MhcAAMAoimRdudmOV5R1XfkvZbOdBraPk7JyO08qqfV5Rbl2h2EBW8WOF3xP7lR7U42darNl73kdADCq+n7aCAAAAAAAQD/1vXnxu9/9bs/rjx8/3vP6t99+qzt37vSzJAAAAAAAcIL1fdvIn/3Zn/U0zjCMfj8aAAAAAACMILaNAAAAAACAodb3lRcAAADAqPmv//ov/epXv2L1sI5/BfXY2JjGxsaO9ZkAhk/fV17cvn1bruse6uP27dv9LgsAAAB4Zn/yJ3+iv/7rvz7033NP8sePfvQjBQKBY3/u73//e5oXAPrfvLh+/fpQzAEAAAAAAEYDmRcAgCFTUSZsyDCaPxKFQdcFAACAQelr88J13aGcCwBOnoISiYJUySjsfxMfzqgy6NKOVEWZ8Iy00r5sOBsZdG0AAAAYFAI7AWBYOVEZG2mVXVcBSVJBCSOqYFgqF+3qayOmsKjVaysqjuQXBwAAgGfFthEAGFZWXm5TkyKimCWptKny4Ko6QhVlFqQ5m84FAAAAmtG8AIChFFG2dZ9EIaGoI5npm4pUP++WCVFItGdGtG89KShhGApnKqpkwtXrYWVa9qU0rnkf4ZYBzdfb72/Vfb6yNhVSsFpXfQxhF0BH/fg+b5ojUWj+uVKdo3VM0/dw01a2lu9d3/d411p9399dfzb4atrr5w8/KgBgtNG8AIBh5s+8yMXkuq6KdkBSQYmoIyvv5UHkLclZaLyJiGS912Tl65kR5bQpmenqlhNvC4ojSaszmtGKXLestFlSMphQof74sIKr11SuZU/kLZWSwfobjkLC8F1vv7/9y9ljvsq2NiY2tWjkFPNdlxOlgQF00I/v86Y5shEpkm2Zo31MwC62jfHyaqJyZCnvunLdvCxJZrqsoi1ty9sC55bTMmUqXa7+7Aptq6J9fjZEst7PAkml1fu+ZklF9zclU5KVJxcHAEYdzQsAGGYBW8VaY2Aj2vjNY2VbGzIVCnrDgiHzgNtJIsq6ZaVNqTQxV22IBGSvpGXKUa4gqZLRTLIka863daX2xsZZUKaQ0YJjKr1Sux6QPWd1f+R+893fVMlxtFFbWdJ6fbSTSoEj0MP3eZuCFpOlZ3+kFVN7DyEgO9s5pydi2wrs97Oh+r1vWpbMUlKL9e7qfW2Grmni2asFAJwgNC8A4EQIyC5W34QkF1UI2Cq6RdmB6uqHQ7zZMGsdEEkKnNeEpI3tilTeVMnXIGkMmZBU0mZuUyVN6Lz/HUkkK9fNdnjzov3n2/Q+nzgf6Hx9NIM+gGPR9fu8SUWZcE6htNl5Eida36LR/jMnoCvXTMmJHnz7xn4/G2rf+6GbmrMkp9p1qdzfVOjK+QM+DABwUtG8AIATI6DzE5K0oe1KYx96LlZdKn4kOjQNgiE1nubV0pf5Qt4/295QNT0PwNHYrh5TnNWVbkNat6e0CNhFueW0NqKGjNp2lZ7t97PGE4lZkpNTQQUtroZ0hXxfADg1jrx58fjxY/3jP/6j/u7v/q4tpOnnP/+57ty5o8ePHx91GQBwolQyiQ7bJCra3qj+6/2Eoo63t7yv+7yr21GuXQnU3zg4rWvLy5sqyVLsZkhmpzcclYwynX7zut989hVdM6VS64S16+xnB/rD/31e46xKK95qrsMoLCZVkqV8NfOiJ/v9bPB/70disuRoIbygjWtXRvPIaABAR0fWvHjw4IEMw9Dk5KQsy9LCwkLbmHfeeUc3btzQ5OSkXnvtNT148OCoyjmhKsqE90gS3yOxG8DJFrBvSjPN6fmVzIySJUnWnK5oQ/5VD+XNZ982Ukou1gM2C4tJlcxr3m8zA7bmLLUsA68os+B4J55UrzvR5hNGCoubOt+p0bDffLXMDCfqO1HAfx3As+r6fV5jzR26cVHJhBV1TKXLXbaOSdWGRIt9fzb4eUdGl0oTHKsMAKeN67pu9R99sbu7687NzbmSnuljbm7O/eabb/pWj+u67tmzZ92zZ88+071vvvmmu7y83PX6b37zG/fcuXMHmvPAf955y5VMN10+4DWcWv8/e/cf2kZ+53/8JVgOF76w+ePo+q9NCpLr+gzx/dXsCC7J3h/NKOyu9o9zkv5xjmlvZENBCq1JF3zEuRiySwqRoBBLLHjN/bEblyNalmh2/+jFvT0p7v1TG1zV9Qg2u9xRX7k/3D+O+g6u8/1DPyzJki3bsseSng8QG2tm3vMexzMbvf35vD/tvKdPi4sXL7oXL170Og3XdQ933x9Wxqp9RhqVmz3jWlXvW5ZV+nPxeVBznJVxnbix87URd4tRHDduyDUsyzV2bdtRc6zkWpm9c6zfXm+/eMXnWuvx2uXZs2fupUuXTuZk8MSdO3fcO3fuHPt5TupnqR33eXUMI+40jLH/eYrn2Llfa59PleeWE9/JoRSrWtNnQ9UzwcqU4liZXec57mcFzwjX/d73vuf6/X6v0+g68/Pz7s2bN71OA12ukz/aSplkAAAgAElEQVQfvPTSS+7nn3/uvnTU4ke9n/zkJ5qdndX09LQuX74sv9+vl19+WS+//HLD/b/66ittb2/r3//93/Xs2bPKCI179+61OzUA6Dhm0pWbbLhFSddV9aZksuqrXceZcqNNTjI0pWzjk0gqzWNvduyeOR4uXrnpJ4C97b73Dn6f746x+/70t3CeaNZVtGp7/fOpGCiq7B43f9Nnw65nQlTZ0pcNzwMA6EptnTbyz//8z/qv//ovffnll7p3755ef/11vfrqq00LF5L06quvamBgQK+//rru3bunL7/8Uqurq0whOaJCIlgzpSRYNaa7flv1K2Lvsb1q/Hqz+OUGgoc5thSgxbyK69NX9g8miuu+1x3fykyaQ1/LHrk2jh3ZGbJ7wNjMCAIAAADQy9pavPjZz36md955R6+++uqhY7z66qv66U9/qp/97GdtzKy3FBJBBRZH5ZQ6grsZS7lYoPLB2B/Nys1YMuJOqWt4samWEXeUNIvbi13Ei80Ai/s4imtDhT3jJ7ShePF9Jy5DhuJOcZ/M0H7Hlj6dl9d1rzq3EzeUCkXk1OSVlKmCEhvhYpxsVH7ZioRSsjKlc1pSarZU1Djw92r/a9krV1vFAsWYFna+f0ZKoWBCBRX2iX3w6wAAAACAbtbW4sXc3NyRChdlr776qubm5tqQUQ8qJDQWy8maju504C5/yE7NNli9oFV+RZNR+feMvyhNRRt2/jaj+x3bPDcnn5OMIdUt/65CYkz56q6Ape7p5XXiA0OGlMurfiGEqgCHv5YmISu5FhKaTVlVzcRKjQhzMT2wS9/LZrEPeh3AodiK+AKK5VRbQATQRbjPAQDdo63Fi4mJCX311VdHjvPVV1/pjTfeaENGPcjJK1f1wbfMPzCs6jXUC5X1Fo8n/tGPTSlUmjIxO+SURlbUbhvTQu0Skf6osm5xmTc74lMgts/qC0e5lhoNcnXyylW97/P55AsVV7xf29ingnTQ6+gRIyMjGhkZ8TqNLlKck+6WX21dbxXA6cB9DgDoHm0tXvzN3/yNfvCDH2h1dfXQMb766iv94Ac/0He/+902ZtZrGnzwLq2hXubkcxoeOOwSY/vHP/qxO1MxpvMB+XzVSzEW148fjgVq+2Vop5dEOuyWpnQc57XskeuGJCO+Mx2l6pVtYWm3g19H94vH44rH416nAQAAAMADbS1evP766zp//rxGRkY0OTmpTz75RKurq/rqq6/0+9//vuExX331lTY2NvTJJ59ocnJSZ8+elSRdv369nan1jtIH71S6bmiok1dOlsKmJBW0sVb+83HEb++x5lRchnJafFpdqDA1FTdq1q2XHVEoVSwktPTLpaNcSxOVXPOSkVvU08NM0znodQAAAABAl2tr8UIqLnE6PT2tubk5vfnmmxoZGdHZs2f1yiuvNFxd4ezZs/rmN7+pN998U3Nzc5qentb777/f7rS6QIvTGPxRTVuSUqGqFSoKSsymZMSnZEqS/UCx4bAO9bm4lfhSqQBwyGPrFJ4uKiftGinij07LUkqhUrDiVJg1lWdlOPl9plsc5Vr2yzWc1LSVUyyws8KIVGwQWjPluEHsA18HAAAAAHQ713Xd0n/a6uc//7n7xhtvuJJaer3xxhvuz3/+87bn4bque/bsWffs2bOHOvbmzZvu/Px80+1ffPGFe+7cuQPFbP377bhxo+57ZcRdp9k2K7NzZNyo2VbeVP9+/cuIO3X7WG6mUWZN4pc2ukaTvPY9NmMdLK/K/pabcTOuVR3XKm8z3Lizx3f5sNeyR647uzTf1jz24a6j2nHc09hxmPsep9+zZ8/cS5cueZ0GjtGdO3fcO3fuHPt5+FnqTvy9uu73vvc91+/3e51G15mfn3dv3rzpdRrocp38+eCll15yP//8c/elI1U+9vD666/r9ddf1+rqqn7zm9/oP/7jP/SjH/2oZp/p6Wn9xV/8hb71rW/p/Pnzx5VKB/MrmnUVPfC20nKoDTY6+ZyMuNOw70IhEVQg78ifbHxsK/FLG5XdI8Cex5pJuW6yycYGx9Xtb7quqo9OJpvFajGfva5lz1zLu7hqukvT2MUGawe9joPa2trSmTNn2hCpoESw2M1eUrHXR7bRaip1+9Vp9nNZzY74VOp72pyVoSkdAAAA0GXaPm2k3vnz53X9+nX98Ic/3NW48N69e7p+/TqFi5M0FNdCkw+I/uiC4kMnnA9O3IsXLzQ+Pq633367DdEKSgTHpIXyfZ2RlYsp0HA5vmLBzXXiMiRZmZ1nQcZqbRk/M1k6R1WTVNctNzU1FHfopg8AAAB0o2MvXuB0MaONfiNe5lc0yge/brWysqIbN27oG9/4hj744IO2xb26UFzWtchUMmNJaxtq2qvUP6DhurfMpKO4ISk1q8S+TU4DGmq4AMuwDr2ADgAAAIBT7VQVL5aXl/XRRx81XZkEwMEtLy/r7bff1l/+5V/qo48+anN0v/x1BQM7nZI1vVeRrHGcgWGp5ca0w0MKHCh+pygoEdxpaFxZCtiOlN6LKBLZ3fjY5/PtGrVSSARrtpdj1bwfTKggW5FG8Uoxd+/f7Bw7zWntyN4xEnXbd65v5xz1MRrtA/Se4v0aTBSq7qvgrqJvs3tz1/uFhIJV93zErn0GVT9XGsXc715v9V4+zP3OMwIAes+x9Lz4/e9/r48//liWZUkq9ra4evWqLly4sOdx3/rWt7SwsKAbN25oenpa9+7dO470gJ6wtLSku3fvamlpqeH2ra2tyra+vr59789W2BGf0uHDLPFa0MaaJBka6s6qRIv8imYzyvtCSlmZnR4gZlIZa00bU1PSgyE5blT+QkLBwKJGneLIFzuRUEGm/Cr1r1kcleNmi0UkOyJfKCBfPiM3mVUm71Nobac3SdLNSL6Q1kp9R+yITyGVe4eYclSKV9XLxI74NDvkyHX9KvczCQWH5GSjMpOuMtorRlQD9dvjazXn8DeKUbcP0FtsRXwhpSQZi2MaG12Q66rYSygQ0YCblKm9701/NFu8F2PDypT2Nx0pGIhpOFN6dhffUGx4p39Q85j73eut3cuHud8bPmd4RgBAV2v7yIvV1VW98sorlcKFJM3Ozuq1117Tm2++qdXV1abHvvzyy7p161blGACHl0gkmhYupGLvi7t37+ru3bu6detW49+87/Mqxy//ti2UklKh3aMA9lNIjBUbeVrT2qdnpyRHeQ00/Yfpv/7rv2ppaelIr+Xl5QPl316mpuKGlEpXLbNrK702qqt+v6LJJv+QL08JKyQ0FsvVjn4xk8W+IKVpOYHG825aV0hoNmVpuvKX5Vd02pJyMT042F99ia0HzTq5HmgfoJuZSrrFKXa54elScdOv6EJchlJK2zqGe/M4Yh7X/c4zAgC6XVtHXvzhD3/Q3//93zfd/sknn+iTTz7RT37yE/3whz9suM/AwEA7UwJ61pMnT7SysqJbt241LGJcuHBBtn3Yf83W2lmxpfSbwdSsElPmnoWIVMinmoVDWl0lpLAhDV1tuvl//ud/jlz83N7e3reA8f/+3/870jn24o9Oy4qFlLaTMk1JdlqaTrb2m0Qnr5wMjdaNYPEPDEtKKe9IVyUpl5cjlUZqzBZ/m1t9QCokX/VfkDFad46UQr7dS7+sbRQk079/jIqCEsG0huKGtNjsolrZB+gdRvUQtVIfobWNgqQW782D2Od+D0st3uvS8d3vPCMAoBe0deTFv/zLv+iTTz6RJE1MTGhlZaWyGsDW1pZWVlb0k5/8RD/60Y/05ptv0tsCOGYjIyN69uyZnj17pkuXLtVs6+/vP4Yzmko6cRkt9K6oXm3EdVtfJaTwNK+hq83/Af7Xf/3XlWs+7Ov58+e7Vkeqfn3xxRf68z//84N8Yw6oOPoiNZtQQQUlZqXwgabiNPj+B4YqxYlyISNUGkEzplFZdbvLytSt5lLHiMtp8L2pWe52vxjaKK1Wk1TzclQr+wCoaOXebHfMfe916fjud54RANAr2lq8yGQykoqFi0ePHtUsgfryyy/r/Pnz+uEPf6gvv/xS58+f1/e///09p5EAaI9Lly7p2bNnevLkiUZGRo73ZP4BDR9b7wpbD/LhFqaWdD5/dFpWLqYHiadaHA6r5dpFqUiRSteNqnHyyskqFkHMZN0HkAOOeAsMycgt6ulRO+KlFqWa1WoOuQ/QywobWpOh0av+9t2b1U77/c4zAgB6RluLF3Nzc5JU6VvRzKuvvqp79+7p7/7u7zQyMkIBAzgh4XBYv/rVr/Thhx/q7Nmzx3IOOxLSWnyh+T8kCxtaU3mI80Fjz2poqleW8zUVtqRUbFGjja7Zyavh7G5/VNOWpFRIO61HCkrMpmTEp1ovguzFH9W0lVMsEFF1iaSQCOpA7U5a6XHSUh8UoLfkYg92Vvd5EFPOGNVVv9p3b1Y77fc7zwgA6B2u67ql/xyZpAPH+u1vf+u+8cYb7vPnz48UZy9nz551z549e6hjb9686c7Pzzfd/sUXX7jnzp07UMx2XhvQyIn9jGWsyv1aflmZZjs7btxQ3f6GG3caBnYtyZUsN+O6rhM3dp2n6at5Am1zmPv+UJy4axhxd9e3yIm7xj7XXP89a/ptqY9VF7cmTl0uGat2f6P0l1nzfoMYcav2mEbnyLSwT7s9e/bMvXTp0jFExmlx584d986dO8d+nuP7WSo+Rw3L2rlvG9wPze7NAz1L654tjWLud6+3ei8f5n7nGeGN733ve67f7/c6ja4zPz/v3rx50+s00OU6+TPoSy+95H7++eduWxt2TkxMVEZftGpgYEDvv/++vv/97+u73/2url+/3s6UABwnMynXTba4s1/RrKtoa4GVdF2VI5fHaBilpTwbsiPyhXY3lOt0w6NXdzfq9EeVdff+Tu40Ud3HvrHMpnHMpKtGf/2736+PEVW0ZvvuXP27YrR4PUAvGJpSdo9nb7N7s+XnQssx97vXW7uXD3O/786HZwQAdLu2ThsJhUKSdOBGnF//+tf1/vvv69e//rU++uijdqaEI7IjVUtjRuzKkpg+n0++YKLyoVJ2pGYJzaZDSQsJRRK2EsEm+zaJU5NH/auSh62Iz6dgolCVZ1CJBrMTaq6jdEzz7Y1j4GTtWbiQioWUzK62kx2t8FQKMx4aAAAAaG/x4q/+6q/0xhtv6OOPPz7wsV//+td17949/frXv25nSjgiM+kqY6myjKU/mi12EjficrLR0m+EbUVCqcrqERlLpVUSGluLzUoLO13JU6HyPNrmcWryqO5oXsmjtESnJC2OaUwLcl1HcaPxPN3A4uhO5/SMpVwsIF+pUmJHfFXbG8fASRsuNqPbjxnevWpGx7L1ID/Qnh4VAAAAQIdra/Hi5Zdf1k9/+lN98sknWl5ePlSMe/fuaXp6up1p4biVOp2XV5cIDBlSLq+GK2X6o8q6O13BnXxOMoYUOGicXUwlXUdxQ8oNT5d+Q+9XdCEuQylVFl4oJDQWy8maju4MxTeTxUJIalYJO6HZlKH4Qnm7X9Hp7vk43Kn80WSLDdlMJVtccvW02hn1k1a4w68FQDvZivgCiuVUU3AHAKBXtLXnhVRcSeQf//EfZdu2Xrx4cageFvfu3Wt3WjiqVEi+6nYCxujOn6vmzNsRn4ptB4b3jlfqT2BlquasHiZOA0b1Gp3+AQ2rtLKF6S+t0GBotG4ZT//AsKSU8ulh5TSs6eoPymZSrnvgNNBmKysrknT8S7167Chz0gF0s9peQAAA9Jq2jrwoe/nll3X9+vUjNd+kgHHK1E/XqFPuSZEON96+i5mU67oKp33y+XamZBw4zqHklK8fzhEY0s7Z1nSIVTxxzGKxmGKxmNdpAAAAAPDAsRQv0GPsiEIpSxnX1UFHuZtTVdM6jhCnqdJUlEq/hFKRIpWuG27r5JWTpfDUkIxGxY1CQglG6AIAAACAJyhe4MgKG2uqHq3g5HPN900Ea1YXKTxdVK7U5+IgcfaSiz3YGcnxIKacMapKr0d/VNOWpFSoKo+CErMpGfEpmaXtqVDtCiP2g7wGaD8AAAAAAJ5oe88LdJed3hMh+ZSRMzSrQCwnKadAUMWVPqLTsmIhxQI+xSRZliUppZBvTXEnW9No0R/NKhzxyRfaec/KuMV99ohjGDnlcvvkUYpnWNKsz6eQVLcqSpGZdOUMBRUI+ZSqyiFr7mzPyKdQKY/yduYZAwAAoN36+vr06aef6vLly22Lee7cOc3Pz7ctHnAaULzAnsxkVUPN4jsNmgnubiKWTDb/qL875mHiNMqjZGhK2cYnqNivKWLzHAEAAID2uX79uvr7+9sa8/LlyxQv0HUoXgAAAACAhy5duuR1CsCpR88LAAAAAABwqlG8QJewFfEFFMtJuVhAvghLg6A3FBJB+Xy+hq9IaRWfXe+VlJcm9vl88kXs2ljBhAot7lObQ3Wz24ISwerjE3Vf21X57SyZDHS7mvuq/lW6r4r/X/MpmChU3WO1zaSl+vuv9j7a9/nQYJ9g3Qma3d9Nr6EcuNmzp+793c+m4nXvGXuPaz/Mc60mp8r3HwBw6riu65b+07XOnj3rnj179lDH3rx5052fn2+6/YsvvnDPnTt3oJjd/v2G97rxZ+zixYvuxYsXvU7Ddd3D3ffHKmO5Rtwpf+FaUunr4p+tTHk3uTLirlNzqFyVd3Bd14kbh9rHiRuuZLkZt57jxo3a4zOWXMlwiyk7btxodNzJe/bsmXvp0iWv08AxunPnjnvnzp1jP08rP0t731fFe1eSaxhG6X4u3UtV91nGUtW9X9ped282fz40uJczlivt5FX7zKg+v+PGrdL7Ttw1Kvez62bicdfZ59lT/7zY/fzIuFbddVZ/r/a79nY91+rxjHDd733ve67f7/c6DbSgG/8tiKPp5J+Jl156yf38889dRl4AQLcqbGittBSxJAWGDCmXl+NtVjKTjuJGTrGxhBKRMWkhKVYiBqqZSrqO4oaUG55WNuqX5Fd0IS5DKaVtSYWEZlOWpitLevkVnbakXEwPWhnGVEhoLJaTNV21IpeZlBM3pNSsEnZCsylD8YXy9lL88p+TtSt5VUJEo/If8Nnj5HOSMaRAC2mXcz/Ste9i60HscMuzAwBODsULAOhwhY21xhv8UWXd4nLFdsRXWl64gVSoMmT6SPsopVCT4et1iSmazcjKxbQ4tFCznDKAWsZQ1Ud6/4CGJa1tFCQnr1zNPeeTr7i2eXF7SdPng5NXrqrAsHOKYUk55dN55TSsgdq1xuW6LRQbW3r27OQ+O+TIzTYuhjTPfZ9rb+mZJRWnt6U1FDdaPTsAwCMULwCgwzn5nIYHGv+zvzy3Ox12i79RbcTKyHVdue4R95GljOvKdTOylFJor7njhQ3JMJSLBUSLGuCQjLic0n1Z/cpWVQT3ej5IOeXrh0MEhrRzh69p45ANIPZ/9pSfF66m84GG/Tz2tN+1t/TM2lAiWBz9dfWA1wcAOHkULwCgoxW0sWYp3OhXoXZEoVTxA0LyROdlmApb2mOYuK3ImDSVzSpjSakQzTqBlpSmY4xe9ReLDLlFPd3zA/8ez4dSkSKVrrv7nLxyshSeGpLRqLhRSCix3w17wGePORWXoZwW976Y2tz3vfYWpBalhSyjv9Dxtre3ZZqmLl++XHlJqvn6xo0bHmcJHB3FCwDoZPYDxYbDDYdxF4eL7/zm1Mmf1JxuW+mUmsxhLw7RDpeGiBf7X+wzSgPoYbnYg0pxz34QU84Y1VW/JH9U01ZOscDuFUZ2VvZo/nwoHi8pFaoa/VRQYjYlIz4ls7Q9FaodEWE/yGugOqCTV/2T5aDPnsLTReUkDecfFFf7KGxoba8eGK1ceyusaQoX6Ap9fX0aHBzU0tJS5SWp5utvf/vbHmcJtIHrdnbn0Vaw2gh6TTf+jLHayG7FDv1q+jLi8cqKBZJcyyqtJFBaGaC46ocqqwvUxKvu2r/PPo3zKK1IYNQeX4lX6vLfKJ5XWEmg+52W1UZaua/KK2gYluUae9wjNbHqVxLZ8/nQeL+6RT12xa/Z7sR3cqu6r6tXS9n17IlbzfOpilcMVRun0Yoj9TEO+lwz4k7LzyGeEaw2cpr97ne/c/v6+hreX/39/e4f//hHr1OExzr580F5tZGXDlztAACcCk4+JyPu1MxvLyskggrkB5R1XSWr3k8mq75KunKrN8qUG62N429hH0Wzu98r7511VbupNp5/j2OBbmW2cl+VDU0pW7vzPrGK9n8+OJL8+96DzeJLKjXmbHSwqeQez55otFnA+ni74+yf22GeazyH0Pn6+/s1MTGheDy+a9vt27fV19fnQVZAezFtBAA61VBcC03GPPujC4oPnXA+AE4Png9Az2lUpCgXNYBuQPECADqUGd1raUG/otET7dIJ4BTh+QD0nkaFCkZdoJtQvAAAADhVbEV8AcVyUi4WkI/1hAG0qLpYwagLdBuKFwAAAKdKsdeDW36d7FrHADpYdcGCURfoNhQvAAAAAKBL3L59W+fOnWPUBboOq40AAAAA6FkfffSRPvvsMy0vL2t9fd3rdNrma1/7mtcptMXIyIhGRkZ07do1Xblyxet04CFGXgAAAADoOevr63rttdf08ccf6+LFi3ry5MnOdC1ep+Y1Pz+vixcvKpFIyDRNbW5uev2jA49QvAAAAOh5BSWCPvl8tS96haJbxeNx3bhxQw8fPtSHH36omzdvanBw0Ou00MDIyIhu3rwp27YVjUZ1+fJlffTRR16nBQ8wbQQAAKCnFZQIjkkLrtzm66sCXWNubk6//OUv9fz5cxpadpgrV67owoULunHjhvr6+hQOh71OCSeI4gUAAEAvsx9ocXRBWQoX6AEvXrxQIpHQr371KwoXHerMmTOan5+XaZq6cOGC+vv7vU4JJ4RpIwAAAD2roMSsNB2lcoHeMD4+rkePHlG46HD9/f26ffu2bt265XUqOEEULwAAADqAHanqRxGxJTuy83UwocIexxYSwZpeFsFEeW9HeQ0pIFsRX138nTMrUjpmJ05QieoTVudS3yujkFAkYdf01CimX3u+mhzrrqdp/nXnpVcH9pJOp3XmzBldunTJ61TQBtevX9fm5qaWlpa8TgUnhOIFAABABzCTrjKWJCsjN2lKZlJO3JCMuJxsVM3GThQSQQUWR+WUu/dnLOVigWKBorChteG8HvjSCldtVypUKmDYivhCSknS4pjGtCDXdRQ3cooFIirWCGxFQilZmeLxGUtKzdYWH9Zis8WeGq4rJ24oFYpIddfjj2YbXs+e+Ze/B7KUcWvjU79AvcePH+vatWtep4E2unbtmh4/fux1GjghFC8AAAA6kq0HsdzeuxQSGovlZE1XFTfKH/hTs0o8zSuXSmktPiWz0faCqaTrKG5IueFpZaN+SX5FF+IylFLaVrEAIkNDgeLhgSFDyuXllOP5o8q6WZVnpjj5nGQMKdDKJe6Xf4PhJgeKj56yvLysCxcueJ0G2mhkZEQrKytep4ETQvECAACg4xSUCKY1FDf23s3JK1dVWCjzDwxLyimfL349POBvvN3Zec+oDuIf0LCktY1CTXHCjvgUaFZQKU3xSIdduXuMFDlQ/pX8UgqVpozMDjmtx0dP2dzcpLljl+nv79fm5qbXaeCEULwAAADoKBulpU2TutrS/rVFCElSYEiGJA0V/7u2UWi8vUXl/hXpsFuaxtGAmZTrugqnffL5DjKtY4/8K3amjUznA7t7cgCStre3adQJdDCKFwAAAJ0ktSgt7EzD2FPpQ34qXVcqcPLKyVI4elWjhpSrrw6Ut5tqrDRVZPSqX7IjCqWKxYNks/2rmFNVU06Omn+D8xXj57T4lOoFAHQTihcAAACdxJpurXAhSf6opi1JqVDVChwFJWZTMuJTMuVXdLrYoHNnBZLq7TtysQeV0RL2g5hyxqiu+qXCxpqkNZUHbzj52mkjhUSwZvWPwtPFhlNBdk5U2y9j7/x3K8bfPRUGANDZXvI6AQAAAOzPjvgUSklSSMEhRwsaK/WXyCkQVNMVR8ykK2coqEDIV1w1RJKVcZU1KzvIzUi+UEC+WIPtJYYlzfp8Ckm1K4JEp2XFQooFfIpJsixLxR4Ua4o7WUWjWYUjPvlCO7GsjKuBBzvX40tVnymnUCRcXFFlv/ztSOV7EKoKYsSdlkaBAAA6B8ULAACADmAmXbnJ6neycqOtHeuP7rOvmZRbG3y3oSllG+5jKum6qt6STNbutzt3SWaD9ySpkFBwbEMFmZViTNP8W8kbANAVmDYCAACA08Mf1fSo10kAAE4bRl4AAADgVDGjLQ4pAQD0DIoXAAAAaMJWxBcq9prIBeTLZyq9KAAAOEkULwAAANDE7n4WAAB4gZ4XAAAAAADgVKN44YG+vj5tb297nQaAQ+IeBrCXc+fO6cWLF16ngTbb2trSmTNnvE4DAHoWxQsP9Pf3a3Nz0+s00KU2NzfV39/vdRpdjXu4O3HvoF14RnQnnhEA4C2KFx64dOmSlpaWvE4DXWp5eVkXLlzwOo2ux33cfX75y1/q29/+ttdpoAv09fVpcHBQKysrXqeCNuIZAQDeonjhgWvXrunx48dep4Eu9fjxY127ds3rNLoe93F32d7e1qeffqpwOOx1KugSb731ltLptNdpoE14RgCA9yheeODKlSuSpE8//dTjTNBtlpaWtLm5qevXr3udSte7efOmVlZW+M1ql3j33Xd17do1nTt3zutU0CV+/OMf6/Hjx/S+6BJ3795VNBql5wUAeIilUj0yPz+vy5cv68KFC/yPEG2xvb2tyclJ2bbtdSo9oa+vT48ePdLk5KSePXumvr4+r1PCIa2srOizzz7Ts2fPvE4FXaT8jBgfH+dnq8MtLy9raWlJz58/9zoVAOhpjLzwSH9/v27fvq3x8XFtbW15nQ463NbWlm7cuKFoNMpvjk/QyMiIvvOd7+jWrVusPq0I3iMAACAASURBVNKh1tfXNT4+rkePHlGAQttdunRJIyMjPCM62Pr6um7duqX5+XmvUwGAnkfxwkM3b97UW2+9pddee40pJDi0Tz/9VK+99preeustTUxMeJ1Oz5mZmdHZs2f12muvaXl52et0cADvvvuubty4oUePHmlkZMTrdNClHj58qFdeeYVnRAeqfkYMDg56nQ4A9DymjXjs5s2bunLlisbHx/Xee+/p2rVrGhwc1MjICNNJ0NDW1pZWVla0vr6ujz/+WJL07Nkzlm/z0I9//GOFw2GNj4+rv79fb731ls6dO6cLFy7w2/xT5MWLF3rx4oWWl5e1sLCgcDis58+f83eEY1f9jDh37py+853v8Iw4hdbX17W5uamlpSU9fvyYZwQAnDIUL06B/v5+2bZd+Z/l48ePtbKywnQSNHTmzBmNjIxocHBQ0Wi00gAW3hocHNTz58+VTqf18ccfa2FhQcvLywwVP0XOnTtX+cD45MkTfpOKE1V+Rnz00Uf67LPPeEacQoODg+rv79fFixd5RgDAKUTx4hS5dOmSLl265HUap87MzEzNf4HTLBwOs5QegKauX7/OilAAABwCPS8AAAAAAMCpRvECAAAAAACcahQvAAAAAABHVFAi6JPPV/uK2F7nhW5B8QIAAAAA2sJWJGJLhYSC1R/igwkVvE7tWBWUCI5JC65ct/aVNL3ODd2Chp0AAAAA0C6pkHxrcTmuK78kyVbEF1IgKDnZaOm9LmM/0OLogrJdeXE4LRh5AQAAAADtYmXk1hQpTIUtSbm8HO+yOkYFJWal6SiVCxwvihcAAAAA0BamkvXzJOyIQinJiE/JLH3drCeEHdndM2L31BNbEZ9PwURBhUSwtD2oRN28lJ1txVewbofa7buPr9c8nqO8hhQo5VXZh2YXaDOKFwAAAADQTtU9L9Jhua6rbNQvyVYklJKVKfaDyFhSananH4aZLL4nK1PpGeHEDcmIl6acFKegpCRpcUxjWpDrOoobOcUCEdmV0wcVWByVU+49kbGUiwUqBQU74qvavvv43ZezR7zChtaG83rgSytctV2pEAUMtBXFCwAAAABoJ39U2XJhYC20M1KhsKE1GRoKFHcLDBkHnE5iKuk6ihtSbni6VBDxK7oQl6GU0rakQkJjsZys6aqpK2ayWARJzSphJzSbMhRfKG/3KzptNT/lfvGe5pVLpbRWHllSv727O5XiBFG8AAAAAIBj4Vc0Wyo2xB7I9keVdbOK+kujH2K5Q0c2yhUQSfIPaFjS2kZBcvLKVRVIdnYZlpRTPp1XTsMaqG5RYSblukk1XBhkv3j54tfDA/7G27uz0Qc8QPECAAAAAI6NXwPDkrSmjcJOX4t0uDQl5Fg0KBoEhrRztmIubYk3VPzvWn3AmvMBR0fxAgAAAADaoJCINJgmUdDGWumPTyMKpSxlXFf1fT2PduLidJTRq/5K0SCVrus34eSVk6Xw1JCMRsWIQkKJRi0q9osXvapRQ8rVByxvb+d1oqdRvAAAAACANvBHp6Sx2hVECokxxXKSrGld1ZqqRz04+cNPG8nFHlQabNoPYsoZo7rql+SPatqSlApV5VFQYjZVXPGktD0Vql1hxH6Q10CjQsN+8co9M1KhqhVIqrcD7fGS1wkAAAAAQHfwK5p1i1NDQjvvGnGn1FxTsmIhxQI+xSRZliUppZBvTXEnq4EHPoVSkhSSTxk5Q7Olvhg5BYIqrThSimlJsz6fQsUT1Gwzk66coaACIV9xZRJJVsZV1tzZnpFPoVIe5e3JJle1XzyZSbkZyRcKyBdrsB1oA4oXAAAAANBGZtKV27ASYCrp1hYJksmqr3YdZ8qNNjnJ0JSyjU8iSfJHs82P3TPHw8UrN/0EjgvFC3SEX/ziF5qZmfE6DXjoxYsXksTPgQfC4bBGRka8TgMAAAA9jJ4XOPXC4bAuXrzodRpAT/ryyy9169Ytr9MAAABAj2PkBU69kZERfusLLS0tSWLkxUlbWlrS3bt3vU4DAABIkmxFfKFi34lcQL58Rm5bly0BTi+KFwAAAADQEXb3zAB6BdNGAAAAAADAqUbxAgAAAAAAnGoULwAAAAAAwKlG8QIAAAAAAJxqFC8AAAAAAMCpRvECAAAAAACcahQvAAAAAADAqUbxAgAAAAAOpaBE0Cefr/gKJgrFt+1I6b2IIpGd7TWviF0bKRGs2V6OVfN+MKGCbEUaxSvF3L1/s3NEVM7AjuwdI1G3fef6ds5RH6PRPsBRvOR1AgAAAADQmfyKZjPK+0JKWRllo/7i22ZSGWtNG1NT0oMhOW5U/kJCwcCiRp2son7JTiRUkCm/ikWFwOKoHDcrv1T84B8KyJfPyE1mlcn7FFqLy8lG5ZeUdDOSL6S1uKNs1C874lNIGblJU5IpR6V4pf2LIX2aHXLkun4Viy4BhYJDcrJRmUlXGe0VI6qB+u3xtZpz+BvFqNsHOAqKFwAAAD1ga2tLKysrXqeBDva73/1Of/zjH7W0tOR1KqeMqam4oVQsLTtpypQk2UqvjWrK75c/GW18VLT0fiGhsVhOVia78wHfTBY/+MdmlZgydXXIkNaOkGIhodmUpWm3fAa/otOWYqGYHthRJc2DBrT1IJaTjNEj7gO0juIFAABADxgfH9eLFy905swZr1NBh/rtb3+rra0t3b171+tUTh1/dFpWLKS0nZRpSrLT0nSytdEGTl45GRoN1MUcGJaUUt6RrkpSLi9HKo3UmFVKklF9QCokX6rq6+qigZNXTimFanYoWtsoSKZ//xgVBSWCaQ3FDWmx2UW1sg9wMBQvAAAAesDW1pYePnyoS5cueZ0KOtT3v/99/eIXv9CzZ8+8TuVQfD7fMUYvjr4IzCY0ZV7V01kpnD3I8Tnly5WJssBQpThRLmSUiw9GPC5LudrBGFZ5ukZ5GkrdKYz4/tM39ouhDSWCs9JCVlefBhVrGKSVfYCDo2EnAKBic3NTX/va1yoNti5fvqylpaWaZmBvv/2212kCAHDq+KPTsnIxPUg81eJwWC3PxCgVKVLp2gaexdESlsKmJDMp13Urr2x04GDJBYZk5Bb19KhdM1OL0kKxZ8eR9gEOgeIFAKCiv79fExMTe+5z586dE8oGAIBOYipsSanYokanGpQunLxyjQ7zRzVtSUqFtLMASUGJ2ZSM+FTrRZC9+KOatnKKBXZWGJGKoyvqFj3ZmzW9f1GilX2AQ2DaCACgxu3btzU3N6ft7e1d28LhsEZGRjzICgCA08+cistYk67Wf3gvJBQMFad8xAI+xaqmZ0iSmXTlDAUVCPlUbjlhZVxlG1UuCgkFA7FiISQWkK8yLyMknzJyhmYViOUk5RQIqjJVpLKiSFVTCyPuKGsWVyIpptc4Rnw4plhpe3DI0YLGdp3DqYrRbB9qGjgKihcAgBrl0RfxeHzXNkZdAACwt+HRq7s/pPujyrqNVx3Z2SWrfXZpMZbZNI6ZdOUmW3m/PkZU0Zrtu3P174rR4vUALWLaCABgl9u3b6uvr6/mPUZdAACwt8JTKcycCeBYULwAAOzSqPcFoy4AANiLrQf5gfb0qACwC8ULAEBD1aMvGHUBAEBjhUSwtCJXWuEkpQvguFC8AAA0VD36glEXAAA05o9mS0uYJhl1ARwjGnYCAJq6ffu2Xrx4wagLAAAAeIqRFwCAhra3t3X37l395je/UTqd9jodAAAA9DCKFwCAXTY3N2Waps6fP6/l5WUtLCxoZmbG67QAAADQoyheAABqLC8vyzRN3b9/XxMTEzpz5oyePHkiSXr77be1tbXlcYYAAADoNRQvAAAVc3Nzeuedd2Tbti5cuFCzbWZmRmNjYzJNU+vr6x5lCAAAgF5E8QIAoO3tbU1OTmp1dVW2bau/v7/hfuFwWPPz8xofH6cPBgAAAE4MxQsA6HHV/S0ePXqkvr6+PfcfHByUbdv0wQAAAMCJoXgBAD2svr9Fq+iDAQDA4RQSQfl8voaviC3Jjux+r8SOVO0fsWtjBRMqtLhPbQ5BJQqV7JQIVh+fqPvarsovInvX1QHH5yWvEwAAeGNubk6PHz/ec5rIfmZmZpROp2Wapubn5zU4ONjmLAEA6C7+aFbuQETBjSllo35JtiK+kNbijpKmrYgvJSvjKmkWCxGh2YSmzKj8ksykq4x8CikjN2lKMuUoqMDiqJxscR9/C/somi2+FxtWxk3K3MlO0awjBQOKDZePj2og4lMoZSg+ZUr+gOKGNJCtPg44fhQvAKDHbG9v69atW5Ik27b3nSayn3A4rMHBQY2Pj+v27dsKh8PtSBMAgN5T2NCaDI0Gil8GhgwplZcjFYsOHjGTjuJrAcXGEtLworSQpXCBE8e0EQDoIQftb9Eq+mAAANC6wsZa4w3+qLJuVlF/cdRFIJZrvF8qVJnKcaR9lFKoMn1kr2kgfkWzGVm5mBaHFhT1spKCnkXxAgB6xGH7W7SKPhgAALTGyec0PNC4AlDuWZEOu3LiRuMAVkau68p1j7iPLGVcV66bkaWUQqWeGA0VNiTDUC4WqOnDAZwUihcA0APm5ub0zjvvyLZtXbhw4VjPNTMzo7GxMZmmqfX19WM9FwAAnaegjTVL4UbzLuyIQqliQSF5ovMyTIUtSbniFJUGiSkyJk1ls8pYUipEs06cPIoXANDFtre3NTk5qdXV1SM15jyocDis+fl5jY+PK51On8g5AQDoCPYDxYbDDXtGFKeTrGmjNPzByTeb7tH2pJROSTKGFNidlRLBtMLZctNQR3Fjn1EawDGgYScAdKnNzU3duHFD165dO5ZpIvsp98EYHx/XysoKvTAAAD2vkAiW+k+k5EvVbYwFNBaPy1JMsYBPMUmWZanYl2JNcSergQc+hVKSFJJPGTlDs6V4OQWCkpONyonsv48qeeQUqiRiKZO9qqfBgIqbisdnFCp+HQnLTZoqJMaKXytWiUcLDJwEihcA0IWWl5c1OTmpR48eHfs0kb2U+2DMzMzo7bff1vz8vM6cOeNZPgAAeMnJ52TEndISqbUKiaAC+QFlXVfJqveTyaqvkq7c6o0y5UZr4/hb2EfR7O73yntnXdVuqo3n3+NY4DgxbQQAusxJ9rdoVXUfjJWVFa/TAQDAG0NxLTRZqsMfXVB86ITzAToIIy8AoEtsb2/r1q1bkiTbttu2DGq7hMNhDQ4Oanx8XNFoVNevX/c6JQAATpQZ3WvIgl9R1iAFmmLkBQB0gc3NTZmmqfPnz+vRo0enrnBRNjg4qGfPnunjjz+uFFoAAACA/VC8AIAOt7y8LNM0df/+fU8acx5UX1+fPvzwQ509e1aXL1/W1taW1ykBAADglGPaCAB0sLm5OT1+/PhEl0Ftl1gsppGREV2+fFnz8/MaGRnxOiUAAACcUoy8AIAOtL29rcnJSa2urnZk4aLs0qVLevLkiSYnJ/XRRx95nQ4AAABOKYoXANBhOqW/RavOnTtHHwwAAADsieIFAHSQTutv0Sr6YAAAAGAv9LwAgA7Ryf0tWkUfDAAAADTCyAsAOOW6pb9Fq+iDAQAAgHoULwDgFOu2/hatog8GAAAAqlG8AIBTqlv7W7SKPhgAAAAoo+cFAJxCvdDfolX0wQAAAAAjLwDgFOm1/hatog8GAABAb6N4AQCnRK/2t2gVfTAAAAB6F8ULADgFer2/RavogwEAANCbKF4AgMfm5ub0zjvvyLZtXbhwoX2B7Yh8Pl/NK2K3L7yXYrGY7ty5o8uXL2tlZcXrdAAAAHDMKF4AgEeOs7+FHfHJF1pT3HHluqWXE9dayCdfMKFC287kHfpgAAAA9A6KFwDggePsb2FHfAqlDMWdrKL+qg3+qLJOXEYupkCXDMGgDwYAAEBvoHgBACfsePtb2EqnJBmjuupvsNl/VaOGpNSsEoXSCA1fg1fEbjjtpNHUk0IiWLU9ovLmPWO3EX0wAAAAuh/FCwA4QcfW36LMTqtYu7iqRrULya+ro4aknPJOQRuKyylNKTFkVKaZZIY2VDCTcuKGJEuZ0tQTJ24oFaotUIxpoTQ1xVHcSCkUTKigfWK3/8rpgwEAANDFKF4AwAk4zv4Wh7W2IUWT0YZFDjPa+H0nn5OMIQUkqZDQbMrSdGVuil/RaUvKxfTA9h84djvQBwMAAKA7UbwAgGN2nP0tmsnlnX33GR5otYSQUqg05WN2yJGbLRUfnLxyVdt8Pp98oZQkaW3Du5ag9MEAAADoPhQvAOAYHW9/iwYCQzIkaa351Awnn5NkaCjQatCdaSPT+YB8vqAS5eBGaWpI3SsbPa6xFa2hDwYAAEB3oXgBAMfk2PtbNOKPatpSaepGg+2FhGZTkqxpHaa+YE7FZSinxaeFYqEkt6inp3jdVfpgAAAAdAeKFwDQZl73tzCTjuKGlApVjZCQpEJCwUBMOSsjN2nWHuTklWshduHponIqTTnxRzVt5RQL7DTwLJ4mWLsiSYuxjwt9MAAAknTmzBlG4gEdjOIFALSRF/0tdvMrmnXlZoYVC1T1owjENJxxdxcuCgkFQylJueL+5cqDHVEgllN1z4tALCcj7qgcwky6yli1fS/GtFDZ3jT2CaMPBgCgv79fm5ubXqeBNnrx4oXOnTvndRo4IRQvAKBNTry/xX7M5K5eFPV1C0mSP6ps9X47lYldxzfqZ2Em99jeLLYH6IMBAL3t0qVLWlpa8joNtNHS0pIuXrzodRo4IRQvAKANPOlvgUOhDwYA9KaxsTEtLCx4nQba6OOPP1Y4HPY6DZwQihcAcARe97fA4dAHAwB6z4ULFzQ4OKgPPvjA61TQBu+++66uXLmikZERr1PBCaF4AQCHdDr6W+Cw6IMBAL3n4cOHeu+99+h90eHW19f1+PFj3blzx+tUcIJe8joBADhJm5ubWl9fP3Kc//7v/9b09LQePXrENJEOVu6DEY/HdfnyZf3DP/yD/u///s/rtI5FX18fP6sAet6ZM2f08OFDmaapDz/8UIODg16nhANaX1/X+Pg4vzjqQRQvAPQU0zTV19d3pP/Z/elPf9Kvf/1rvf/++3wY7BKxWEyff/65/vZv/7Zru5avr6/r0aNHzA0G0POuXLmiM2fO6MaNG7p27Zp+/OMfe50SWvTuu+/q8ePH/PKoR1G8ANBTtra29OzZsyN/QN3c3NSNGze0ubl5OlYWwaFtbW1pfHxc58+f1z/90z95nc6xGR8fZ4UVACi5cOGCnj9/rrt37+ob3/iGwuGw3nrrLa/Tapv//d//1Z/92Z95nUZbbG9v67PPPlM6ndb169f1/PlzRlz0KIoXAHAI/f39sm1bt27d0uTkpB4+fMj/SDtQeejp7du3GZEAAD2mr69P9+/fVyQSUTqd1t27d71OqW1yuZwMw/A6jbbo6+vTd77znbb88gmdjeIFABxSX1+fHj16pLm5ucrcWVYb6RzpdFrvvfee5ufnmfMMAD3s3LlzisViisViXqfSNj6fT8+ePfM6DaCtWG0EAI5oYmJC9+/fl2maWl5e9jqdzlZIKOjzyVd6RezjOc3MzIwWFhZk2zaFCwAAgA5A8QIA2uDChQuybVvvvPOO5ubmvE6nMxUSCo5JC64r13XlxA2lQkElCu07xdbWlt5++21J0pMnT3TmzJn2BQcAAMCxoXgBAG1S7oOxurqqyclJbW9ve51SZ3Hyyg0PyF/60h+dlqWcFp+2p3qxvr4u0zQ1NjammZmZtsQEAADAyaB4AQBtVO6Dcf78eZmmqc3NzSPFsyM7Uyh2vYIJVX+sLySCNduDlSELtiLNYkRsSQUlgg2OsyOl9yJKVMcOJlSoi1k+pjaHiOxG1xGxa/crX0dgSEYqrZ2ZIgENtanXWDqd1vj4uObn52nMCQAA0IFo2AkAx2BiYkIjIyMyTfNIa5GbSVcZ+RRSRm7SlFQsEAQWR+Vko5VRCpX33GzxPTsiXyggX754XNLNSL60wm5SporFhOqY0WxGeV9IKSujbNRfPrky1po2ppKK+qWBvE+htXjlvMWYIa3FHWWjftkRn2aHHLmuX8WCSECh4JCcbLTBdZhyVHcd/qiybtXFF55qMWdodMGvo5iZmdHq6qps22aaCAAAQIdi5AUAHJMT64NRSGgslpM1vVPMkJmUEzek1GyLPSNMTcUNqWbkg6302qiuloIG9hoGUUhoNmVpOlqZ9KHotCXlYnpwyKab9oOYFF9Q9JC1C/pbAAAAdA+KFwBwjE6kD4aTV06GhgK1b/sHhiXllHdaC1PsMZFSujLXIy1VF0QkKZdXOVwhMatUTQ4phaqnpISKW9c2qqonqVBleyCWa55MIaFZVY0COSD6WwAAAHQXihcAcMza3QejsQZFisCQDtYyojj6IjWbUEEFJWalsLmztVgM2SlQjGlUVvXhRlxOaaWQ6ldNAcLKVN534s2zKzyVppNm0+17ob8FAABA96F4AQAnZGJiQvfv35dpmlpeXm5f4FKRIpWum5/h5JWTVVOA2I8/Oi0rF9ODxFMtDodVc6iZrCtKDNTmkFtUexYGKeipBnSY0sXMzIwWFhZk27YGBwfbkQwAAABOAYoXAHCCjqUPhj+qaUtSKqRIpX5RUGI2JcNYUyiYUKGwoTVjSIE9whSZCltSKrao0akDVT00beUUC0RUXUIpJIJVObUcTNHowUoX9LcAAADobqw2AgAnrNwH49atW5qcnNTDhw/V19fXcF874lOxdURIPmXkDM2WekXkFAiqslKHmXTlDAUVCPkqfSisjKtsIKFgIKZAoPi1X7YivlBpn2JMt256hjkVl7GmSqPOhgrFuDlJigUUlKNseUURX6UThoy4o6zZ+nUUQwcViOWKx7bQ82J9fV3j4+O6ffs200QAAAC6FMULAPBAuQ/G3NycTNPUhx9+qP7+/l37mUlXbrLmHbnRxjH90WyDbVFla940lXRdJet3qzM8elV7lg389XGb5dvs/YNeR2PpdFrvvfee5ufnmSYCAADQxSheAICHJiYmNDIyItM09ejRI124cMHrlFR4KoUPuz7pCZqZmdHq6qps22aaCAAAQJej5wUAeOxY+mAcmq0H+cM1yzwp9LcAAADoPRQvAOAUKPfBWF1d1eTkpLa3t0/0/IVEUD6fTz5fWuFDLlF6EtbX12WapsbGxjQzM+N1OgAAADghFC8A4JQo98E4f/68TNPU5ubmiZ3bH82WlkBNntpRF+l0WuPj45qfn6cxJwAAQI+h5wUAnDKnsQ+G1+hvAQAA0NsoXgDAKVTug3Hjxg1du3ZNExMTXqfkia2tLY2Pj+v8+fN68uSJ1+l0lPX19ZrRO5ubm1pfX9fS0lLlvcHBwYar3AAAAJw2FC8A4JQq98G4deuWJicn9fDhQ/X19Xmd1olZX1/X+Pi4bt++zTSRQ1hfX680Ni379NNP9d5770kqTlP64osvvEgNAADgwOh5AQCnmJd9MLxEf4ujC4fDGhkZabp9YmKCURcAAKBjULwAgA4wMTGh+/fvyzRNLS8ve53OsZqZmdHCwoJs29bg4KDX6XS0O3fuNHy/r69Pt2/fPuFsAAAADo/iBQB0iHIfjHfeeUdzc3Nep9N2W1tblWkOT548oTFnGzQbfcGoCwAA0GkoXgBAByn3wVhdXdXk5KS2t7e9Tqkt1tfXZZqmxsbGNDMz43U6XaV+9AWjLgAAQCeieAEAHabb+mDQ3+J41Y++YNQFAADoRBQvAKBDdUMfDPpbnIzy6AtGXQAAgE5F8QIAOlin9sGgv8XJKo++YNQFAADoVC95nQAA4GjKfTBu3bqlyclJPXz4UH19fV6n1dT6+rrGx8d1+/btUz1N5MWLF0qn09ra2tJvf/vbjp+e86c//Un/9m//psuXL3udypEMDg7qlVdeUX9/v8LhMMUYAAB6BMULAOgC5T4Yc3NzMk1TH3744an8UJdOp/Xee+9pfn7+1E4TKRdXNjc3FQ6H9fLLL+utt946ld/PXrS+vq7NzU2trq7q7t27unLlih4+fMjoHQAAuhzFCwDoIhMTExoZGZFpmnr06JEuXLjgdUoVMzMzWl1dlW3bp/aD5rvvvqvHjx+fuu8ddly6dKny50ePHumDDz7Qa6+9pocPH+rKlSseZgYAAI4TPS8AoMuctj4YndLfwjRN/eEPf9Dz588pXHSQmzdv6tmzZ0okEnr33Xe9TgcAABwTihcA0IXKfTBWV1c1OTmp7e1tT/JYX1+XaZoaGxvTzMyMJzm0Ym5uTufOndP9+/dPdb8QNFb+ef/44487duUdAACwN4oXANClyn0wzp8/L9M0T7zhZDqd1vj4uObn5099Y85EIqGHDx96nQqOaH5+3tNiHQAAOD4ULwCgy01MTOj+/fsyTfPEfis9MzOjhYUF2bZ9ahtzlnXCCi1ozeDgoK5du6a7d+96nQoAAGgzihcA0ANOqg9Gp/S3KNvc3NTKygqNHrvIzZs39cEHH3idBgAAaDOKFwDQI467D0an9LeotrS0VLN6BTpff3+/+vv7tbKy4nUqAACgjSheAEAPOa4+GJ3S36Le+vq6vvnNb3qdBtqsv7//xHu8AACA4/WS1wkAAE7exMSERkZGZJqmHj16dKSlQWdmZrS6uirbtk/9NJF6//mf/6nz5897nQbajOIFAADdh5EXANCjjtoHo9P6WzSyvb1No04AAIAOQPECAHrYYftgdGJ/CwAAAHQuihcA0OMO2gejU/tbAAAAoHPR8wIAIKm1Phid3N8CAAAAnYuRFwCAimZ9MLqhvwUAAAA6F8ULAECN+j4YKysr9LcAAACApyheAAB2qe6DQX8LAAAAeI3iBQCgqYmJCf3qV7/S4OCg16kAAACgh1G8AAAAAAAApxrFCwAAAAAAcKpRvAAAAAAAAKcaxQsAANqmoETQJ5+vxVfE9jphAACAjkDxAgCAtvErmnXlZixJhuKOK9ete1VvS5peJwwAANARKF4AAAAAAIBT/5ZnwwAAIABJREFUjeIFAACnQCERrJlSEkwUSltsRfacdlI7VaVynB0pvRdRojp2MKFCXczyMbU5RFSe1GJHas9Z2BVv9z4759/Zp/G17pwHAACgmZe8TgAAgF5XSAQVWByV42bll4of/EMB+fIZuUlTSTcj+dIKu0mZKhYKQspUpp1EsxnlfSGlrIyyUX8xqJlUxlrTxlRSUb80kPcptBaXk43KL5VihrQWd5SN+mVHfJodcuS6fhULIgGFgkNyslGZSVcZVZ/TlKNSzqV4/kb7xNdq9lEp92bn8QsAAKAxRl4AAOClQkJjsZys6aoP72ZSTtyQUrNKFPY6uHKApuKGlEpXjWKwlV4b1dVS0MCQsWcOsylL0+XCh/yKTltSLqYHhx4WYetBLHcC5wEAAL2A4gUAAF5y8srJ0FCg9m3/wLCknPJOa2H80WlZSildmeuRlqbrRjPk8iqHKyRmlarJIaVQ9ZSUUHHr2kZV9SQVqmwP1BcmahSUCKY1FK8rmLR6HgAAgDoULwAA8FyDIkVgSHuMlWigOPoiNZtQQQUlZqVw1WImxWLITuFgTKOyqg834nLqV0Zx3Z1pKJJkZSrvO/WFiYoNJYJj0kJSVxttbuU8AAAAdSheAADgpVKRIpWumzfh5JWTVVOA2I8/Oi0rF9ODxFMtDodVc6iZrCsWDNTmkFvU03YMfkgtSgtZNaxFtPM8AACgp1C8AADgWLQ45cMf1bQlKRVSpFK/KCgxm5JhrCkUTKhQ2NCaMaTAHmGKTIUtKRVb1OjU/2fv7mLbSvM8v/8OUDPRzE0L2wFaAwymVdOkR01oUcpeyWQSW0CQ9mFtxhSS2BYQtKxgQNpIFqQvHJexCsraEeAq+EKHwGZkEgiqlACxSwjGMjAm3UEAyRekdbM9qoHCcXQYmAZ602og6VFPZwGl0zsnF3ynSImSKJ1D6vsBiBmdl+f8T1XbZf78PP/nWKmH5qN5JfzNO38Uk6GGmroUnW8fXPT6OQAA4EJhtxEAAHqmvHtGtR1EOmwoHazu8NF8LuE3lIiWd+YwU47sQEj+sFHrQxHNOMr5kwr5E/L7yz/7lFXMCFeuCcto2HGkyrxvKbitWqPO9mWWx82XC1FItnLV3UKMWicMBS1bObOyu0m6/kw7sFjpeZGXPyTZubjshmtCAVsrmj1wjU+q71zS5jkAAACdEF4AANAzPsVzjuLHPif54jk5B07GlWs6aCrlOEodUcX4jU8P33bU1zpuZfSUI6fN4AePmwdq9R24pt37HP4cAACATlg2AgDAACm+kiI0vwQAAAOG8AIAgIGR1ZPCJbECAwAADBrCCwAA+lwxGZJhGDKMNUVSRBcAAGDw0PMCAIA+175fBgAAwOBg5gUAAAAAAPA0Zl70gf39fa2trendu3f69ttvtbe353ZJ8KDh4WF98sknGh0dVSQS0fDwsNslAQAAAEBPEF543BdffKEvv/xS165d05/8yZ9odnaWL6Voa29vT1tbW3rz5o0ePnyoeDyuzz77zO2yAAAAAODUCC886t27d5qbm9PVq1f185//XENDQ26XhD4QiUQklWfrLCws6PLly/rqq680NjbmcmUAAAAAcHKEFx60ubmpu3fvanl5WZOTk26Xgz40NDSkx48fa3NzUzMzM1paWtLVq1fdLgsAAAAAToSGnR6zv7+vu3fv6tmzZwQXOLXJyUm9ePFCd+/e1f7+vtvlAAAAAMCJMPPCYxYWFnTz5k2m+aNnRkdHFY/Hde/ePS0vL7tdDgAAAHpsY2PjyGPMwkW/Y+aFh2xtben169c0WUTP3blzR1tbW9rc3HS7FODCKyZDMgyj9gkli5KkbMxoOl77xLKqXND2fPX0wbFjqp467tiNY/b8PQAAPZdMJjU1NVX7SGr6OZlMulwhcHqEFx7yzTff6ObNm26XgQEVi8WUSqXcLgO40IrJkPyrN2Q7jhzHkZOJKp/wy4gltSOrfNy2FFRQll2+JhPYUVGSzJRsKygpqkzlftsKKh0uhxTZmKFZrZTHdWxZwbTCoaSKKh4xdlaxcFrRTOVYVEovJsvPPIv3AAD03Oeff36q80A/YNmIh6ytrenFixdul4EBNTk5qS+//NLtMoCLq5jUbCKvaCYnX/WYmZJtbcufWJXshuMNzHi845B2IS8Fb8hfTGo2HdW8Ux3Bp/h8VIlwQk+ycaVS7ccw43GpmNS2grrhLx/zB4JSuiBbalvPWbxHr/3yl7/U2tqaSqVS0/E3b97oypUr51YHAJyXiYkJRSIRra2tHTgXiUQ0MTHhQlVAbzHzwkN2d3c1MjLidhkYUGNjY3r37p3bZQAXl11QXkEF/M2HfZfGJeVVsLsdKK1wZSnGYsCWk4vLZxeUbzhuGIaMcFqStL1zxHwHX1w5J6e4rzx7w5/In9N7nJ3f/OY3bY9fuXJFt2/fPudqAOB8dJpdwawLDApmXnjI3t6ehoeH3S4DAHBmKl/uG6cm+AMKHmuMqDJOSqaq/SWCsqxxKWjJzsXbz5Y4QjZmKJyWohlHdiAkf+KoO3rxHmdnZGSEoALAhdNu9gWzLjBImHkBAMB5qHy5T6+1NK60C8orqoh5/CHN+5aCymu1IAXzq3p1kqYS2ZjC6XIfjVQ3NZzBewAAeqN1lgWzLjBICC8AADgPvrjmo5LS4YbdPIpKLqYVtO6r9p3fLuiIhRs1xVeryksaj6Q0H80r4a/vMCKVG2s2bfLRZuzizrakbVVXl9iFI55+Bu8BAOiN6uwLiVkXGDyEFwAAnBMzVd0hpNqbwq/CvKNcvLL+ophUKJyWlFfC37K9aDZW6UdR723hT+QVtGylzPLYmWhz34tZrdRnU3QY2xefV7R6zDC0pmjlGSElO8zkONV7AADOVHW2BbMuMGjoeQEAwDnyxXNyOm284Ysr1+mkmZLjHL7dsZly1PGSjmObSjmOGm/rZlvlE78HAOBMjY2N6cc//rHGxsbcLgXoKWZeAAAAAMAAKJVKmpqa0u///u/LNE3t7u66XRLQM4QXAAAAANDnNjY2ND09reXlZS0vL+vx48cyTVObm5tulwb0BMtGAAAAAKCPWZally9fan19XcPDw5KkyclJZbNZzczM6ObNm7pz547LVQKnw8wLAAAAAOhD+/v7mpmZ0YcPH5qCi6qRkRFls1l9++23unv3rvb3912qFDg9wgsAAAAA6DPV/hbXr1/X0tJSx+uGhoa0vLysTz75hD4Y6GuEFwAAAADQRxr7W9y6daure+7cuUMfDPQ1el4AAAAAQJ9o19+iW/TBQD9j5gUAAAAAeNxR/S26RR8M9CvCCwAAAADwsG77W3SLPhjoR4QXAAAAAOBRJ+lv0S36YKCf0PMCAAAAADzoNP0tukUfDPQLZl4AAHCWiknFklklQ4YMo/yJZRvOZ2O14wfOKatYw7nqJ5QsHriv8f5srOFY+UD951BSRbVcY7Rc31R+qOF8TNlD6mq+/5DaAQCH6lV/i27RBwP9gPACAIAztp1YlFYcOY4j2woqHW4IAcJpRTPlc5molF4shwtSUclQWGlFlXEcOU5GUUlBy1Yu7pPMlGwrKNXO18dWqjyWohk5KbN+bdCSnYvLp6J2ZMl2HDm2paCCsuxKDYEdVeOFbMzQrFbkOI4cx5YVTCscSqooUykno2jDs5ued1TtAICOet3folv0wYDXEV4AAHCWfHHlnJyq39ntQl4KBuSXpOKOthVUwF8+5w8EpXxBduP90YjMLh/VNHaTrJ4k8o1FKZ6Kq12MYMYrx4tJLaajmq+FDT7F56NSPqEn2TY3tnOM2gEAZ9vfolv0wYBXEV4AAHAeKks31iKOnFwlIGgINrIxQ/6WgOHTG0EpHW5ZStIqrXBlScZiwK6PXVNUMrSmgBU8Xr12QfmGsQ3DkBFOS5K2d45a+tFt7QCAKsuytLCwoPX1dU1MTLhaS7UPxsOHD/X06VNXawGqCC8AADgPZkqO4yiy1tg7ot57Yi3iVJaB1PniOTm2pe2wIcMIK9124PrSjfmCX4YRUr2txI6SoVlpJaVPT1JzsLK0pOXTzdKP7moHAJx3f4tu0QcDXkN4AQDAOTLvWwoqrbWspGxM4XQ5fEh1WF+RfZJQXlFlKn0jjh47r9VXlfQivSqt1JesHIs/oGB+Va9O0V/zOLUDwEXkVn+LbtEHA15CeAEAwBkqJkNNSyeKr1aVr/S5KO5sS9pWdRWGXcgfuDecDsqyU131jiiPLY1fqqQV0fmjgwu7oHy747645qN5Jfz1WSJSZaZIKKlicUfbbftrnKx2ALhovNDfolv0wYAXfOR2AQAADDJfPKdIzJARrh+LZpxyqBCfVzQRVsJvKCEpGo2q3MMi3XJtVrHq0ouEXyHZyl16UumRkW+6PmjZiqwZKrenCCsUsLWi2dq1/pAqO45IKiYVqvSxSPgNJWq7hZSZKUcZGc3jR6MK5hPy+8u1+dRQm8IyZMnaTiiRP6R2dhwBcMFZlqWXL196apnIUap9MGZmZnTz5k3duXPH7ZJwwRBeAABwxsyUIyfV9oxSjqPGU6lUuwsPXiel5LQfVFLr83Jy4m0u88WVa3ui4cntam+qsV1tccUPPQ8AF9P+/r7m5uY0MjKi9fV1t8s5tmofjHv37unu3btaWlrS0NCQ22XhgmDZCAAAAACcMa/3t+gWfTDgFsILAAAAADiWopKhhq2kj/r8J1/2TX+LbtEHA+eN8AIAAAAAjsWneM6Rk4lKCsqyD24rXT03/c+XdPX/ea319XVNTEy4XXhPVftgPHz4UE+fPnW7HAw4wgsAAAAA6LH93/xbSTv65b/+0FeNOY+r2gfj22+/1d27d7W/v+92SRhQhBcAAAAA0EOlUklTD/5K0j/S9D9v7m9RTIaalpSEkpX9spVVrNOyk1hWrUtVavdlY5VjMSUbxw4lVWwZs3pPcw31LbGzseZnFg+Md/AaZWP6vd/7PT19+lRP/5f/W1PhcK0PRqfnACfBbiMAAAAA0CMbGxu6d++evvpn/77+vf/6503nismQ/Ks3ZDu58pbV2ZiMsF9GobxVdcrJSMaaIk5KpspBQVj1bazjuYwKRljpaKa+7bSZUia6rZ37KcV90qWCofC2VdsWuzxmWNtWeavqbMzQYsCW4/hUDkT8CocCsnPx+hbZtWeaslWpuTKer9011nbtmv9rc1OmaerHo1v6n6+2fw4bZuMkmHkBAAAAAD1gWZYWFhbK/S3++LvNJ4tJzSbyis43fHk3U7KtoJReVG0CxqFM3beCUnqtYRZDVmvbN/RpZVB/INj59mJSi+mo5qvBh3yKz0elfEJPTjwtIqsniXztp8nJSWX/YlqP1v5A/+Tf+V97+BxcdIQXAAAAAHAK/9//u6+ZmRl9+HBIfwu7oLyCCvibD/sujUvKq2B39yxffF5RpbVWW+uxJs23zGbIF1QdrphcVLqphrTCjUtSwuWz2zsN6Uk6XDvvbwgmDioqGVpTwGoOTEb2/rX+Xj/Xv7x79/DnAMdAeAEAAAAAJ7av/+6/mNL169e1tLR0xLVtQgp/QIfMlWijPPsivZhUUUUlF6WIWT9bDkPqAcWsbijaeHvQkt26M4rj1JehSFI0UztuW52q21EyNCutpPRpu9OV5ywvL+vq1av6+c9/fvA5wDEQXgAAAADACWz8zf8p6X/Xf/4vlnXr1q3DL66EFOm1lnUTdkF5RZsCiKP44vOK5hN6knyl1fGImm41Uy2hxKXmGvKretWLyQ/pVWklp7ZZRMNz7ty5o8ePH8s0TW1ubvbgwbioCC8AAAAA4Jgsy9K/+J/+laR/o199NHH0Db645qOS0mHFavlFUcnFtILBbYVDSRWLO9oOBuQ/ZJgyU5GolE6s6sb9Y6Uemo/mlfA37/xRTIYaaupSdL59cNHmOZOTk8pms7r34x/pP/hnT4/5IKCM3Ub6Urlb76HLzxpF6x2KAQB1Q0ND7EcPADiW/f19zc39Z/r5m1d6U9lMJB02lA5Wd/ho/rN6wm8oUfnzuJlyZAdC8oeNWh+KaMZRzp9UyJ+Q31/+2aesYka4ck1Yhg7+ed68bym4rVqjzraK5XHz5UIUkq1cdbcQo9YJQ0HLVs6s7G6Srj/TDixWel7k5Q9Jdi4uu+GaUMDWimYPXOOT6juXNDxn8sm2xv+Pf6m7d+9qaWlJQ0NDJ/y3gIuI8KIv+RTPOYpnYzLC27LsNtO1DjsHAJAkfe9736vtRY/Bsbe3175ZHgCcUqlU0szMjOLxuG49+6sOV1X+rN7pbDwn58DJuHJNB02lHEepI+oZv/Hp4duO+lrHrYyecuS0GfzgcfNArb4D17R7n8Oes6ynT5/KNE09e/ZMIyMjh70BUMOyEQDAhTU6OqoPHz64XQZ6bHd3lz8MA+i5jY0NTU9Pa3m5i/4W56D4Sor06d9S0gcDJ0F4ccEUk6H6dkWGoVDDhtKt5xo/sewh5xsWyHUaPxtrP24391YG6LKuyvq96vWhpIpt7u9mTd+J3+WQWtuPXV9zeNyxj702EUCTq1evamNjw+0y0EO7u7sqlUqanJx0uxQAA8SyLC0sLGh9fV0TE130tzhzWT0pXFI/Lwyv9sF4+PChnj6lDwaORnhxgRSTIflXb9S3RspElU/4a1+MffGcnExUQcuudCfOKKryGriUWT5f3iopqkytg7EtSzsqHjp+UjuqbMlkWwoqKMsuX5MJHHVv5du5mTrwbNsKKh2OyW6qKyVTRSV3IuVxcvHymsFwWtFM5ZlRVbaWOsk/q6Pf5bBasyoHFLNaqf/zC6bLDZpUPGLs478HgMONjo5qdHSUAGOAPH/+3BN/IwpgMOzv72tmZkYfPnzQ+vq660vS6n8BtqbIAPS0GxkZUTab1bfffqu7d+/ShwqHIry4KIpJzSbyis7H6+viql+y04tKnvgbsE/xVFy+Q8dfle7H267HM+NH3du5NruQl9p0Yy4mZ1W41PCbeXFH2woqULnQHwhK+YJat9huGODk79JhyFqtxaQW01HN16b4+RSfj0r5hJ5kK/8sO4193PcA0JXl5WXdu3ePPzANgFKppFQqpcePH7tdCoABUCqVNDU1pevXr2tpacntciRV/rLRceQ4qb6eddFoaGhIy8vL+uSTT2SaJr2o0BHhxUVhF5Rv+OJb5bs0LimvQuUbcHFn+0zHP/29aYUrSyYWA3ZlZkXzuVmtqCmI9sWVc8qNS7Mxo9IN+YzepUmbWu2C8g3HDcOQUW7XrO2dIxKk474HgK6MjY3p5s2bWlhYcLsUnNLc3JyWl5fpXt/B+vq6rl696nYZQF/wWn+Li4A+GDgK4cWF0uaLtz+gYMOPdiGv8Usnbfxz9Pinv7e+FGO+4JdhhBpmZkSVcTIaT/ib+2Wo3ktiLeJUlnSc5bscUuuOpKBVX47S8Ml10XDp+O8BoBufffaZtra29PDhQ2Zg9KG9vT3Nzc3pypUrfDkHcGre629xcdAHA4chvLgoKl+802stHR7tgvKKKmJKUlE729X//yzG7+295n1LQeW1+qoxqDB13woqn3hSa4KpbEzhdDlI6Gpp4GnepYNarQUpmF/Vq5Ms0znuewA4lmw2q+985zu6fPkyf+PTR16/fq3Lly/rypUrevTokdvlAOhjXutvcVHRBwOdfOR2ATitygyBo/7S3hfXfDShcDqsWKT65beo5GJaQcsur5nLPlFiPCLnJGV0M75UCQCkGye5t0Xx1arykqKXfNJO43DziibCCsciclJmbSnMTlEyfZX+Exo/m3c5qtZIShEZCvtjutSwVrGYDOnJpVw9lGgz9rHfA8CxffbZZ4pEIpqbm9P+/r6uXbum733ve/zNm8dsbm7qF7/4hdbW1jQ2Nqb19XW2RgVwKqVSSTMzM4rH4ywT8YBqH4ynT5/KNE09e/aM3+chw3EcxzAMOc6JvrL2hdHRUUnl35SOqzoN9fbt223PVxv5vH///lQ1SlL3/x6KSob8amp5ELRk5+LytTsXzcipfCsuJkNNvRKimfKX89bjrYKWrRXNNlxT3dmjpbIO41dOKuRPKF8/WavryHuzsVpviK7qql0fVcaJaM0Iq3p3NBpVOp2WFJRll3tItHPidzmk1urSkGzMUOMljec6j51V7ATv0aiff61Xp4KfdleIjz/+WOvr67XfF4BOtra29Pr1a/3iF7/Q1taW2+WgweTkpL73ve8pEolcmF/Lh/53Q1LbPxvosOuPfkZbLf/txsXyZ3/2Z3rz5o1se7DahW9sbOjevXv66quvCKs9aHNzU3fv3tXy8jLbYJ9CP38P+J3f+R2tr68TXhzFm+FF72Vj5aaS7f5gU0yG5C/M84eVAdDN/8Y2NjY8uWa8F+HFu3fvNDU1pb/4i7/Q9PR0r0oDgLPVGmofFlpXrh1vCNxroURXwUNWMWNNkZbZgf6Eug7KMbi8HF68fv1aV69ePXbDXsuy9PLlS7148YJlIh62u7urmZkZ3bx5U3fu3HG7nL7Uz9/5q+EFPS9QFrC00uFPJL74iqzAOdeDc/f111/r448/HsgdF6rN/Kanp7W3t6c///M/1w9/+EP+Nh1AX8g+WdUNu7HJ8yEhgu/SgQWFZsqWFVSXW6P7FWjbD3pcJ+7nDZyDL7/8Uh9//LEsy+qqRwL9LfoLfTAg0bATFWY8fkjbDJ/icWZdDKpqaDE3N3ei2Un9wDRNXblyRX/7t3+rkZER/eVf/qVevHihu3fv6t27d26XBwCdFZNaTOeV8BsyYtmjr2/Lp0vjUtfbfY8H5D/6KsBzdnd3de/evSNDjOrM6evXr2tpaelMayomQzIMo/ap7ohX3UHuwKf66zwba3u+8beB5rFjtWb1xx27m99aTvwePVTtg/HJJ5/INE3t7u72/BnwNsIL4IK6CKGFJD19+lQTExMHln6NjY3p8ePHunv3rkuVAcDRsk8aloukwy1bhHerqHLP56ACpBK4AA4LMTY2NjQ9Pa3l5eUzb8xZTIbkX70huzprKhNVPuGXEUtqR1b5uG0pqKCsyuyqTGBHRUkyU7KtoMr928rnbCuodLgcUmRjhma1UpmNZcsKphUOJVVU8Yixs4qF04pmKseiUnoxqcN+WznVe5yBO3fu6PHjxzJNk93BLhh2GwEumK+//loLCwsdA4tSqeTJ7Qar9R63tpcvX+rBgwdtz01OTmpra8uT7wsAt2/flply5KQqByoNoRMtO1YdpZicLTfyjM530bPCVkGXFD9x1cDR9vb2ZFlWT8ds9+eaaojx5Zdf6sGDB/rtb3+rV69enc8ykWJSs4m8oplcfXazmZJtbcufWJXsXNtZz2a8868+u5CXgjfkLyY1m45q3qmO4FN8PqpEOKEn2bhSqfZjmPG4VExqW0HdqASZ/kBQShfUcfPCM3iPXpicnFQ2m9XMzIx+8IMf6A//8A/P9HlVV69e9WRvuIuCmRfABVMqlbS3t+d2Gefm5s2bikQibc8NDQ2d+XRRAOgZM1X528201o6YkZ0O16dv+xP57ncJKe6I6Rk4a5Zl6c2bN+f2vL29PX348EE7OzsaGRk5dlPPE7ELyreZ7eS7NK6ul3BJktIKV34tLwZsObm4fHZB+YbjhmHUdrrb3jlivoMvrlylb042Zhy622Bv36P3hoaGNDw8rF/84hfn8rxf/epXmpubO5dnoT1mXgAXzKNHj5RIJGRZlpLJ5IEgY3R01JMzEaq7jPS6tk47CQGAJ/nimo8mtLhTlMzO0yiatvc+huKrggKfMu8CZ+/KlSs9/W/6mzdvDsy+GBoa0p07d/TgwQONjIxIkp4/f66pqSk9e/bsHLZarny5b/yl6g+obU/cjqLKVGZalftLBGVZ41LQkp07rGddZ9UdiKIZR3agvJvQ4XrxHr317t07zc3N6cGDBx3/kqrXSqWS1tbWzuVZaI+ZF8AFNDw8rEePHun9+/f6/PPP6bANAH2jqJ3toG58ehZbf2T1pBBhO1T0vaGhISUSCb1//15LS0u14EKSbt26peXlZU1PT59q+/UjVb7cp1unSdkF5RVV5AThonnfUlB5rRakYH5Vr07SVCIbUzhd7qPRVcB5Bu9xWmtra5qbm9NXX311bsEFvIHwArjACDEAoL9kY36t3ljpHDAUd7StLqaOtx17UYH77C6G/nVYaNFoYmJC6+vrWlhY6HnvjRpfXPNRSelww24eRSUX0wpa9+s9a+yCjli4UVN8taq8pPFISvPRvBL++g4jUrmxZtMmH23GLu5sS9pW9bcIu3DE08/gPU7j0aNHWllZUTab1djY2Dk8EV5CeAGgKcSIn3GDJQBAt4pKhpq3H1yLOMq1TS4q1/rLu5PkE/5DdibJKtawtWJ1C8RwdUvWli0Py2viK+vrz2D7Q6AXYrHYkaFFo+HhYa2vr+vDhw+amZnpuK3qaZip6g4h1V9PfhXmG34NF5MKhdOS2myHnI01/9qr/FoMWrZSZnnsTLS578WsVuqzKTqM7YvPK6r6r/U1RSvP6LyT0aneo0f29vY0PT0tSXrx4gV/4XZB0fMCQM3w8DDT7wDAM3yK55wud/44zrWmUo6j6iYm1e8rQcvuEIyottMJ4FUn3fZ0aWnpTPtg+OI5OZ1+YfriynU6aabk1LYa6nRJw25EXY/d/OtfklKpw59THu6E79EDbvS3gDcx8wIAAOCCOzS4kMpfpDLR8ysIOEfn1gcDx0Z/CzQivMCJlLsdVz6xbG3KqWEYMkLJ2t/iKBtrmnracRZZMalYMts0Pbbp2g7jNNXR+qnVUZ4eG0oWG+psPzWu6T0q93Q+33l6HQAA/WO8uwagZkTEFxhU59IHA8dCfwu0IrzAiZTX2am2b7wvnpNtBVu2bcoqFk4rmnHkOOXr04sNwUaL7cSitFK+tryurtqEqPM4TXU49XvrdWQVM8JKS9LqrGa1IsexZQXbNznyr97k1fj1AAAgAElEQVSQXRnHyUTLa4YrSUk2ZjScbz8GAAD9xhdPdbnDiKnUSfZfBfrEefTBwNHob4FOCC9wdoo72lZQAX/5R38gKOULsttd64sr5+Rqf3iyC3kpGJD/uOMcYCrl2LKCUn58vjIl1qf4iqWg0qrt+lRMajaRV3S+Yb9sM1UOQtKLSmaTWkwHZa1Uz/sUn+fvnwAAAAbN0tKSrl+/rqmpKZVKJbfLuVDevXsn0zQ1OzurR48euV0OPIbwAqeTDrd0I2/QEEhkY23Ot1NZHrIWceRUZ3CcZJw2gtX0Q5J8lzSuhq3k7ILyDQFJ/bJxSXkV1grKa1yXGv9mqtJIib+DAgAAGCz0wTh/9LfAUQgvcDqtyzVaVHtSrEXanz/ATMlxHEXW6lu4nWicE8mr0Dqdwx9Q/Wn1PbEBAAAw2OiDcX7ob4FuEF7g7GRjCqejyjiOjrtE1rzfsKzjFON0VFmKUmtQVgkp0mstHSzsgvKKKnI/oGC7cKOYVJKmFwAAAAOJPhhni/4WOA7CC5yZ4s62Gmcr2IXOyz2KyVDT7iLFV6u1ZRzHGecw+cST+kyOJwnlgzdUa67ui2s+KikdbqijqORiWkHrvszK+XS4eYeR7JOCLrFuBAAAYKDRB6P36G+B4yK8wIlkY4bCaZV7XlS2SvUn8lI+IX9li1JffF5R5ZXwV5Z8KCoprXCbLUZ98VxlqUi9f0Y0U+5zcdg4odDRdVQFo9JiZfzwduOuKGVmqrrLSbUOvwrzTm3f+/LOJvU6ystY6HkBAABwEdAHo3fob4GT+MjtAtCfzJQjJ9V0RE78wFVKOY4aL0ulUq0XHTLmScZpV0dF4L5y7R9Q44vnOt9/aI0AAAAYdNU+GNPT09ra2lIikXC7pL5jWZbevHmjbDbLMhEcCzMvAAAAAKBL9ME4mf39fc3MzOjDhw/0t8CJEF4AAAAAwDG17YNRTCqWzCoZqi8zbuzrpmysdvzAOWUVazhX/YSSxQP3Nd5f3ZXPMAwZ5QP1nyvLqJuuMVqub1BMhhrOV3f+a19X8/2H1C6pVCppampK169f19LS0ln868AFQHiBAZdVzPCr3AbDf+A3aAAAAOCk2vXB2E4sSiuOHKfaT60hBAinFc2Uz2WiUnqx2qOtqGQorLTKO+w5TkZRSUHLLvdfM1OyraBUO18fW6nyWIpm5KTM+rXBao+3onZkyXYcObaloIKy7EoNgZ1aj7hszNCsVuQ4jhzHlhVMKxxKqihTKSejaMOzm553RO0bGxuanp7W8vKybt26db7/gjBQCC8w4Mr9Mpzqp2d7rQIAAAD1PhgLCwuy/spRzik3nZcqu+QFA/JLUnFH25Xd9CTJHwhK+YLsxsGika6bwTeN3SSrJ4nG3fl8iqeaG9VXmfHK8WJSi+mo5uO++j3zUSmf0JNu/+6vTe2WZWlhYUHr6+uamJjociCgPcILAAAAADiFA30wXv5ZZWc6R051hztfvBZsZGPl3fXqfPr0RlBKh3X4ROG0wpUlGYsBuz52TVHJ0JoCVvB4L2AXlG8Y2zAMGeG0JGl7p3jEzQdr/7eSdv6HhD58+KD19XX6W6AnCC8AAAAAoAdqfTC++N/0/v17RdYae0fUe0+sRZzKMpA6Xzwnx7a0HTZkGGGl2z6hvnRjvuCXYYSUrGULO0qGZqWVlD49SfHBytKSlk8u3m7ORrPW2v97Sf9o/D+ivwV6ivACAAAAAHqksQ/G7/2H/5WCSmstKykbUzhdDh86rWTOPkkor6gylb4RhzHvWwoqr9VXlfQivSqt1JesHIs/oGB+Va+OmmRxiHLt/1R/PPHH+k8l/bv/5J+efDCgDcILAAAAAOiBYjKkWLbeB+Phwv+ovEYV8EvFnW1J26quwrAL+QP3htNBWXaqq74XxVeryksav1RJK6LzRwcXdkH5dsd9cc1H80r467NEpMpMkVBSxeKOttv212isfVT+yX+jf7X+hb7bRf3AcX3kdgEAAAAAMAh88ZwiMUNGuH7sH0f+S23+tzOKffXfKJqIKOE3lJAUjUZV7mFRXyASzTiK+7KKVZeNJPwKyVbu0pNKj4x80/VBy1ZkzVC5PUVYoYCtFc3WrvWHVNlxRFIxqVClj0XCbyhR2y2kzEw5yshoHj8aVTCfkN9frs2nhtoUliFLT/4mofub0j+OJPQ3L/7jg7WfaCoIcBDhBQAAAAD0iJly5KSajz1//lxTU1/o2fv3So2O1o6nUi0XlkdQynHUfCYlp3XQmtbn5eTE21zmiyvX9sThtaupxubaSqWSZmae69mzeG0b1IO1A73BshEAAAAAOEONfTA2NjbcLqcnNjY2ND09reXl5VpwAZwlZl4AAAAAwBmr9sGYnp7W1taWEomE2yWdmGVZevnyJdug4lwx8wIAAAAAzsHw8LDW19f14cMHzczMaH9/3+2SjmV/f18zMzP68OEDwQXOHeEFAAAAAJyjpaUlXb9+XVNTUyqVSm6X05VSqaSpqSldv35dS0tLbpeDC4jwAgAAAADOWT/1waC/BbyAnhcAAAAA4IJ+6INBfwt4BTMvAAAAAMAlXu2DQX8LeA3hBQAAAAC4zEt9MOhvcdDIyIiePXvmdhkXGuEFAAAAAHiAF/pg0N+ivaGhIU1OTrpdxoVGzwsAAAAA8Ag3+2DQ3wJexswLAAAAAPCQ8+6DQX8L9APCCwAAAADwoPPog0F/C/QLwgsAAAAA8Kiz7INBfwv0E8ILAAAAAPCwah+MhYUFWZbVkzEty9LCwoLW19c1MTHRkzH7W1YxI6Zsh5+LyZAMwyh/YtmGa4z6ccOQ0TQGeonwAgAAAAA8rld9MOhvcQLFpGZXb8h2HDmOo4zCKucXplKOI8fJKKqoMo4jx0nJdLveAUV4AQAAAAB94jR9MOhvcZS0wrUZFGGlK0eLr1aVzyfkr5wLp6XtnaKrlV5EhBcAAAAA0EdO0geD/hbdqM6eqM6maDyVqRwvf3Jxn1tFXliEFwAAAADQZ47TB4P+Fqfj+/SGguk1elm4jPACAAAAAPrQUX0w6G/RI764VqzthiUlISVZNXLuPnK7AAAAAADAyS0tLen58+eamprSs2fPNDo6qlKppJmZGcXjcZaJdMVUyjE7/uyL5+TEu70XZ4HwAgAAAAD63K1btzQ2Nqbp6WnNzs5qZWVFX331FctEMDAILwAAAABgAFT7YHz/+9/Xhw8fWCaCgULPCwAAAAAYEMPDw/r7v/97ggsMHMILAAAAAAAOsbu7q5mZGbfLuNAILwAAAAAAOMT+/r42NzfdLuNCI7wAAAAAAACeRnjhIcPDw9rb23O7DAAAAAAAPIXwwkNGRka0u7vrdhkYUKVSSaOjo26XAQAAAADHRnjhIVevXtXGxobbZWBAbWxs6OrVq26XAQAAAADHRnjhIbOzs1pZWXG7DAyoly9f6vr1626XAQAAAADHRnjhIZOTkxobG9PXX3/tdikYMM+fP9fQ0JAikYjbpQAAAADAsX3kdgFotrS0pMuXL+vatWsaGRlxuxwMgN3dXX355ZfKZrNulwIAAAAAJ8LMC48ZHh7W0tKSTNPUu3fv3C4HfW53d1czMzP6/PPPCcMAAAAA9C3CCw+6du2alpeXNTMzoy+++MLtctCnvv76a01NTenBgwcsFwEAAADQ11g24lGTk5N6+/atFhYW9PHHHysSidBssY3f/OY3+t3f/V23y/CUn/zkJ1pbW6v9b2h4eNjtkgAAAADgVAgvPGxoaEiPHz9WLBbT2tqaFhYW3C7JU372s5/pH/7hH/RHf/RHbpfiKT/60Y/04sULjY2NuV0KAAAAAPQE4UUfGB0dVSKRUCKRcLsUT3n06FHT/wUAAAAADCZ6XgAAAAAAAE9j5gUAAAAAeJhlWdrb23O7DMBVzLwAAAAAAI8qlUrH7n334sWLM6oGcA8zLwAAAADAw4aHh+nzhguPmRcAAAAAAMDTCC8AAAAAAICnEV4AAAAAAABPI7wAAAAAAACeRngBAAAAAAA8jfACAAAAAAB4GuEFAAAAAADwNMILABfG5uamfv3rX2tzc1P7+/tulwMAAACgS4QXAAbe7u6uTNPUvXv39Jvf/EbJZFI//OEPtbGx4XZpAAAAALpAeAFgoO3v72t6elqxWExv377Vd7/7XT179kxv377VvXv3tLW15XaJAAAAAI5AeAFgoH399deamJhQJBJpOj4yMqLl5WXdvXvXpcoAAAAAdOsjtwsATuPNmzd69OiR22XgHJRKJUk69r/vly9f6sGDB23PTU5Oamtri/8NAQDQhZ/+9Kf65S9/eer/br5580ZXrlzpUVUALgrCC/St27dvu10C+sDNmzcPzLpo9OzZM5aOAABwjq5cucKf4wAcG+EF+tbo6Ch/Y36BVJtr9vrfeSQSOTTcAAAAZT/72c/061//mj9/AXAFPS8AAAAAAICnEV4AAAAAAABPI7wAAAAAAACeRngBAAAAAAA8jfACAAAAAAB4GuEFAAAAAADwNMILAAAAAADgaYQXAAAAAADA0wgvAAAAAAAYYKOjozIMw9XP1NTUqd6B8AIAAAAAgAH2/v17OY7j2uf9+/cqlUqnegfCCwAAAAAA4GmEFwAAAAAAwNMILwAAAAAAgKcRXgAAAAAAAE8jvAAAAAAAAJ5GeAEAAAAAADyN8AIAAAAAAHga4QUAAAAAAPA0wgsAAAAAAOBphBcAAAAAADTY39/XH/zBH8gwDBmGoY8//lilUqn2s2EYmp6edrvMC4XwAgAAAACABkNDQ3rw4MGh13z++efnVA0kwgsAAAAAAA64c+eORkZG2p6LRCKamJg454ouNsILAAAAAABaHDb7glkX54/wAgAAAACANtrNvmDWhTsILwAAAAAAaKPd7AtmXbiD8AIAAAAAgA4aZ18w68I9hBcAAAAAAHTQOPuCWRfu+cjtAgAAAAAAg2d/f1+bm5tul9ETgUBAf/qnf6q9vT1tbGy4Xc6pDQ8P990MEsILAAAAAEDPvHv3TgsLC3r9+nXffUE+ysLCgtsl9MTe3p52d3d169Ytff755xoeHna7pCMRXgAAAAAAeuKLL77QN998owcPHuirr77S0NCQ2yWhg93dXT1//lyXL1/W0tKSrl275nZJh6LnBQAAAADgVEqlki5fvqxf/epXevv2rW7dukVw4XEjIyNKJBJaX19XMpnU3bt33S7pUIQXAAAAAIBTmZub0+eff67Hjx8TWvSZkZERZbNZSdLTp09drqYzwgsAAAAAwIk9ffpUY2Njnl92gMMtLS0pmUyqVCq5XUpbhBcAAAAAgBMplUpKJpNaWlpyuxSc0tDQkJaXlzU3N+d2KW0RXgAAAAAATiSVSml2dpalIgPi6tWrkuTJ7WAJLwAAAAAAJ/L8+XPdunXL7TLQQz/60Y/0k5/8xO0yDiC8AAAAAACcSKlU0ujoqNtloIfGxsb07t07t8s4gPACAAAAAHBsBBeDaXh4WHt7e26XcQDhBQAAAAAA8DTCCwAAAAAA4GmEFwAAAAAAwNMILwAAAAAAgKcRXgAAAAAAAE8jvAAAAAAAAJ5GeAEAAAAAADyN8AIAAAAAAHga4QUAAAAAAPA0wgsAAAAAAOBphBcAAAAAAMDTCC8AAAAAAICnEV4AAAAAAABPI7wAAAAAAACeRngBAAAAAAA8jfACAAAAAAB4GuEFAAAAAADwNMILAAAAAADgaYQXAAAAAADA0wgvAAAAAACApxFeAAAAAAAGWFHJkCHDaP7Esm7XheMgvAAAAAAA9Ej7oKD2CSVVPPd6ZqUVR47T/EmZ51oITonwAgAAAADQIz7Fc46cTFRSUJbdEBjYloL5hPxGTOc26SH7RKs3VhT3ndcDcVYILwAAAAAAZ88X14oVlJTW2rmkF0UlF6V5kouBQHgBAAAAADgXvkvjbY8Xk6Gm5SWhZLF6QrFktmkpSmuvio73ylZBAfmVVaxx6UrDANlY8/GmsVqWuHR8TjbWdolM/TEtz+9QS/P49dkpR9WYbDnfVM+h73COM2B64CO3CwAAAAAAXARZxcJpSVFFGvpNFJMh+VdvyHZy8knlL99hv4xCRs59aTuxqIDtyPFVrg3HFHFSMo+8d0fb4wU9MQqKOI5StfNhGcrISZkyU44yMhSu/CyZslUZMxeXr5saUynZ1rb8iXFlGuuq1Wkq5WQkY61WdzbW+Mzyz4sBW47jU7lPh1/hUEB2Lt5FjXFdaj1vbR94h8Oe0Q9zU5h5AQAAAAA4A3kl/I0zDcJKRzNyKl/gJUnFpGYTeUXnG75AmynZVlBKLyqpuHJOrtazwi7kpWBA/m7ufVVQPp3WtnW//rzG8912Dj3qOW3Gaaqzi/EX09GG5S0+xeejUj6hJyeaGpHVk0T+jJ9x/ggvAAAAAABnoKVhp2PL2g43L6mwC8orqEDLt/zy8pK8CnblQGUpxFrEkVOdKXDUvYXyz+OXfO3P2w0H0+FayOJv/eLfbY1KK1wZYzFg1+s8il1QvuFewzBkhNOSpO2dhmTksBprikqG1hSwgid7hocRXgAAAAAAzoFP8VxGUUnpcGO/hZYgQZL8ATV9/TZTchxHkbXWXg2H3Bso/98DX85bx5akaKYWstitX/y7rVFRZSpjzBf8MoxQ97M7gpZs5+B2rrnGZqNH1rhT2RY2pU9P+gwPI7wAAAAAALijEgCkW7cfsQvKt/TGkCTzvqVgdbeSo+6Nf6obQSnfmjp0GLtXNdbrzGv1VRfphT+gYH5V3Vx6qPSqtJJrvy1sr57hIsILAAAAAMA5KCoZCistSdFIuQ+FL6758lSMht05ikouphW07sufDDXtLlJ8tVpfwnHEvWa1r0M63LADSeP5Lh35nDZv+mpVeUnjhSflHT+KO9ru1APDF9d8NK+Ev3n3j2LLux8pOt8+uOjlM1zEbiMAAAAAgB4p72JRbcmQ8BtKtFwRtOympQpmypEdCMkfNsrBhqRoxlHOlKScIjFDRrh+fzTj1L6kH36vystNMirvDJI4eD4bM1Ru/VDegcQOLFb6SeTlD6m2E8ehz8nGaveEjerZ8numPn2lbX9Cfn/5ep+yihmVAEdtdj1puT9nHl2jNZ5QonI+FLC1otmO79DpGf2A8AIAAAAA0CM+xXOO4se9K56T0+EmM+XISZ3s3soAcjoMcHBss+NYHZ9zyPhSXLmmm0ylqtu2HllLtzXGFW86f/J/ll7GshEAAAAAAOBphBcAAAAAAMDTCC8AAAAAAICnEV4AAAAAAABPI7wAAAAAAACeRngBAAAAAAA8jfACAAAAAAB4GuEFAAAAAADwNMILAAAAAICLsorFspKKSoYMGUb9E8u6XRu8gvACAAAAAOCudFiGMSutOHKcyicTVTpsyCDBgKSP3C4AAAAAAHDRRZVxUjIbD5kpORnJCIcVCtjKxX1uFQcPYOYFAAAAAMA9xR3Jut8cXFSZ92UFpXziibKSislQw7KSmLKSlI2Vfw4lVawO2XRdSMmilI01L0lp+jTce/D+ynMkSVnFDEOhZLHhmvL45VI6jB/LNp+LZet1Nz6/mFQsmW1aPlOdeNLunSpnmpfbDOhMFcILAAAAAIB7fHGlOs6q8OnSuCSltZaVfPGcbCuo+kyNopI7kfIyk1xcPpUDBP/qDdmOI8exZQXzSvhjUspRJiopmqktTbGtoBS0ZFfuVeX+Wa1UrrFlBdMKh5IqKquYEVZaklZnK9fUx8+qqB1Z5efaloIKyrLLz8kEduRvfH7KlMxU2+dvJxZry2dsK6h0uByeNL97TvV/ZD7Fc7bKpypjDyDCCwAAAACARxxs2hlOH3J1claFS2bjAS2mg7JWqmGAT/H56DEen9RiOqr5WjJQuT+f0JOsqZRTDgny4/OVZSw+xVcsBZXWWtaneKoeQjQy4+2OZ/UkkW8+5Isr1xBM2IW8FAzI3/0bDCzCCwAAAACAR/gUzzU07azOjjggrbBRniHRNNHALiivcV1qTArMlJzWfhqd2AXlK2PXApRKerK9U19YEgw0xAm+SxpvOX+0opKhNQXavptqS0rWIvUZJXWN9TUuaRlshBcAAAAAAI8q6tVqXlJUkab0IaqMk9F4wq9QsjU02NaxcoRWwcrSj5ZP7xqG7igZmpVWUvq00yVmSo7jKLLWLqCIKuM4cpyMoqouaRl8hBcAAAAAAPdkY+rYYzL7RIm8FGzb0NPUfStYa+YpSfIHFFReBbvl0mJSyW6mKPgDCuZX9epYkyh2tK2gbnzaZbiRXpVWGntWdGbery5JaXtWkaikfEGtrzuICC8AAAAAAO4xU+UZBq0JRjZWXrIRtLTS4Zu+Lz5fnn1QvdcX13xUSocbd+OQsk8KutTNuhFfXPPRagPOumIy1BSwNAYm2ScJ5YM31JRd2AW1dLOoi853DC5an1N8taq8ggq0bXqR1VpaF6YnxkduFwAAAAAAuNjMlCMnG5NhhJuORzNOU0+LYjIkfyIvKa+wIWWclFKZqNLhsIx0ZQeSlKOMDIX9hhIN40Ri1eafYRnKyA4s1sbyh1Tb8aN2v1HvFBq0bOUa6ghGpUXDULh8smm3EBWTClX6ZCT8hhKVHUCyDc8PBWytaPbg8+M5RWKGGv8xRDOO4r7Wd6/WFlUm96lehfwqnyq/2yDuOEJ4AQAAAABwX6Wx5mF88Zyc+NH3mSlHB4YyW4+ZB8c67P5GgfvKdbrAF1euzcAHx2zzLoc8u+27V+/JOepwamCwbAQAAAAAAHga4QUAAAAAAPA0lo0AAAAAAHCkrGJGWGlJyvtlFAazt4RXEV4AAAAAAHAkUynH0eFdOXBWWDYCAAAAAAA8jfACAAAAAAB4GuEFAAAAAADwNMILAAAAAADgaYQXAAAAAADA0wgvAAAAAACApxFeAAAAAAAATyO8AAAAAAAAnkZ4AQAAAAAAPI3wAgAAAAAAeBrhBQAAAAAA8DTCCwAAAAAA4GmEFwAAAAAAwNMILwAAAAAAgKcRXgAAAAAAAE8jvAAAAAAAAJ5GeAEAAAAAADyN8AIAAAAAAHga4QUAAAAA4NiGhoa0v7/vdhm4IAgvAAAAgGMrKhkyZBiVTyipYjfXtXxCyfZ3NcrGOt9f+8SyvX5B4EgjIyPa3d11uwz02O7urkZGRtwu4wDCCwAAAOBYikqGZqUVR47jyHEyiuYT8rcNEHyK5xw5tqWgpGimeo+jTFTKJ/xHBg9mqvIMRZVx6vfbVlBSUJbtyEmZZ/GiwJEmJye1ubnpdhnooW+//VaffPKJ22UcQHgBAAAAHNOnKznFfdWfTKUyUWl7p8PsC0m+SxpvOWSmbFlBSelFHT0Bw69AsN3xcV3ytTsOnI+bN2/qm2++cbsM9NDz589169Ytt8s4gPACAAAAOBaffC2BQXYtreh8XMfLEXy6NC5JeRXsLi4fD8h/rPGBs3fnzh1tbGzo3bt3bpeCHvjiiy9069YtjY6Oul3KAR+5XQAAAADQz7IxQ2sRR8dfuVHUzrYkBRUglUCfGhoa0vLysubm5vT27Vu3y8EpvHv3Tt98841n/z0SXgAAcAGUSiV9/fXXbpcBDITbt29rdHRUxWRI/kS+fDBtKB3NHKv3RDE5q0ReUnS+YQlKJ7YKuqR4l2NvbW1pbW2t61q68dOf/lS//OUv9ejRo1ONMzw8rEQi0aOq4AWTk5O6evWq7t27p6WlJbfLwQns7u5qbm5Oy8vLGhoacructlg2AgDABbCwsKBvv/3W7TKAgeKL5+oNO6Wuelekw/UdQvyJvNRt4FHc0aBMz0gmk9rY2HC7DPTY48ePNTQ0pMuXL7OEpM98/fXXmpqa0uPHjzU5Oel2OR0x8wIAgAvi+vXrun37tttlAAPIVMq2tO1PlHtXHDKLIpo5yfISqfiqoMCn3c67kCYmJjQxMXH8Bx3iZz/7mX7961+feubFmzdvelQRvObx48fa3NzUzMyMJiYm9KMf/UiTk5Oe7J9w0W1ubmpra0srKysaGxvT27dvNTw87HZZhyK8AAAAAE7Ld0njZ9a7IqsnhYhS3WcXgGsmJyf19u1bPX/+XC9fvtTDhw9VKpXcLgstJicnNTExoaWlJU/PtmhEeAEAAACcUjYW1rZlK9Vp1kVxR9uStFOUzOPtSZKNLSpwP3faEoFzMzQ0pNu3b1/I2X6lUklTU1N6//6926UMHHpeAAAAAMeRjdX6VlQ/axFHubZdN4tKhgwZ/oTykvIJvwwj1KE3RlYxw5BhxJSVVEyGZBiGwum8En7jwDPLzULTChuGjFis6V4AGDSEFwAAAMBxmKlKo876p3MfC5/iOafl+lyH3UVMpRxHjpNS43BByz7wvNonE61cFWl7LwAMCpaNAAAAAB4VtOwOMzoqzJScjGT0dldUAPAcZl4AAAAAnjSuG5920R/DjCh69FUA0NeYeQEAwABaW1vT1tZW7eetrS393d/9XVPH92vXrvVNh3HgIvLFU+pugxFTqdQZFwMALiO8AABgAI2Ojmp6errp2NbWll6+fCmp3An+zp07bpQGAABwbCwbAQBgAE1MTCgSiXQ8f+fOHY2MjJxjRQAAACdHeAEAwID6/PPP2x4fGhrSgwcPzrkaAACAkyO8AABgQHWafcGsCwAA0G8ILwAAGGCtsy+YdQEAAPoR4QUAAAOsdfYFsy4AAEA/IrwAAGDAVWdfMOsCAAD0K7ZKBQBgwFVnX4yOjjLrAgAA9CXCCwAALgCfz6cf/OAHbpcBAABwIiwbAQBggG1ubury5cv67W9/qzdv3sg0Tb17987tsgAAAI6FmRcAAAygvb09LSwsaHNzU0tLS5qcnJQkvX79WjMzM7p+/bo+++wzDQ0NuVwpAADA0Zh5AQDAgHn+/LkuX76s73//+3r79m0tuJCka9eu6e3bt5Kky5cv6/Xr126VCQAA0DXCCwAABsS7d+9kmqZevnyp9cddANQAACAASURBVPV1JRKJttcNDQ3p0aNHevbsmZLJpGZmZrS7u3vO1QIAAHSP8AIAgD63v7+vR48eaWZmRvF4XM+ePetqV5GxsTFls1ldv35dU1NTsizrHKoFAAA4PsILAAD62MbGhi5fvixJevv2ra5du3bsMW7duqW3b9/qw4cPunz5sra2tnpdJgAAwKnQsBMAgD60u7urhw8fqlQq6dmzZxobGzvVeMPDw1paWtLm5qbm5uZ07do1PXjwQMPDwz2qGAAA4OSYeQEAQJ95+vSppqamdOXKFa2vr586uGg0OTmpv/7rv9Z3vvMdXb58WWtraz0bGwAA4KQILwAA6BNbW1u6fPmyvv32W719+1a3b98+s2d99tlnWl9f18rKikzTVKlUOrNnAQAAHIVlIwAAeNze3p6+/PJLvX79WsvLy01bn56lkZERvXjxQq9fv5Zpmvr/2buf2ESyNH3Ub4y6JdSzsEe6C2ZV7hF4Mi2rbTbTJtDIZnPbUIvCi5tZXuFUzwRmFXiRv7QlSy5LluyUFwmrLJCuwKvs8iZdIyVB6y6w1Q1Br+ySLJJxIJVX00xL040Xo0YaaeIugv8GG9vYAfb7SKiKiBPnfEFWkfBxznf8fj9CoRAsFsuDjE9ERERUw5kXREREA+zg4ABOpxMjIyM4Pj5+sMRFs/n5eRwfH+Pi4gJOpxOHh4cPHgMRERE9bZx5QURENIDOz88RDAZhsViQTqd72vr0PlksFmxvb8Pv9yMYDGJvbw/b29umx0VERERPA2deEBERDZBKpYKdnR14PB7IsoyPHz8OVILg2bNnSKfTmJ2dhdvtxrfffmt2SERERPQEMHlBREQ0IA4PD+F0OnFxcYHj42PMz8+bHVJXS0tLUFUVP/zwA5xOJ05OTswOiYiIiB4xLhshIiIyWalUwtraGs7Pz/Hhw4e+bn16n0ZHR/H+/Xvkcjm8evUK8/PzePPmDUZHR80OjYiIiB4ZzrwgIiIy0bfffgu3243Z2Vmk0+mhSVw0m5mZwfHxMUZGRuB0OnFwcGB2SERERPTIMHlBRERkgpOTEzidTvzwww9QVRVLS0tmh3Rnq6urSKfT2Nvbg8fjwfn5udkhERER0SPBZSNEREQPqFwu4+3bt0ilUnj//r0pW5/eJ6vVio8fPyKVSsHj8cDv9yMUCsFisZgdGhEREQ0xzrwgIiJ6IAcHB3A6nRgZGcHx8fGjS1w0m5+fx/HxMS4uLuB0OnF4eGh2SERERDTEOPOCiIjonp2fnyMYDMJisSCdTg/U1qf3yWKxYHt7G36/H8FgEHt7e9je3n4y909ERET9w5kXRERE96RSqWBnZwcejweyLOPjx49P8ov7s2fPkE6nMTs7C7fbjW+//dbskIiIiGjIMHlBRER0Dw4PD+F0OnFxcYHj42PMz8+bHZLplpaWoKoqfvjhBzidTpycnJgdEhEREQ0JLhshIiLqo1KphLW1NZyfn+PDhw9DufXpfRodHcX79++Ry+Xw6tUrzM/P482bNxgdHTU7NCIiIhpgnHlBRETUJ99++y3cbjdmZ2eRTqeZuLjCzMz/haWfnWBnZwd/93d/B0EQIAgCAorZkREREdEgYvKCiIjoTor4P1PGF+9gMIhCoYBXr17Vv4y7IkWzAxxARURcfmBPh67r+OMf/wifz4f5+XmsPT83OzgiIiIaQExeEBER3VK5XMba2v+L/+9vpqHuhyACkJLGF3Jd15GUgGzIDoHTCVopu9h/sQfZZjy1Wq34+PEjZFmGx+PBzs4OKpWKuTESERHRQGHygoiI6BZSqRScTidGRkZwfHyMmf/n/8ZkWxtPVENYBBDbAidg1BQR2QLWa5mLJvPz8zg+PsbFxQWcTidyuZwJ8REREdEgYvKCiIjoBkqlEjweDyKRCNLpNFZXV69obcP4JABkkdeMI8WIq76kRBACqM3JuHS8GIGr/lxAQCki4mo8r83m6NafEmht29LOFUGxQxsogUtt0C2+K+66tW370hkNeUzADgUB4fL9WCwWbG9v48OHD1hZWcGrV69QLpd7/NMhIiKix4rJCyIioh7t7OzA6XRClmUoigKr1XrNFUWcnQKAiAm7kSzwY6+6rERDWIzBW00S2OQMtLAIQEJSj8Jjk5HRwvWlKFGPDXKmOpNDSkKPeq7szxM1lq3U2tb7F8PQMjJsHdrAE73UBrg67kt3HHHBvv8CWnXpjJ6UWpfOFM9wOpnHrnAAX1MbxLwty2uePXsGVVUxOzsLh8OBRCJx+z84IiIiGnpMXhAREV0jl8vh+fPnuLi4wOfPnzE/P9/TdcWIH6EsAGkdMiLYiklNyyVskNclIBvC7m1KYhT73B8AQMFuKHv7cYoR+ENZSOuNxEc9IVJbOqPlkY3FcBp+DU+3Nk2WlpZwfHyMo6MjOJ1OFAqF294cERERDbGfmB0AERHRoCqXy1hZWUGhUMDHjx972vo05hUQaz5Qm9WgHCCLGLxC7NI1p2dFwHO5BsSVtHxv/cW8aGkivujSYRER1wEmwiKwf4tx6m1FvLC3trONTwKI1ZfOAMDkuK17m7aXYnR0FPF4HLlcDgsLC/D5fNjY2IDFYulyL0RERPTYcOYFERFRB4lEAg6HA7Ozs1BVtafEBdC624iu60biokYMN5ZTND0yHYpX9qSX/qRk/bixLKWTs+rWpVF8edtx6rItSQoAgH0CYtu/n54Vu7fpYmZmBp8/f8bIyAieP3+OVCp1zRVERET0WDB5QURE1KRQKMDpdOLo6AjHx8dYWlrqT8f2CYjZfXzq164j/ewvtg/sZdAxF3GTcaoJiNhB23oSLY8sJPg8AGxf4oUIZNszHM1trrG6ugpVVRGJRODxeFAqlXoIjoiIiIYZkxdEREQAKpUK1tbWsLCwgHfv3iEej2N0dLT3DopnOEWHGQU1NhnrUhYhe+tOHcWIC4Hb1KjoZ3/SeufExU3HsclYlwDEvE3niohsxSDWa1xUa2bEvE27kLS3uZ7VaoWiKJBlGU6nEzs7Oz1eSURERMOINS+IiOjJS6VSCAaDCAQC+Pz58w2vLiLisqNe5zJkhxASEdYuz2TwRHUkIbTUjxDDGjKe6i4doSyA7KX6Etn2OhpZLwQkoV/RnxIQ4I0BgNFWm9iq9293AVpGhtbUxjWhYQ/+S23qu5J0GaedJ6pDm3DB3hSzlNRb23qi0JOA4LVDCHVp06P5+Xl8/vwZm5ubeP78OeLxOGZmZm7eEREREQ00Ji+IiOjJKpVKePXqFQBAVdUetj7txAY5o0PusbUnqkOPduhFzkDvtZMe+rt83HOpf9ulNt1j6DZOJz3diycKvdcOr2GxWLC9vQ2/349Xr17h2bNnePfu3c1mzhAREdFA47IRIiJ6knZ2duB0OiHLMhRFuWXiggbJs2fPoKoqZmdn4XA4kEgkzA6JiIiI+oTJCyIielJyuRyeP3+Oi4sLfP78GfPz82aHRH22tLSE4+NjHB0dwel0olAomB0SERER3RGXjRAR0ZNQLpexsrKCQqGAjx8/9rz1KQ2n0dFRxONx5HI5LCwswOfzYWNjAxaLxezQiIiI6BY484KIiB69RCIBh8OB2dlZqKrKxMUTMjMzg8+fP2NkZATPnz9HKpUyOyQiIiK6Bc686INyuYxvvvnG7DCGytnZGcbHx80Og4bI+fk5ANz5/7VyudyPcGhIFAqFegHH4+NjFnB8wlZXV7G0tIRXr14hEokgHo+zzgkREdEQ4cyLOxobG8O7d+/MDmPofPjwwewQ6Ina2NjA2NiY2WHQPatUKlhbW8PCwgLevXuHeDzOxAXBarVCURTIsgyn04mdnR2zQyIiIqIeceZFHywtLZkdwtDZ3NzkbBW6kcPDQwB3n3lBj18qlUIwGEQgEMDnz5/NDocG0Pz8PD5//ozNzU08f/4c8XgcMzMzZodFREREV2DygoiIHoVSqYRXr14BAFRV5ZIAupLFYsH29jb8fn99adG7d+84Q4eIiGhAcdkIERENvZ2dHTidTsiyDEVRmLignj179gyqqmJ2dhYOhwOJRMLskIiIiKgDJi+IiGho5XI5PH/+HBcXF/j8+TPm5+fNDomG1NLSEo6Pj3F0dASn04lCoWB2SERERNSEy0aIiGjolMtlrKysoFAo4OPHj9z6lPpidHQU8XgcuVwOCwsL8Pl82NjYgMViMTs0IiKiJ48zL4iIaKgkEgk4HA7Mzs5CVdWBTlwUIy4IglB/uCJFAIASEFqO1x8BpcN1ASjGRcZzVwTF5ufVR/VSoBhBIKIg4upwrmNc1f7btMQYUFrHq8UABYFO91G9prc+Bs/MzAw+f/6MkZERPH/+HKlUyuyQiIiInjwmL4iIaCgUCgU4nU4cHR3h+Ph44Hd6KkZcsO+/gKbr0HUdelJCNmSHEIjgDGHjuBaGCBFhzWiTnDhDEYBNzkALiwAkJPUoPCgicuYz+snIsEFBwBuDlKxeJwGxrUYy4DS0BewZ57SwiJi3kaBQAgL82DP60jWExRi8HRIJnqjRL6Qk9KgH8ESNmMQwtIwMm9EKUT0JCRKSeiOW2jW99TG4VldXoaoqIpEIPB4PSqWS2SERERE9WVw2Qg9ifn4elUql5djc3Fz93y0WC3/ZIqKOKpUKNjc3kUql8P79++HY0rIYgT+UhZTMNL6ge6LQwqewh/YBLdPxi7tHlrt050d+PNN04AynEPHCbjy1T4hALA8NgM0mI6M3+tHyWUB8AXs1rq2YhHW9NroN8rqEkDeEXUVG1HPVTSnYDRl93V4/+nhYVqsViqIglUrB7XbD7/djdXXV7LCIiIieHM68oAfxpz/9CUdHR/UHgJbnf/rTn0yOkIgGUSqVgsPhwMjICFRVHY7EBQBoeWQhYsLeetg2Pgkgi7zWa0cxeAVjpkRLYsEmI6NnINuMmRT2UPbypdUlGge+2myNWlxGn/XlG94YAOD07KpFHEVEXAeYCIu9Bn5PfZhnfn4eqqri4uICDocDuVzO7JCIiIieFCYv6EFct/Uct6YjomalUgkLCwuIRCJQFAWrq6tDWDSxQ5LCPoGbfXWXkNSTmAzZ6/Uyamr1JA58enWJSRtPFLquw3fQVtdCDDeWsjQ9MnK3RRxniLj8wF4UX94o9n73Yb7R0VFsb28jHo9jZWUFwWAQ5XLZ7LCIiIieBCYv6EH84he/gMPh6HjO4XDgF7/4xQNHRESDamdnpz49X1EUjI2NmR3SzVWTFLGDtlKYWh5ZSPBduTyjnQevwyKyod1GAkIJwBsz6kxcvdQD8LwOQ0QMB0o1ruw+Pt2kUmZsH9gzZnncWj/6GCDT09NQVRVTU1NwOp1MwBMRET0AJi/owXT7cMcPfUQEALlcDg6HAxcXF1BVFT6fz+yQbs8mY10CEPM27fRRRGQrBjH8GvV8g5ZHhwUfHbpbh4QYvLXdSM5OAZyittJDyzd6KUZcLbuLFD/tN5aw2GSsS1mE7K07jLRf00Ja75x0UALGjiHFM5yKE7B3aHJtH0NueXkZ6XQaR0dHcLvdKBQKZodERET0aLFgJz2Y2uyL4+Pj+jHOuiCicrmMtbU1nJycIB6PY3p62uyQ+sIT1aFNuGD3CohVj0lJHZla5qIYgatabyJkFxCq7ciB6k4loSyALLwCkNSjiCYlxLxeCDEJSX0dUshrXAdAkiQY9TFOEdYy8O0KELyNWKSkXk8eeKI6khDgFWL182JYa8RVpQQEGOF54ZrQsAd/PSa7C9D2JiBmQ7Dbjf5tUBAQvNV79UJAEkl4r+5jCHYcuY7VakU8Hsfh4SEWFxcxPz+PjY2NIVzmRERENNiYvKAHlUgkMDU11fKciJ6uRCKBt2/fQpZlvH//3uxw+s4mZ6B33kCkWnSz88mO13mi0PVo46muI9p0OhptehbVoTefvNTV1ec7t7kcU2v8HkTbYgKu7+OxmJubg6qqCIfDcDgcePfuHebn580Oi4iI6NHgshF6UM21LzjrgujpKhQKcLvdODo6QjqdxvLystkhEd2ZxWLB6uoqFEVBJBLBwsICSqWS2WERERE9Ckxe0INLJBIQBIGzLoieoEqlgrW1NSwuLmJjYwPxeBxWq9XssIj6amxsDIqiwO/3w+12Y2dnx+yQiIiIhh6TF0Pg5OQEa2trcLvdcDqdEARhqB9TU1PQdR1TU1Omx3LXh9vthtvtxjfffMNCbUTXSKVScDgcGBkZgaqqmJubMzskonvl8/mgqiouLi7gcDiQy+XMDomIiGhosebFACuXy1hZWcHJyQlevnxZLwA2MzNjdmhUdXh4WP/nwsICfD4fC7XRo/Kb3/ymtZbCLf3Hf/wHfvaznw3v1qdEtzQ6Oort7W28fPkSCwsLePPmDZdJERER3QKTFwMqlUphZWUFb968QTweNzsc6qL2y/Hc3By++eYb7OzswOl04v3790wy0aPw29/+FjMzM/jVr351p37K5TLevn2Lt2/fYnt7G6Ojo32KkGjwlUolbG5u4tmzZ8O9BTAREZGJmLwYQAcHB4hEIkin01wLPmRWV1fh8/nw6tUrbG9vc1o8PQr/+I//2Jf/ln0+H7799ls4nU68efMGS0tLfYiOaLDt7Oxgb28P29vbTFwQERHdAWteDJjarzMfPnxg4mJIPXv2DB8+fEAwGESlUjE7HKKBsry8jHQ6jaOjI7jdbtaKoUcrl8vB4XDg4uICqqoycUFERHRHnHkxYGpLRZi4GG5jY2OQZRkrKyt4//692eEQDRSr1Yp4PI7Dw0MsLi5ifn6etWLo0SiXy1hbW8PJyQni8Timp6fNDomIiOhR4MyLAZJKpVAul/H111+bHQr1wfLyMnK5HE5OTswOhWggzc3NQVVVjIyMwOFwIJVKmR0S0Z0kEgk4nU5MTU1BVVUmLoiIiPqIyYsB8v333+Orr74yOwzqo5cvX+K7774zOwyigWWxWLC6ugpFURCJRLCwsIBSqWR2WEQ3UigU4Ha7cXR0hHQ6zd1EiIiI7gGTFwPk8PCQBR4fmbm5ufp2qkTU3djYGBRFgd/vh9vtxs7OjtkhEV2rUqlgbW0Ni4uL2NjYQDwe57JPIiKie8LkxQAplUr80PPIWK1W/opMdAM+nw+qquLi4gIOhwO5XM7skK6lBAQIQpeHK4JiU9tixNV0PgDF6AEBQYArUmw670KkeHmsu1zf+dr2402PgNJ6bwEFUAId7621j8bYXV+bgHKj+x5EqVQKDocDIyMjUFWVPz4QERHdMyYvBki5XMbo6KjZYRARmWp0dBTb29uIx+NYWVlBMBhEuVw2O6yuPFEdSQmAlISu69B1HVpYBMQwtIwMW7WdEhDgx161jYawGIPX5YJL8CIGAPv+6nkNYTGLkL2RYLjr9Z2vNZIPNjljxAsJyWr8uq4hjDPYm+8t6gE80Uv3pgQE2PdfQKv3XRu7iDOEjeNaGCJEhDWj/+TEVs/3PWhKpRIWFhYQiUSgKApWV1dZbJaIiOgBMHlBREQDaXp6GqqqYmpqCk6nE4lEwuyQbq8YwVZMwrpcS2XYIK9LQDaLyaSGsAhkJ9eRkW3Gub0wRMRwoPTh+q7XhrDbNUtggxxtJF4aFOyGsm33JSK8V2tb7fvKPgCPnEFG7+G+B8zOzg7cbjf8fj8URcHY2JjZIRERET0ZTF5Qd83Tg6uPwIB+oCSix2t5eRnpdBpHR0dwu90oFApmh3RzWh5ZxOBtfk/1xgAAp2caAECcsDfa28YxCeD0rHj366+89iZrNIqIuA4wERbb7msS480ZCk8Uuh6Fp8der7zvAZHL5eBwOHBxcQFVVeHz+cwOiYiI6Mlh8oI6UgICBO9pfYqvXp32e+q9vIabiOi+Wa1WxONxbGxsYHFxEWtra6hUKmaHdTNidQlF2yMj26+/9q7Xd72207yITs4QcfmBvSi+vHTuFAOWa+ibcrmMYDCIlZUVxONxbG9vc3knERGRSZi8oEuUgABvTERYy6Dlc61NRkYLQ8yGYOcUDCIywdzcHFRVxcjICBwOB1KplNkh9cY+ATG7j0+9fskvnuEUIl58abv79Te9tpPYPrDX9ndCLS5kkdfax48gcpu/Jtrv20SJRAJOpxNTU1NQVRXT09Nmh0RERPSkMXlBbRQcxACIL9Dxs6PtS7wQAcS2ECleXUm+Y2X72lKU2uyNtqUpLTmRYgSBiIKI65plKx2Wt3CJC9HjZbFYsLq6CkVREIlEsLCwMPi7+thkrEuXi1EWI676e1U2tNsosLkbQrb5ffgu1/dw7bWk9cuJi3pcQMzbukuIspvHePO6ES2P7KWLr4nbJIVCAW63G0dHR0in01heXjYvGCIiIqpj8oJaKQcwchdfdiyyBtjw5QsRQBZ57apK8mdASwX7KDwoInLmM6YrZ2TYoCDgjUFKVq+RgNhW65KU09AWsNeo3h/zdqhCX6t+31Qpv2tbIno0xsbGoCgK/H4/3G43dnZ2TInDmK0GIOatJ27toSyQDcHetMzO2JWktfaEH3uIVr/kixKwVT3uPW3dqeSu1191bT1exOAVLu9wUru32pam7fdm9J1FyN7o+8DXVPOiGIHLGwNQbdOWMbnuvh9KpVLB2toaFhcXsbGxgXg8zu3LiYiIBshPzA6AhtfpGRCNyh3PeWTjeHMiohjxIz+eaTpQnR5cXa5tnxCBWB4aYHxwtcnI6I3+tXwWEF+gl9XhN2lLRMPN5/Nhbm4Ob9++hcPhwPv37zEzM/Ng43uiOvRoyxHond8aO7QF6u+UE6+RuXyyb9d3vtbYKrX3eDu37dZ3dYCW9/JLerjv+5ZKpbCysgK/3w9VVbn1KRER0QBi8oI6yubrKYSuJsd7/W0sBq8QgxjWkGmeRtz0gbb+6x4mL1+uBCDUZmhc+fnWGAcAxLAGPWr+mmkiehijo6PY3t7Gy5cvEQwGMT09zeKKdK1SqYRgMIhKpcKtT4mIiAYcl41QK/sERAA4Peu6o4iWzwIQMdHztAYJST2JyZAdrkhrr7WaGQc+vbr0owNPFLquw3fQVDuj6zjGspH1vB2C0LoGm4gev+npaaiqiqmpKTidTiQSCbNDogG1s7MDt9sNv9/PxAUREdEQYPKCWlWLryEbwm6nLEExgq0Yuhdv68qD12GxpTAblAC8MSPhEPVcdW21h9dhiIjhoIdCFkbbLPbvVF6fiIbV8vIy0uk0jo6O4Ha7USgUzA6pCwUBwQ6jjIT9Uj2I+7/eLObFncvl4HA4cHFxAVVV4fP5HmxsIiIiuj0mL+gST1RDWLxcPR7FCFz2ELJSEnp7tuGKSvI1NnkdEmLwVj+kFs9OAZzirFjrorWH9kr4xU/7yPY448Noe5OlLUT02FitVsTjcWxsbGBxcRFra2uoVCpmh9XGg2h1xpiu65ffW+/9erM8fNzlchnBYBArKyuIx+NcVkRERDRkmLygDmyQMzr05GRL9XjBHsJkssOHzC6V5C9XsPcgmpSMivxCAJq8DgmNCvUHkKptjaSJTc5Ul4oYD3soCymZuTzjQwk0jdNoK4a1nmZ0ENHjNjc3B1VVMTIyAofDgVQqZXZI9MASiQScTiempqagqiqmp6fNDomIiIhuiAU7qTtPFHovFeC7VJLvWMG+rU+PrqN5hGg02tb8uiKdN4iTiJ4si8WC1dVVfP311wgGg4hGo3j//j23wnzkCoUCgsEgxsbGkE6n+edNREQ0xJi8ICKiJ2NsbAyKouDg4KBerHF1ddXssKjPKpUKNjc3kUql8O7dO8zNzZkdEhEREd0Rl40QEdGT4/P5oKoqLi4u4HA4kMvlzA6J+iSVSsHhcGBkZASqqjJxQURE9Ehw5gURET1Jo6Oj2N7exsuXLxEMBjE9Pc0ijt3UCjZXn0rJ3naJekilUgnBYBCVSoVbnxIRkWnGxsbw448/mh3Go8SZF0RE9KRNT09DVVVMTU3B6XQikUiYHdJgKUbg8gN71Z1BtLB4eTcqk+3s7NSXATFxQURE9DgxeUFERARgeXkZ6XQaR0dHcLvdKBQKZoc0GLQ8spPjqG30ZKvuFLX/yfzsRS6Xg8PhwMXFBVRVhc/nMzskIiIiuidMXhAREVVZrVbE43FsbGxgcXERa2trqFQq5gWkBBrbVQsCqjtRQwk0bWMdUFCMuBrPXREUO7Rp6esGbWCfgBg7gFIPyo4J0YTXokm5XEYwGMTKygri8TiX+xARET0BTF48kHK5bHYIRETUo7m5OaiqipGRETgcDqRSKROiUBDwxiAljeUaSQmIbRkJBU/UeA4pCT3qgU3OQAuLgBiGlpFh69AGnuit2hjbYUdRL3FR/IT9rIgXX9o6BX3vEokEnE4npqamoKoqpqenTYmDiIgep5bEviDAdWmdZBERV2ubq9tfP0bHR0C5tp+nhsmLB7KwsIBXr17h/Pzc7FCIiKgHFosFq6urUBQFkUgECwsLKJVKDxdA8QynEDFhN57aJ0Qgm4d26w4V7Iayd26j7IaA8B7kB85dFAoFuN1uHB0dIZ1OY3l5+WEDICKix68YwVas+UCnZL0NckaHroUhAvUfGWo/NGRD9msTD56oDl1PQoKEpN64XguLAESENd34UYFaMHnxgBKJBH7+858ziUFENETGxsagKAr8fj/cbjd2dnYeZmCbjIyegWwzfqGxX5t4uEoREdcBJsJXrffooU0xgi0kkXnAzEWlUsHa2hoWFxexsbGBeDwOq9X6YOMTEdHToezu44XWSCbo1b+HO7KNY7LtkCeqISwCiG31UNi62zLMSYybM7lx4DF5YQImMYiIho/P54Oqqri4uIDD4UAul7v3MWvTSg98tV9jbuMMEZcf2Iviyzu1AYqfgPUH/CUolUrB4XBgZGQEqqpibm7uwcYmIqInphjBViyLkP0uSzZsGJ8EgCzyvUyVnJyA/ZYjPUU/MTuAYfDv//7vODw8vFMfnWpeJBIJJBIJLC0tEelwkAAAIABJREFUYWNj4079ExHR/RsdHcX29jZevnyJYDCI6enp+ysWqQTgjUlIVutNFM9u2U9sH9CMX466/gjUSxsU8QnjkG8Zxk2USiUEg0FUKhVufUpERA9C2Q2hPscx5oUQExHWrph50VERZ6cAmpZ9Uv9w5sU1fvnLXyKXy2Fzc/NOj6tmWCQSCbjd7kvHryzkUqsCX9VSab6tUEz7ufbK9V3Haa8836HifecxAtWq9AoC1Vga511NU6hqxW6qx4oRuOp9tB2r3u9199I9lgeuzk9Ej9r09DRUVcXU1BScTicSiUTfxyienQI4xVn1TUXL97BspFNNDGn9+g9evbSBDbJ8/7MudnZ24Ha74ff7mbggIqIHY9ShqD6SEoAsQvYAbjIHoxjxI5RFj3+vasijsRU59UDXdb36j0friy++0L/44gtTY5ibm9MBXHqMjY3p8Xhc1/XOfw5JCTqkZP25FhZ1iGFda2pz6VhSMvpvuk5PSroYrrVI6hJQfa7pYal6rRbWRYh6rVkybBzXwqIOSHqyebym50kJTX1reliEDlHUxeo9iqLYGEtE07XGczEc1iWxOQbotdCTkqSHO9xf53vpFkvj2l5ez3610XVd//HHH/WxsTGd7m52dlafnZ01O4wnZ2lpqf4eRZ398Y9/1JeWlvS5uTn98+fPfezZeH+r/X0hSdX3doi6KF7++6T+qL43JaXGMTGsVd+7q8eq71e9tKmpnWu8x/aXqqr69PS0vrq6qv/lL3+5lzGI6G5+/etf6zab7c79zM3N6el0ug8RPQ38PGmStu8ll7X+Pd3+93Av/Uttf6e2f896TO7y3/FPfvIT/Xe/+53OmRcmGRsbQzwex48//oilpaXbd1SMwB/KQlqXG1m72lZ3PRWKsUGOyh0zfh6583EtnwXE6vqsYgRbMQnr9dSiDfK6BGSzmEwaBWuyk+vV4m42yHthiIjhQKm2zejIyDKi63nstqc1lQC2Jl5DljPQM51jaX8tOscSutx3z/pTnZ+IHi+r1Yp4PI6NjQ0sLi5ibW0NlUqlDz17EG2qQB6NRuvFwzKZ5mJiTQ8tDPH0rL6dau14RrbBJmca7Zq2Sr2uTU3tXL+LdZbLZQSDQaysrCAej9/fMhwiIqKbsMlYl4DTs6u/UDXvNqLrve8SUvyUx4RJ244PKyYvHljfkhY1Wh7ZDmuqbOOTaC4UY0w/vosYvNWlEVsTWuNDrZZHtumcIAgQvMb+QqdnxuBic3DVqryX3gQ8UfgOBAh2Y61ZzCtAOPB1/JDc9V6ujKVpvJi3fv7q6v19qs5PRE/C3NwcVFXFyMgIHA4HUqnUwwdhk7H+4uGHva1EIgGn04mpqSmoqorp6WmzQyIiIqoq4uy001ap/aBgN+978G3Hhx2TFw+k70mLFh2q2don0Px1WstnMXmnPXcaexCv5+2ttSvEMLQOvwBm5N6r1CgBAd7TMLSm/ZKT8HasIXHlvXSNpam9lGzbS7mT/lXnJ6Knw2KxYHV1FYqiIBKJYGFhAaVS6UFj6DZrbpAUCgW43W4cHR0hnU5jeXnZ7JCIiIhaKAE79l/sdU8wFM9wiutnZnTuewsTrx9u967HgsmLBxKPx+8haYF6kiJ20LYuQssjCwk+D2BkDWv/fnee12GIyGL/U9EYP7uPT73+P1s8wynaMpjFCLZiaF36Uhvn0pKPK+7lprFcJbYP7F1TXbiXNkT0JI2NjUFRFPj9frjdbuzs7Jgd0kCoVCpYW1vD4uIiNjY2EI/HYbVazQ6LiGigVCoV/P3f/319pvDPf/5znJ+ftxSqdzgcZof5yNQ2Emg8DnzdlkpW21ZnjGdDbT/stjA2MKhtIlDbMMBb25K1bQMCY1Z4dSZ5INByLTF5Mfyqa7EQ8zbtAFJEZCsGMfwaHgBQdhGa9OHa3IWWRy+VG4qf9pEFjNkPNhnr0uVKvMWIqx5PNrTb2PFjN4Ss+ALNuQvjWBiXko/Ve4ttNc2+uOpeeoilZ32rzk9ET5nP54Oqqri4uIDD4UAulzM7JNOkUik4HA6MjIxAVVXMzc2ZHRIR0UCyWCx48+bNlW02NjYeKJqnwqjF1zxzu3vpisttdb3bD5q1+lXRlu8vYljrXLuqvtMJAPg6Xvuk6Tp3GxkU7X8OzVXgISV7qgJfe9SK3LYfb3/Uq8ZXq+mivUpubeeSbtd1irV5JxMRuihJjb5b4m5U6JWS7TFUdz2pHxN1SertXjrH0tvr2e/q/KwO3T/cbcQc3G2kf46Pj/WZmRl9eXn5Se2m8cc//lH3+Xz6/Py8/uOPP5odDhHdAXcbeTh//etfdavV2vEz7/T0tNnh0S1pYbG3XbuSUu+7lgyJfuw28pP+pUGo3zxRHXq05Qh0uXNbm5zpeE7LZyGGtc6FLyMu2PMaAGMGRaZTB54o9NYgeowVQG2+xMRrZDr2YWQiG2c6xdA4pgQEnPZwL51j6e31tF1qc/l17aXNTRweHqJQKHDNN9EjNz09DVVV8e2338LpdOLNmzf3s5xwgOzs7GBvbw/b29vw+Xxmh0NENDRqsy9WVlYuneOsi2E22VsBUI8P0sH9RzNsuGzksZsIY6/L2gabvIfwxAPHcxeP6V5gJC3cbjfcbjf+8Ic/mB0OET2Q5eVlpNNpHB0dwe12o1AomB1S3+VyOTgcDlxcXEBVVSYuiIhuYXl5+VJdoOnpab6nDjGbHO1x2bkH0R63XH1KOPPikfPIV00JsEEeoqINj+VeDg8Psbm5icPDQ7NDISKTWK1WxONxHB4eYnFxEfPz89jY2IDFYjE7tDspl8tYW1vDyckJ4vE4tz4lIrqDTrMvOOuCnjLOvKB7oiAg2BHKVivw3rhi5uPTPNOCiQsiAoC5uTmoqoqRkRE4HA6kUimzQ7q1RCIBp9OJqakpqKrKxAURUR80z77grIvhcH5+jp///Odmh/EoceYF3ZP2ehZP1//8z/9cm7BIpVJwu90PGNXw+eGHHwCAr9MDKxQKmJ2dNTuMR81isWB1dRVff/01gsEgotEo3r9/PzRbiBYKBQSDQYyNjSGdTg9N3EREw6B59gVnXdBTx+QF0T376U9/ClmWUS6XcXJy0rHN9PT0tVtiPXWhUAgAp0uaYWZmxuwQnoSxsTEoioKDgwO43W74/X6srq6aHVZXlUoFm5ubSKVSePfuHbc+JaKB81hmuk5MTOCf/umfMDo6+ijuyWKx8LMF3QqTF0QPwOfzwefz4eDgAJubm5eSGFarlR/8rzE6OgoAfJ3o0fP5fJibm8Pbt2/hcDjw/v37gfuQl0qlsLKyAr/fD1VVh75WBxE9HqVSCWtrazg4OHhUy9csFgs2NzfNDqMvKpUKzs/PMT8/j+3tbc7Yo54xeUH0gK5LYhARAUaybnt7Gy9fvkQwGMT09DS2t7frSTyzlEolBINBVCoVKIqCsbExU+MhImqWSCTw9u1bvHnzBu/evTP9PZO6K5VK9WXTT2HrcOoPFuwkMoHP58Px8TE+fvz4qH4VIKL+mp6ehqqqmJqagtPpRCKRMC2WnZ2d+nIWJi6IaJCUy2V4PB4cHR1BVVUsLS0xcTHgrFYrlpaWoKoqjo6OsLCwgEqlYnZYNOCYvCAyUS2JwToORHSV5eVlpNNpHB0dwe12o1AoPNjYuVwODocDFxcXUFWVle6JaOCsrKzgq6++QjweZ9JiyIyOjiIej+OXv/zlo1kWQ/eHy0aIBgB/wSSi61itVsTjcRweHmJxcRHz8/PY2Ni4t3oT5XIZa2trODk5QTwe5ywxIhpIqVQKpVIJy8vLZodCd7C6ugqn04lcLjdwdZ5ocHDmBRER0RCZm5uDqqoYGRmBw+FAKpXq+xiJRAJOpxNTU1NQVZWJCyIaSOVyGSsrK4jH42aHQn0Qj8frdZWIOmHyYoAVIy4IgnD5EVC6tnFFilf04YJxuoiIq8M1SqB6LADlqvEFAQGluX3TsToFgWrfjX5q418dnxLoPGb9vtvG7Tx+e9/GPbX0HVBa27giKPbYptfXn4joPlgsFqyurkJRFEQiESwsLKBUKt2530KhALfbjaOjI6TTaf6SSUQD7Te/+Q3m5ua4W8Uj8ezZM0xPT+M3v/mN2aHQgGLyYoDZ5Ay0sAhAQlLXoes6dF1DGGcowvjibN9/Aa12LikhG7LXv+QrAaHpvIawmEXIHoACG+RMEhIASElkZJsxoCeKpCQirEXhqY6vJyWIYa06tnGNGNYQ9SgIeGOQksbYSQmIbdW+2CsICF7EAGDfDz/22sbHFfG5sIWwcUwLQ4SIsFYdY8K4b3iil14XLSwi5m3t2xi31ncMXlcE9qgRK6Qk9Kin8RqLYWgZGTYAnh7aoIfXn4jovo2NjUFRFPj9frjdbuzs7Nyqn0qlgrW1NSwuLmJjYwPxeJxfBoho4H333Xd4+fKl2WFQH/3qV7/Cb3/7W7PDoAHF5MXQsUGOyrAVI/CHspDWG1+m61/qY1uIKBFsxUSE92rnbZDXpaZ+PHgdFoHYARpftRUcnL7AlzZcr3iGU4iYsBtP7RMikM1Dq/Yd1TWERSA7uV5Njtgg74UhIoYDY1pHl/gmsR5tuqfmiOXOxwFAy2cBcQJ21PqWsF5LytT6zoaw26+8wnWvPydgENED8vl8UFUVFxcXcDgcyOVyPV+bSqXgcDgwMjICVVUxNzd3j5ESEfXP+fk564Y9Ms+ePXvQotQ0XFiwc1hpeWQh4oW99bBtfBJADPmDSWQxifXmb/ueKHS9qa28DinkxYEShccDQDkA1qMtCYLi2Wnn8W0yMroMwJjl4I0BwOSlZuJEU4C2cUwCOD0rAshfG9/1YvAKMWOcsAY9Wu1MyyPbdK7Z6VkRPgCIedFyWnzRofsr2lz3+mtA10wLEdE9GB0dxfb2Nl6+fIlgMIjp6Wlsb293rbxfKpXqa4u59SkRDSMmLx6f0dFRlMtls8OgAcWZF0Mta3xJbmafgFh/coqzK2cAGLMvjOUeRUS2AJ+ntYWWz2JyvPO38FptiAOfXl3GcVPXxXedxrKR9by9taaGGG4s52h61JfISMn6sa6xX9vmutefiOjhTU9PQ1VVTE1Nwel0IpFIXGqzs7MDt9sNv9/PxAURERENBSYvhlX1S3LsoG0dhJZHFhJ8rycgdvpyXYwg0nSJTV6HlA1hN/IJ+5M+tOYuijg7lS4lNAAASgDemJE8iHY630l1qcmLL23V+K+Pr1ee12GIyGL/U9HoO7uPT/e5dOO617/X14SI6J4sLy8jnU7j6OgIbrcbhUIBuVwODocDFxcXUFUVPp/P7DCJiIiIesLkxbCyyViXAMS8TbtsFBHZikEMv4anej7mbd3hQ9nNY7zli7UHPgmIhfbx4nXbN25lF6FLCY3qSGenaJ45oeWzHcPMhnYbRTR3Q8iK1ZoavcSn5dG51w7xfNpHFjBmidhkrEutxUEBo8Bm32ppXvf692kYIqK7sFqtiMfj2NjYgNvtxr/+678iHo9fuZyEiIiIaBCx5sUAK0ZcsIeyALLwCkBSj7Z8KfZEdWgTLti9AmqlGaSkjoyncT4JAV67gFDT+WjbOJ7XYYinaCnU2Rg7hkulI0J2+MNhSAghVO1bkiQYNShOEdYyqK3OECVgSxDgBS7t1nFlfMUIXEYhDWOM6s4fAAAl0PS6NIIzdkFp67vt/PpBrT6HFwKS0Ca26n3ZXYCWkaEFrm9T25XkqtefiGhQzM3NYX5+HrOzs5ienjY7HCIiIqIbY/JigNnkDKo1MW/dxhPVobdnKzqYfPFlS31JLZ+FGNYaNSKaFCMu2PPjyOitiZBotMNAE6+RuSKArvE1FQTtcBH0Hm6qc9/txzyXXj/bpesut2mEef2fEREREREREd0Nl40Qip8AX3uSYiKMvQ6JCwCwyXsITzxAYERERERERETgzAuCgt38+OWlJPJV0wlskLskNoiIiIiIiIj6jTMvnqhixAVBECAIB/D1vF1IrxQEBDtCWSAbskPoW5VMIiIiIiIieoo48+KJut9aDR5E9cuFQYmIiIiIiIhugzMviIiIiIiIiGigMXlBRERERERERAONyQsiIiIiInqiFAQCClCMwCUI1ZpwAgRXBEWzQyOiFkxeEBERERHR0xXzQvADe7oOXdeh60lI2RDsTGAQDRQmL4aREoAgBGDs4VFExCXAFeFbKxERERHRjUlJ6BkZtvoBD3wSgGwemnlREVEbJi+Gkec1wmIMXkGAINgRQhh7su3664iIiIiIqIkH0ain9ZASgDcGiOHX8FSfC01LSgJKo2kx4mo6V/1xsdbeFUERCgLNy1GaHwEFSqDzUpXWflt/qGw512GMWttOsbWMF1A69HW5Tcv9t81G6Xj/RPeEW6UOJRvkjI572+mUiIiIiOgpKUbgsoeQBYyZGHq0ekJBwBuDlNQR9Rhf7L1bEbz2GDM1bHIGGlywhyaR1KPwoIjIma/peiCqJwHhAD49Cg+qfSAJPeoBoCMJAd7TMLTq7A8lIMAbk5DUM43kidcOIW9cY5MzSOZbrzHG8OI0rCEj26AEBGxNaNB1G4yZ2nZ4XRPQMtXx6uN7jPj3X9T7skU7tAmftrRBNc7OYzTPYiHqH868GDI3yYQ2XYVANQvbyI660L7SpFvmtD3z2zVbfKPMrDF+y/VtffcU9xWZ8H5llm/3mhMRERHR0LDJyOg6dF1D+NTbmMFQPMMpREzYjWb2CfHK5STFiB/5cU+Xsz0oRrDVPOsDADxRaGERiG3VPwfbJ8Rr+pCwXp+ZbYO8LgHZEHZvNTVCwW4oe89jEF2PyYsh44nqSEowMsJRT+PNTAx3yXIqCAhexABg3w8/9ow3ZTGLkL2RoFACQvVc9U1bjMFb/WJukzPGGJCQrBcy0hDGGew9xqMEBCNbW+8/i5DdhS2EjWNaGCJEhDWj/+TEFlzXxt3IhOu6EUdsq5FMaH+t6vfRFFsvr+fNX3MiIiIiGk42yBkNYRHIhnah2GRk9AxkW/XzbPuX+DpjSbcfe2hfhdKTbAh2QYBQnf0xOd76CdM2Pgkgi3xz1qQpiVKMbBmfmwFAyyOL2hLz6sNrnD09q35Sjnnr57rfE2DMqDjARLgtWdLLGER9xuTF0OuQCW3hQVSvvgFPriMj2wDYIO+FISKGAwW3zJzaIEc7J0s6Z2ZFhPdq7av9YxLrHfsAPHIGmWvjvlkmvDfXvZ69tiEiIiKi4WTD+CQAnOKsaabwgU+v/qDXiYSknsRkyH67Qvpi8w96HdgnWo4byYxG8sCPF5A69df2yNQ+70vJ+rHu93SGiMsP7EXx5VUxdxuDqM+YvBhqXTKhXYi1b/kAYBvHJKqZ0b5lTq/KzE6iJYHsiUKvrvu7ddw9Z8LvGP+N2xARERHRMChGApeWUgNFnJ1W//VToFp/Qu9hRoUHr8OiMWPjtgFVP+s2zyYGUP08LcFXi8ETbUsYjDfa2icgZvfx6a4TIGL7wJ7xWfuSfo1BdANMXgytazKhN3XnzOl18RiZ637rLRPei15ezz6/5kRERERkKpv8GvC37yDiRygLQFrHlzhF8+dYLX/1j2U2eR0SYvDW6qS5IigWz3AqTsB+5ZU1RgIE2RD89axKEZGtWGsdjKuDwLrUukTcuC9Xy31eS1rvnLjo5xhEN8DdRoZVbB/QjEzorXIC1SUXL760AahlTuXub1B3icc+ARExY41ec//FCCKaDPkm6wKb41ZqmXBjBkfx7JaxXxf/TdoQERER0RAxdvFTAgIEb+OoWN21AwCkkBchu4AQAEmSYCzXOEVYy+DLT67q7N8svAKQ1KOIJiXEvF4I1SIUdjsgJXXYmmvRwQsBSSThhTHhOQS7C0Y9NTkDfby6w0jI6ENK6sh0+8zcvFNKyA4XNGRqO4YI9UoYEMMa1g+E6njG+NrEVj3+2vhaoNHGNaFhD/5Lbep14TqM0TVOojti8mJYXZUJ7SIb2oUiV7do2g0hK4axZwMAGetSCF57AONNSzmKERd2xzO9FR26NjMbgtfrwoTWmHqm7OYxXttFSssjC+DFDeIufjLm850VAY+tlgmf7OGFMOpitITby+t5i9eciIiIiAafJ6qjaXfT5jOI6jqaT0WjTc/kDHT5UmctW6Ve1RfQZdyufXRgk5G5FES3e2o/5rkUv+3SdR3u8coxiO4HkxdDRukxE9qJKAFbggAvcGmnjKsyp8XI5YxyLZ/Razz1/qtZa8DIIEcBI1tcrbERsgsI1Xb1uC5uef3KTPj4blNmuXFbxn0EfNCjnp7i7zX7TERERERERPeDyYshczm72T0TesnEa2SuSI12y5zaOmWUbxFP18xsl2xxXde4r8mEdxuvGIHLf4YiPD3Ff5PsMxEREREREfUfC3bS02OTsd5pfQoRERERERENJM68oCfJI3PqBBERERER0bDgzIsBYrVaUSqV+tyrgoBgRygLZEN2CEOzd9Gwxt2qUqnAYrGYHQYREREREdFQ48yLATI2Nobz83NYrdY+9tqpqvEwGNa4W52fn2NsbMzsMIiIiIiIiIYaZ14MkK+++grff/+92WFQH33//ff46quvzA6DiIiIiIhoqDF5MUCWlpZwcHCAcrlsdijUB6VSCYeHh/j666/NDoWIiIiIiGioMXkxQKxWK968eYOVlRWzQ6E+ePXqFd69e4fR0VGzQyEiIiIiIhpqrHkxYJaWlvDdd98hlUphfn7e7HDolhKJBKxWK/8Micg0iUQCe3t79eeFQgG5XK7l2Js3b/g+RUREQ6dcLvMHwieIyYsBFI/H4fF4cHJygtXVVbPDoRuoVCrY3NzE4eEhFGU4d0ghosdhfn4ewWAQlUqlfqxUKqFQKAAwZvvNzc2ZFR4REdGN/f73v8erV68AAJqmmRwNPTQuGxlAVqsVqqri4uICTqcTh4eHZodEPUilUnA6nRgZGYGqqswGE5GprFYrlpeXu55/8+YNt3ImIrpGMeKCIAjVRwAKACgB47krgmLHdgJckeqZWtvmYx2uCSiAEmhcLxgHGs+bxro8ngvNXXc710v/N4nhIf3+97+H3W7HP//zP6NYNCsKMhtnXgwoi8WC7e1t5HI5rK2tYXFxEc+ePcP09DRGRkbMDo+q/vM//xOFQgEnJyeYmZnBhw8f8OzZM7PDIiICYCQovv3225bZF8D1iQ0iIjLY5Aw0uGAPTSKpR+FBEZEzH3Q9Wm9TjLhg338BTc/ABhhf+L12CPkk9GgUehIQvDFk9z+hKMtGGxTxKQ+IACaTOqIeAB4dSQjwIgndOAAtfGr0naldZyQYvKfh6nhFRFx2hOwBjOtR4Ipznuj1/dt6aPOQajMtmLAggMmLgTczM4N0Ol2f6ntycvIodiPZ3NzExsaG2WHc2dTUFF6+fInp6WnOtCCigVNLUoTD4ZbjnHVBRGY7OTkxO4RbKUb8yI9nmg/AH8pCSmYaX+w9UeMLf2gLkdceyABESQJiIewqspGoKH5CfuIFJpG9YjQFu6EsIL5oGW8rJiKs1RIJNsjrEkLea8712v+t2vTfdUmLcrl86e+2QfHnP/8ZlUqFs+fblEqlO/fB5MWQsFqtj2p98ubmJr755huzwyAievTaZ19w1gURmW12dhbff/89vv/+e7NDuYEYvEIMYlhDxtN0WMsjCxEv7K2tbeOTAGLI18oyTLzGuhSD90BB1ONB8VMeE1/6kA91G6+IiOsAE2ER2G8fbxLrzVMgPFHoOgAlAG+3c732f+M2/fff//3fmJ2dxf/+7/92bfPnP/8Zm5ubDxfUDf3sZz8b6PjMctci4UxeEBERPWLtsy8464KIzNavH7AEQehLP72RkNR9OBDscEFDRm7OEGSNJEXzIfsExLYePD4J8B5AiQIH+xN4LQP5jmOdIeLaAvYy+PKTC5fzG6c4KwKejms4rjrXa/+9trkff/u3f4uzszO8evUK//Zv/9YxifEP//APLNj5BLFgJxER0SNXS1hw1gUR0V148DosIhvaRX1PuWqSInbQtsuclkcWEnzNszQ8PkiIYcu1hdMXX3avHxHbB/YykDs1sE9ArCVLmhUjiJxdca45vKv6v0mbezQ6OoqPHz/iv/7rv+Dz+fA3f8OvrcTkBRER0aNXS1pw1gUR0d3Y5HVIiMEbUGoHsC4BiHkRqCcIiohsxSCGX8PTcrUHPgnIZiexflVWQFrvnjSojhfztu4wouzmMS5fca45kKv6v0mbB8AkBrXQdV2v/uPR+uKLL/QvvvjC7DCoyWP/b476b3Z2Vp+dnTU7DBpwf/3rX/X379/rc3NzOgA++LjyYbFYdJ/Pp8fjcbP/0yUaCr/+9a91m81mdhh1wP1/ntTCYtP7hqQndV3Xk1Lr80vtoEu1E/W21WNaWBelpK7rSV1qa5+UGs/FsNbapxjWtaa4mtu2jHfFuV76v0kM9+HHH3/Ux8bGup7/y1/+ovt8Pn1mZuaeI6FB8pOf/ET/3e9+pwu6ruuCIEDvXMnlURgbGwMAnJ+fmxwJ1Tz2/+ao/2rFalm5mbrJ5XIIBoOYmZnBy5cvH02BY7o/lUoFqVQK33//PQqFAuLxOLe7JrrCv/zLv+Do6Ghgag3w8+Tjc35+DrfbjR9//NHsUGiA/PSnP0U6nWbBTiIiGm6VSgWbm5s4PDzEhw8f+OWTemaxWODz+eDz+ZDL5bC4uAi/349Q6CFL0xEREVEvuGiIiIiG2srKCgBAVVUmLujWZmZmoKoq/vCHPyCRSJgdDhEREbXhzAsiIhpah4eHKBQKSKfTZodCj4DFYsH79+/hdDoxPz8Pq9VqdkhERERUxZkXREQ0lCqVCoLBIOLxuNmh0CMyOjqKd+/e4dWrV2aHQkRERE2YvCAioqEUDofh8/nqRZmJ+mV+fh4AkEqlTI6EiIiIapi8ICKiofT999/jq6++MjsMeqRevnyJ7777zuwwiIiIqIrJCyLF4rCzAAAgAElEQVQiGkq5XA4zMzNmh0GP1PT0NE5OTswOg4iIiKqYvCAioqFTKpVYTJHu1ejoKMrlstlhEBERURWTF0RENHQqlQosFovZYRARERHRA2HygoiIiIiIiIgGGpMXRERERERERDTQmLwgIiIiIiJqpwQQUIqIuAQIggDBFUGxeqoYcRnHBAGCEIBSbX91OxcixVrXQtPxtkfT9V3HgoKAIMAVKTad76H/gNKlX6Ov5nvvdH3T5UQPjskLIiIiIiKiDmJeP7CnQ9c1hBGCvZpYsMkZaGERgISkHoUHRUTOfNB1HXpGhg1GAsG+/wKaXr1ezCJkN5IPnqiOpARAShrX6LrRnxiGVr0e1T782Ku20RAWY/C6XHAJXsQAYN9fPd/cfxFnCBvjamGIEBHWjDGSE2cowkhcNGLToSclZEP2RnLDE226v0Z8MW8teUL08Ji8ICIiIiIi6kBKZiDbAMAGeS8MMRvCbodv78WIH/lxT/MBbMVEhPdqiQgb5HXpZoMXI9iKSViXa6mMah/ZLCaTGsIikJ1cR0a2NeJDDAeKDXK0kQBp5pFl2IoR+ENZSOtNbWrJitgWmidgNNPyWUCcgP1md0HUN0xeEBERERERtfNEEfU0La+wh5AFcHrW/O0+Bq9gzI6INuUuoOWRxSTGba396XoUzc2upOWRrfZfX7rhjQEATs80AIA40ZRKsI1j8lJ83foVMdGWhbCNTwLIIq81H22MvzWh1WeVEJmByQsiIiIiIqIubHKmumwjictzJyQk9SQmQ/bWmhEAgFNcl0e4lhhuLO1oemTku85/aE9SALBPQLzUrrFsZD1vb6mrQfTQmLwgIiIiIiK6TvEMpwAmx9vnHnjwOiwiG9pt1IOwT0DslCAoRhDptWiEfQJidh+fek0WFM9wChEvvrxmbkQ1SRE7aAtEyyMLCb4uU0M8r8MQkcV+zwER9ReTF0RERERERG2UQPPuGkVE/CFkpWTr8pAqm7wOCTF4axfYZKxLQMzbOlNB2c1jvNd1IzYZ61KjyGc9koirHldzwkTZDSErvkBL7kLLI9uxXwAxb+v9bcUghl93XdZS/LSPLDolb4gexk/MDoCIiIiIiGjQeKI6EBAgeKsHpCT0auaiGHHBHsoC/397dx9bZX3/f/x19GAPeOQcq+gxmlm0hSoQDy6GUrJQiH5ty2KPYQJOFFBT7DItEH5a4h1TVNxU2qGBNtmgyqjiHK1OqLpBnYF2cxtnglItS8+Y6EGFndbSnlrk/P4oLZxep6X311X6fCSN9H2d67reV23IOS8+N9qtTJu0LVKowm3ZKsrMlK3o5A4khRFtk02ZSTYtab9ERIVqDUZal6/IlE3bVHPtqvbrJU1T+44j7dewFbX3lZpfo10ZUsEqKTVbWmWzKbP1QNROJTpQoGkn18hYkmTTktP6zyiMqObaaUrKtKnotN52tSUX2xef9nzR944V3gCDgfACAAAAAGLIKIwoUmisJ+buUiTX8GJFOry4s/ON9Qzj9bq8xsnhHNf+P+2KdYPWJrWrs4uqk2c4dVPDswBmY9oIAAAAAACwNMILAAAAAABgaUwbAQAAAIAhY7sW2zJb16rYnSTbJ6fWsgDOZoQXAAAAADBkZKgw0rrwJzCcMG0EAAAAAABYGuEFAAAAAACwNMILAAAAAABgaYQXAAAAAADA0ggvAAAAAACApRFeAAAAAAAASyO8AAAAAAAAlkZ4AQAAAAAALI3wAgAAAMCQ43A4FA6HzW4DwCAhvAAAAAAw5Hg8HgWDQbPbQD8KBoPyeDxmtwGLIrwAAAAAMOSkpKSoqqrK7DbQj/x+v7xer9ltwKIILwAAAAAMOVlZWSorKzO7DfSjsrIyZWVlmd0GLIrwAgAAAMCQM2/ePAUCAUZfnCXKy8slSenp6SZ3AqsivAAAAAAwJG3YsEE5OTks3DnEhUIhLV26VBs2bDC7FVgY4QUAAACAISk5OVlz584lwBjCwuGwcnJy9NBDD7FYJ7pEeAEAGIYOqGCaTTZbN78Wbze7YQBAJ/Ly8jR+/HhNnTqVKSRDTFVVlaZOnaopU6Zo4cKFZrcDi7Ob3QAAAIMvUbm7Isrdvli2zH3Kr9ml3MQOL+nqGADAUvLy8uTz+bRo0SIlJycrKytLPp/P7LYQQzgcVmlpqd555x1VV1erpKREycnJZreFIYCRFwAAAACGvOTkZFVWVmr69OkqLi7u/ug6vgb168ILL1RZWZmmT5+uyspKggt0G+EFAAA9cKBg2mlvwhardULJdi222TSt4MBpx6ep4ED/nh/73I716Oku2xd3mP6yffGp76cV6ECn12+9f9T5Ha7d7ec+/Z42m9pm4XTsLer+J3vrfv+tvXTsc1qs/wkAzmoLFy7U1q1bFYlE+LLgV1NTk0pKSpgmgh4jvAAAoJu2L7ZpgYpPvgGrUX5qkTKnTdM0W6aKJGnLgpPHa5SfultLkk4FDH09P/a5rR/eE3N3qSY/VVK2trW/QaxRvj5TUmFE27IlZW9TpDBDyihsfW1qvmp25SrxtOsnbZmjmvbr79aSpGlapfzWWk2+UpWq/JrW62+7dlU3n3u7FmcWKXvbyfOypaJVrX1ndOit/TlO663ja2L3f0AF0zJV1P7825QtKTW/RruY8wMAwFmB8AIAgO44UKBVRdl6pP3DcKJyH8mWdu/WxG01yk+Vdk985OSH5UTlFucrVUUq3d4P53d67hL9qtO1RBOVW3gqnDhlu361ZHeMZ0tVfnHb609eXxP1SMxrSBm5u7Qr0p3n/kz7lKprk1q/Tbo2Vdr9iWq6+FF3LUb/bbJ9yuj1dQEAgJURXgAA0B01n2i3ipR5+rSEzCJJ0r7PWj+Kp7Z9QpekxHGaKGnfZwf6fn6X5/ZkWsQBFUwr1bX5qTGebaLGnZ5SZBQqEinsVhjQ5XMn5mpXpHXR0+2LbUrqLHjoS/9K1Kw5qVJRptgYBgCAsxPhBQAA3ZV6cgpFh69duUlnPrev53d6bnenRXymgmkLpOJCzYp5fJ96lIP0QNu6FaW+yMnpLb3Rdf+JubsUqcnXvkybbG3TWQAAwFmD8AIAgO5Iulapu7fo7e5+wD85XWLOrMS+n9/Tc2Mp2iIVd7Lta9K1StVufdJxLseBAhX0dCRDx+fevliZRa1rURT2ZU5HV/2ftP1XS7Rb2dp2cs0LAABw9iC8AAAMczE+tMeSmKtHso2LcB4omNY+VWH3kl+dWmDzV0u0O3WOZiX2w/ndOPeMsh/p/IN/Yq4eyZaKMqN3Ctn+q080ri1wqPlEnU346Oq5D3y2T6eP6qj5pBvTRmKtidFV/2r9WWQWpSq/pntTXQAAwBATiUQiJ/9z1rryyisjV155pdlt4DRn++8c+t/06dMj06dPN7sNWERtbW0kISGhD1eoieSnKiKd9pWaH6np7Fj2tvYzt2VHH0vNr2k/JzU7O5JquF60vpwf+9xIpCY/9bR6dmRbJ+ek5tdEv7bDPTpev/2xa/JP9RX18+hO39si2adfMzv75J9TI6kdf84x7nHm/k/9/2o9Jfp+bT+jnur77xhw9rnnnnsiiYmJZrcBYJix2+2RDz74IGKLRCIRm82mSCQyANGINSQkJEiSAoGAyZ2gzdn+O4f+l5aWJkmqqKgwuRNYQSAQ0IwZM1RbW2t2KycdUMG0JG2Z09utOft6vlkGqO8DBZq2QCreFXunk8Fgvd8xwHz33nuv3n//fdXU9H6/IADoqREjRmjnzp1MGwEAABaTmKtH5pjdBAAAsBK72Q0AAAB0lJGba3YLAADAQggvAADok+1a3LY15+4k2T7ZpkiPttXo6/lmGap9AwCAoYjwAgCAPslQYSSiQtPON8tQ7RsAAAxFrHkBAAAAAAAsjfACAAAAAABYGuEFAAAAAACwNMILAAAAAABgaYQXAAAAAADA0ggvAAAAAACApRFeAAAAAAAASyO8AAAAAAAAlkZ4AQAAAAAALI3wAgAAAAAAWBrhBQAAAAAAsDTCCwAAAAAAYGmEFwAAAAAAwNIILwAAAAAAgKURXgAAAAAAAEsjvAAAAAAAAJZmN7sBnP3C4bCqqqoM9YqKiqjv09LSBqslAAAAAMAQQniBAedwOLR06VL5/f6o+owZM9r/7PP5CC8AAAAAADExbQSD4vHHH+/TcQAAAADA8EV4gUHh8/nk9Xp7fAwAAAAAAMILDJrORlcw6gIAAAAA0BXCCwyaWCMsGHUBAAAAADgTwgsMqo6jLBh1AQAAAAA4E8ILDKrTR1ow6gIAAAAA0B2EFxh0baMtGHUBAAAAAOgOu9kNYHgIh8OqqqqSJAUCAU2fPl1VVVUKhUKSpLS0NDPbAwAAAABYGOEFBkQ4HFZ5ebl+97vf6d1331VjY6OcTqckqampSc3Nzfrwww913nnnSZJCoZBGjx6t//u//9Mdd9yh9PR0ORwOMx8BAAAAAGARhBfoV36/X8uWLVNlZaXi4uJUV1fXfqxtlEWbxsZGNTY2tn9fX1+v3//+93rvvffU3NysmTNn6qmnnmJdDAAAAAAY5ljzAv0iEAho5syZSktL086dOxUOh6OCi56oq6tTOBzWtm3blJaWppkzZyoQCPRzxwAAAACAoYLwAn0SDoc1f/58TZo0STt37ux1YNGZuro67dy5U5MmTdL8+fMVDof79foAhqaEhARCTQyoUCgkt9ttdhsAAOAkwgv0WjAY1A033KAtW7aooaGhW+eMGjVKbre7/WvUqFHdOq+hoUFbtmzRDTfcoGAw2Je2AZwlCDAwkKqrq5WcnGx2GwAA4CTWvECv+P1+ZWVl6eDBg12+zu12q7m5WbNmzdKECRPk8Xii3gxWV1crGAzq448/1ttvv624uDjD2hhtWlpatG/fPk2ZMkVlZWWshQEMc/PmzdOrr76qvLw8s1vBWaisrExZWVlmtwEAAE4ivECPvfnmm7r77rt15MiRmMftdrtcLpdmzZqlRYsWdbkNasdj5eXlKikpUWlpqZqamtTS0mI45+DBg7rxxhv129/+VrfcckvfHgbAkJWbm6sZM2bovvvuY3g/+pXf71cgEJDP5zO7FQAAcBLTRtAjfr+/y+DC6XRq0aJF2rdvn4qLi7sMLmJJT09XcXGxPv30U82ZM0culyvm644cOaK7775bfr+/x88A4Ozg8Xj00EMPaenSpWa3grNIOBxWTk6O1q1bx5bdAABYCOEFui0QCGjWrFkxg4uRI0dq4sSJ2rt3r4qKiuTxePp0L4/Ho02bNqmiokJJSUkaMWKE4TVHjhxRVlYWa2AAw9jChQsVDAZVWlpqdis4S/ziF7/QzTffzNREAAAshvAC3RIKhZSRkaEvvvjCcMztdisrK0sffvihEhIS+vW+Xq9XH330kWbOnKnRo0cbjh88eFA33XQTu5AAw1hJSYmeffZZrVixgr8L0GvBYFAZGRkKhUJauXKl2e0AAIAOCC/QLfPmzdO///1vQ93lcunBBx9USUnJgA2vdTgcKi8vV05OTswA49NPP9VPf/rTAbk3AOtzu92qrKyUy+XS1KlTtXHjRkZkodsCgYBWr16tGTNmKDc3V+vWrTO7JQAAEAMLduKM/H6/qqqqDItnjhw5UrNnz9aKFSsGpY/Vq1frP//5j8rKytTU1NReb2lp0Y4dO+T3+xnmCwxjeXl58vl87aMwHA5Hv48GG8q++uorOZ3Obm9RPRz4/X653W7NmzdPlZWVLPwKAICFEV7gjG6//XbV1dUZ6hMmTNBLL700qL1s2LBBP/rRj/T3v/89ql5XV6dly5Zpx44dg9oPAGtJTk7Whg0bJLX+i3ogEDC5I+t49tlndd111yk9Pd3sVizD6/USWAAAMEQQXqBLpaWl+vLLLw310aNH66233hr0ldgdDofeeustjR8/XvX19VHH/vnPfzL6AkC7hIQERl6cpri4WMnJyT3eBQoAAMAKWPMCXVqxYoVh1IXdbtfcuXP7vKNIb3k8Hs2dO1d2e3T21jb6AgAAAABwdiG8QKeCwaAOHjxoqF988cV64oknTOjolCeeeCLmvO2//e1vCoVCJnQEAAAAABgohBfoVGlpqaFmt9s1b94800ZdtPF4PPL5fIb6ueeeq/LychM6AgAAAAAMFMILdKq4uFiNjY1RNafTqblz55rUUbTbb7/dsNBafX29XnnlFZM6AgAAAAAMBMILxBQKhbR3715D3W63KyUlxYSOjNLS0vT9998b6h988IHC4bAJHQEAAAAABgLhBWIKBAKGBTElKTMz04RuYnM4HLr55psN9UgkomAwaEJHAAAAAICBQHiBmAKBgKEWFxenyZMnm9BN5yZMmGCo2e32mP0DAAAAAIYmwgvEFAwG1dLSElWLi4szfaHOjhISEuR0OqNqJ06cYOQFAAAAAJxFCC8QUzAYNCzWec4551guvPB4PIbpLc3NzYQXAAAAAHAWIbxATB9//LGhdvz4cSUkJJjQTeccDoeh1tzcrFAoZEI3AAAAAICBQHiBmGKFFHa73XIjGmLtKmK322OGGgAAAACAoYnwAjFdffXVGjVqVFTNirt4BINBHT9+PKrmcDgsN70FAAAAANB7xr0wAbWuJTFixIioWktLi+XCi0AgoIaGhqia3W633PQWABhsGzduVHFxcfv31dXVqqqqiqqtWbNGXq/XjPYAAAB6hPACMXk8HtlstqhaY2OjPvroI5M6im2orM0BAIMtPT1dOTk5UdPrgsGgqqurJUler5fgAgAADBlMG0FMycnJampqMtRff/11E7rp3LvvvmuoHT9+nGkjAIY9j8ej++67r9Pjjz/++CB2AwAA0DeEF4jJ7XbrmmuuMdS/++679n+1M1tFRYXOOcf4Kzx16lQW7AQASQ899FDMvw+9Xq98Pp8JHQEAAPQO4QU6NXv2bMOb3sbGRm3atMmkjqKVlZUZ1rtwOp266667TOoIAKyls9EXjLoAAABDDeEFOjV//nzZ7dHLohw/flzr1q2LuUXpYAqHw3r55ZcNO42cOHFC6enpJnUFANbTcfQFoy4AAMBQRHiBTiUkJGjMmDGGenNzs1avXm1CR6c88MADqq+vN9THjRvHehcAcJqOoy8YdQEAAIYiwgt06YUXXpDL5YqqHTt2TGvWrDFt29RgMKjXXnvNMOrC5XLxphwAYmgbfcGoCwAAMFQRXqBLPp9P8fHxhnpTU5Pmzp1rQkfS3LlzY+6Ectlll/GmHABiaBt9QcALAACGKsILnFGs0RctLS3617/+pYcffnhQe/nZz36mPXv2qKWlJarucrlUUlIyqL0AgBUFg0GtX79eU6dO1eTJkzVmzBjZbDbl5+fr1ltvlc1m01VXXaXJkydr1qxZ2rhxo0KhkNltAwAAdMl+5pdguPP5fLrssstUV1cXVa+rq9P69es1ZcoU3XLLLQPexyuvvKLXXntN3377reHY9ddfL6/XO+A9AIAVBQIBvfrqqyoqKtLhw4clte4O1Zna2lpJkt/v11/+8hfdd999uuaaa7RgwQLNmzePtYMAAIDlMPIC3bJz50794Ac/MNSPHj2qBQsW6JlnnhnQ+y9fvlxLlizR0aNHDccuv/xy/eEPfxjQ+wOAFQWDQWVnZ2vSpEl69NFHVVtbq8bGxi6Di44aGhrU3Nwsv9+vvLw8jR8/Xnl5eYzGAAAAlkJ4gW7xeDwqKyvTRRddZDgWCoW0evVqpaen9/ub3WAwqOnTp6uwsDBmcBEfH68//elPcrvd/XpfALCyUCjUHjRs2LBBDQ0NhkWMe6O5uVn19fUqKCjQ2LFj9dxzz5m+NTYAAIBEeIEe8Hq9WrduXcwFPOvr67Vjxw6NHTtWK1eu7POb3XA4rLy8PE2cOFGVlZVqaGgwvCY+Pl7r169XcnJyn+4FAENJdXW1rr/+ehUUFKi+vr5fQouOwuGwQqGQVq5cqRtuuMG03aUAAADaEF6gR2677TYtX748ZoDR0tKiUCik5557TmPHjlV+fr4CgUCPrh8IBLRq1SpdfvnlKigo0JEjRwyLc0qtwcWTTz6p2267rdfPAgBDTUVFhdLS0lRbW9tlSBwXFyen06mRI0fK6/XK6/UqJydHd911V/v3drtdo0ePlt3e+fJXx44d0759+zRlyhT5/f6BeCQAAIBuYcFO9NiKFSuUmJionJwcHTlyxHD82LFjOnbsmPLy8vToo49qzJgxmj17tn74wx/K4/HI4XAoJSVFVVVVCofDCgaD+sc//qHNmze3/ytiV2/KL7roIq1bt47gAsCwsmbNGj399NP65ptvOn2N0+nUFVdcocWLF8vn8ykhIaHLa1ZXV2vTpk3avHmzjh49aliYuc3BgweVkZGhwsLCQVmgGQAAoCNbJBKJ2Gw2RSIRs3sZMG1v3no6CgBd8/v9+vGPf6xDhw516/WjR4/WOee0DvYJhULt61ScOHFC9fX13brG5Zdfrj/+8Y/sLDIMpaWlSWr9l2dguFmzZo1WrVoVc+0fqXW76GnTpumll146Y2DRGb/fr5ycHFVXV3e6ftGll16qoqIiAgxgmLr33nv1/vvvq6amxuxWAAwjI0aM0M6dO5k2gt7zer3at2+fvF5vtxbMrK+vVygUan9T3Pbn7gQXbrdbKSkp7fcDgOGioqJCTz/9dMzgwul0yuv1qqKiQm+//Xavgwup9e/0yspKbd26VUlJSRo5cqThNYcPH1Z2draqq6t7fR8AAIDeILxAn7jdbu3Zs0dbt25VcnKyXC5Xv17f5XIpOTlZW7duVWVlJbuKABhWAoGA5syZE3OqSHx8vBYvXqw9e/b0a6iblpamjz76SFlZWTH/zj18+LBuvPFGtlIFAACDivAC/SItLU379+/Xxo0blZycLKfTqVGjRvXqWqNGjZLT6VRycrI2btyo/fv3t08ZAIDhIhQKaebMmfr6668Nxzwej9avX6/nnntuQO7tcDhUUlKixx57LOYCzYcOHdJNN93ENqoAAGDQEF6gX/l8Pu3fv1979+7V888/r5SUFMXFxcntdsvtdhtWtbfb7e3H4uLilJKSoueff1579+7V/v375fP5THoSADDXgw8+qP/+97+Genx8vH79618PyqLFS5cu1fLlyzV69GjDsf379+vFF18c8B4AAAAkFuzEIAiFQu1b7LXtMNKmbecRSd1eOwPDEwt2YjgJBoMaP368YU0gp9OpxYsXD9iIi86kp6drx44dhq2r4+PjdejQITkcjkHtB4A5WLATgBnaFuxkq1QMOLfb3f7Bk+kfAHBmjz32mBobGw31iRMnDnpwIUmlpaUaP368Dh48GFVvbm7Wiy++qOXLlw96TwAAYHhh2ggAABYSDAb12muv6fjx41F1l8uldevWmdKTw+FQQUGBYVHmY8eO6ZlnnmHtCwAAMOAILwAAsJAXX3wx5qiL66+/3tSton0+X8zFO7/77ju9+uqrJnQEAACGE8ILAAAs5I033jCMuhg1apQ2b95sUkenbN682bA2UUNDg15//XWTOgIAAMMF4QUAABYRCAT0+eefG+rjxo2Tx+MxoaNoKSkphl2jJGnHjh1MHQEAAAOK8AIAAIsoLy/XiRMnomoOh0OzZ882qSOjzMxMQ83hcLATEAAAGFCEFwAAWMRbb71lWO/Cbrdr/vz5JnVktGjRIsPUkVAopD//+c8mdQQAAIYDwgsAACziiy++MNQcDocSEhJM6Ca2lJQUNTQ0GOqBQMCEbgAAwHBBeAEAgEXEWu/iggsuMKGTzjkcDo0YMcJQP3DggAndAACA4YLwAgAAiwiFQobapZdeakInXbvwwgsNta+++sqETgAAwHBBeAEAgAUEg0Gdd955hvoVV1xhQjddu+SSSww1wgsAADCQCC8AALAAh8Oh77//3uw2ei3WVBIAAID+QngBAIAFuN3umOFFrHUwzBZrlEWsqSQAAAD9hfACAACL6LgFqSQdPnzYhE669r///c9QizWVBAAAoL8QXgAAYBGx1rc4cuSICZ10LhwOq6WlxVBPTEw0oRsAADBcEF4AAGARnQUA1dXVg9xJ5yoqKuR0Og31CRMmmNANAAAYLggvAACwiFmzZhmCgcbGRm3atMmkjox+85vfGLZ0dbvdSktLM6kjAAAwHBBeAABgET6fzzAl4/jx43rjjTdM6sjo7bffNtSam5sJLwAAwIAivAAAwCLcbreuueYaQ/3LL7+U3+83oaNopaWlOu+88wz1WbNmmdANAAAYTggvAACwkAULFiguLi6qVldXp2XLlpnU0SnLli1TXV1dVM3lcumOO+4wqSMAADBcEF4AAGAh8+bNM4QXkrRnzx6Vl5eb0FGrtWvX6ptvvjHUzz33XKWnp5vQEQAAGE4ILwAAsBCPx6O5c+fKbrdH1UOhkB544AGFw+FB7ykUCunJJ5/Ut99+G1U///zztWLFCjkcjkHvCQAADC+EFwAAWMwvf/lLXXjhhYb6559/rkWLFg16PzNmzNDXX39tqF9yySVavnz5oPcDAACGH8ILAAAsxu1268EHH9T5558fVW9qalJ5ebnWrFkzaL3cc889+vTTTw11l8ulF154YdD6AAAAwxvhBQAAFvTzn/9cY8eONdRDoZBWrVqlZ555ZsB7uOeee1RaWqqmpqao+ogRI3TdddfJ5/MNeA8AAAAS4QUAAJbkcDj03nvvyePxGI4dPXpUq1evVnp6+oCsgREKhTR58mSVlJTo6NGjhuMJCQl65513+v2+AAAAnSG8AADAojwej7Zu3aqLL77YcKy+vl47duzQ2LFjVVpa2m/3XLt2rcaNGye/328YcSFJY8aM0bvvvssinQAAYFARXgAAYGEpKSl64YUX5HK5DMdaWloUDAa1cOFCTZ48WRUVFb2+T2lpqa666io9/PDDMRfnlKT4+Hht2bJFCQkJvb4PAABAbxBeAABgcXfeeafWrl2riy66KObxul8YL6QAAAGQSURBVLo6+f1+3XrrrRozZowWLFjQrSCjtLRUt912m1wulxYuXKja2lrDdqhtxowZozfeeENpaWl9ehYAAIDesJ/5JQAAwGx33nmnJk2apKysLB08eDDma0KhkCTp5Zdf1ptvvtn+vdfrbX9NOBxWdXW1pNYdQ+rq6rq874gRI3T11Vdr+/btjLgAAACmIbwAAGCI8Hq9+utf/6oZM2bo0KFDnY6SkE4FGZLk9/tjvuZMwYXL5dJ1112nsrIyud3u3jUNAADQD5g2AgDAEOLxeLR//3499dRTio+P1/nnn9/v97jgggt08cUXa+PGjXr//fcJLgAAgOkILwAAGILuv/9+HTp0SMuXL5fb7ZbT6ezzNUePHq34+Hg99dRT+vrrr+Xz+fqhUwAAgL4jvAAAYIhyOBxauXKlamtrtXbtWmVmZsput8fcmaQzbrdbI0eO1E9+8hMVFhbq0KFDuv/++wewawAAgJ6zRSKRiNPp1LFjx8zuBQAAAAAAoJ3NZlNtbW1reGF2MwAAAAAAAJ35//xwQnIayLNEAAAAAElFTkSuQmCC;" vertex="1" parent="1">
          <mxGeometry width="1071" height="1730" as="geometry" />
        </mxCell>
      </root>
    </mxGraphModel>
  </diagram>
</mxfile>
